<?xml version="1.0" encoding="UTF-8"?>
<svg width="478px" height="318px" viewBox="0 0 478 318" version="1.1" xmlns="http://www.w3.org/2000/svg" xmlns:xlink="http://www.w3.org/1999/xlink">
    <title>Cantor-Schröder–Bernstein theorem/proof-strategy</title>
    <g id="Cantor-Schröder–Bernstein-theorem/proof-strategy" stroke="none" stroke-width="1" fill="none" fill-rule="evenodd">
        <rect fill="#FFFFFF" x="0" y="0" width="478" height="318"></rect>
        <ellipse id="椭圆形" stroke-opacity="0.88" stroke="#000000" stroke-width="0.5" stroke-linecap="round" stroke-linejoin="round" cx="114" cy="159" rx="90" ry="135"></ellipse>
        <ellipse id="椭圆形备份" stroke-opacity="0.88" stroke="#000000" stroke-width="0.5" stroke-linecap="round" stroke-linejoin="round" cx="364" cy="159" rx="90" ry="135"></ellipse>
        <ellipse id="椭圆形备份-2" stroke-opacity="0.88" stroke="#000000" stroke-width="0.5" opacity="0.639999986" stroke-linecap="round" stroke-linejoin="round" cx="364" cy="159" rx="70" ry="105"></ellipse>
        <ellipse id="椭圆形备份-3" stroke-opacity="0.88" stroke="#000000" stroke-width="0.5" opacity="0.639999986" stroke-linecap="round" stroke-linejoin="round" cx="114" cy="159" rx="70" ry="105"></ellipse>
        <ellipse id="椭圆形备份-4" stroke-opacity="0.88" stroke="#000000" stroke-width="0.5" opacity="0.639999986" stroke-linecap="round" stroke-linejoin="round" cx="114" cy="159" rx="50" ry="75"></ellipse>
        <path d="M364,264 L120,294 M120,24 L364,54" id="形状" stroke-opacity="0.85" stroke="#000000" stroke-width="0.5" stroke-linecap="round" stroke-linejoin="round"></path>
        <path d="M361,264 L114,234 M114,84 L361,54" id="形状" stroke-opacity="0.85" stroke="#000000" stroke-width="0.5" stroke-linejoin="round" stroke-dasharray="2,2"></path>
        <path d="M360,24 L114,54 M114,264 L360,294" id="形状结合" stroke-opacity="0.85" stroke="#000000" stroke-width="0.5" stroke-linejoin="round" stroke-dasharray="2,2"></path>
        <path d="M61.2736602,25.2058824 C61.2736602,24.945151 61.527176,24.7930578 62.0342075,24.7496025 C62.2326112,24.7496025 62.331813,24.6898516 62.331813,24.5703498 C62.331813,24.559486 62.3207906,24.4888712 62.2987457,24.3585056 C62.2656784,24.2064123 62.2326112,24.108638 62.1995439,24.0651828 C62.1664766,24.0217276 62.0948309,24 61.9846066,24 C61.9625618,24 61.8964272,24 61.786203,24 C61.6759787,24 61.4885975,24.0054319 61.2240593,24.0162957 C60.9595211,24.0271595 60.6068035,24.0325914 60.1659065,24.0325914 C59.3833143,24.0325914 58.881794,24.0217276 58.6613455,24 L58.5290764,24 C58.4519194,24.0760466 58.4133409,24.1357976 58.4133409,24.1792528 C58.4353858,24.4725755 58.5070315,24.6626921 58.6282782,24.7496025 L58.8597491,24.7496025 C59.6313189,24.782194 60.1934626,25.0537891 60.5461802,25.5643879 C60.6123147,25.6295707 61.6098442,27.286301 63.5387685,30.5345787 C65.4676929,33.7828564 66.4486887,35.4287228 66.481756,35.4721781 C66.558913,35.6025437 66.6911821,35.6677266 66.8785633,35.6677266 L67.0108324,35.6677266 L67.2919042,35.6677266 C67.3580388,35.5699523 67.391106,35.5156333 67.391106,35.5047695 L67.8540479,30.241256 C68.1626758,26.732247 68.3280122,24.9614467 68.350057,24.9288553 C68.4051691,24.8093535 68.7633979,24.7496025 69.4247434,24.7496025 C69.7003041,24.7496025 69.8380844,24.6952835 69.8380844,24.5866455 C69.8380844,24.5649179 69.8215507,24.4888712 69.7884835,24.3585056 C69.7554162,24.1955485 69.7278601,24.0977742 69.7058153,24.0651828 C69.6837704,24.0325914 69.6066135,24.0108638 69.4743444,24 C69.4412771,24 69.3641201,24 69.2428734,24 C69.1216268,24 68.9066895,24.0054319 68.5980616,24.0162957 C68.2894337,24.0271595 67.8871152,24.0325914 67.391106,24.0325914 C66.3549981,24.0325914 65.677119,24.0217276 65.3574686,24 L65.159065,24 C65.0929304,24.0651828 65.0598632,24.11407 65.0598632,24.1466614 C65.0598632,24.1792528 65.0708856,24.277027 65.0929304,24.4399841 C65.1370201,24.5812136 65.1700874,24.668124 65.1921323,24.7007154 L65.2582668,24.7496025 L65.5889396,24.7496025 C66.1841505,24.782194 66.5368681,24.8745363 66.6470924,25.0266296 L66.4486887,27.4709857 L62.513683,27.4709857 L61.9515393,26.5258347 C61.4996199,25.7762321 61.2736602,25.336248 61.2736602,25.2058824 Z M66.3660205,28.2368839 C66.3660205,28.3563858 66.299886,29.2037626 66.1676169,30.7790143 C66.0353478,32.354266 65.9581908,33.1473238 65.936146,33.1581876 L65.4897377,32.4574722 C65.3133789,32.1641494 64.9661726,31.5829359 64.4481186,30.7138315 L62.9600912,28.2368839 L64.6630559,28.2205882 C65.7983656,28.2205882 66.3660205,28.2260201 66.3660205,28.2368839 Z" id="形状" fill-opacity="0.85" fill="#000000" fill-rule="nonzero" transform="translate(64.1257, 29.8339) scale(-1, 1) rotate(-180) translate(-64.1257, -29.8339)"></path>
        <g id="编组备份" transform="translate(413.7739, 29.1027) scale(-1, 1) rotate(-180) translate(-413.7739, -29.1027)translate(407.8136, 23.5378)" fill="#000000" fill-rule="nonzero">
            <path d="M3.24059293,10.3803657 C2.94298746,10.3803657 2.76662866,10.3857976 2.71151653,10.3966614 C2.65640441,10.4075252 2.62884835,10.4672761 2.62884835,10.5759141 C2.62884835,10.8692369 2.68947168,11.0484897 2.81071836,11.1136725 C2.82174078,11.1245363 3.5381984,11.1299682 4.96009122,11.1299682 C7.81489928,11.1299682 9.31946028,11.1191044 9.47377423,11.0973768 C10.168187,10.9887387 10.7468643,10.7443031 11.2098062,10.36407 C11.672748,9.98383678 11.9097301,9.48410175 11.9207526,8.86486486 C11.9207526,8.16958135 11.6011022,7.54491256 10.9618016,6.99085851 C10.322501,6.43680445 9.58950969,6.06200318 8.76282782,5.86645469 L8.59749145,5.81756757 C9.30292664,5.71979332 9.88160395,5.46992581 10.3335234,5.06796502 C10.7854428,4.66600424 11.0169137,4.16626921 11.0279361,3.56875994 C11.0279361,2.77570217 10.6311288,2.00980392 9.83751425,1.27106518 C9.04389966,0.532326444 8.06841505,0.114069952 6.91106043,0.0162957075 C6.83390346,0.00543190249 5.67103763,0 3.42246294,0 C1.21797796,0 0.0992018244,0.010863805 0.0661345496,0.0325914149 C0.0220448499,0.0651828299 0,0.10863805 0,0.162957075 C0,0.23900371 0.0110224249,0.315050344 0.0330672748,0.391096979 C0.0881793995,0.597509274 0.143291524,0.711579226 0.198403649,0.733306836 C0.242493349,0.744170641 0.325161536,0.749602544 0.44640821,0.749602544 L0.545610034,0.749602544 C0.843215507,0.749602544 1.17388826,0.765898251 1.53762828,0.798489666 C1.69194223,0.831081081 1.79665526,0.896263911 1.85176739,0.994038156 C1.88483466,1.03749338 2.28164196,2.54756227 3.04218928,5.52424483 C3.8027366,8.5009274 4.18301026,10.0707472 4.18301026,10.2337043 C4.18301026,10.3097509 3.86887115,10.358638 3.24059293,10.3803657 Z M10.1516534,8.86486486 C10.1516534,9.19077901 10.0689852,9.49496555 9.9036488,9.77742448 C9.73831243,10.0598834 9.46826302,10.2445681 9.09350057,10.3314785 C9.0163436,10.3532061 8.50931205,10.3695019 7.57240593,10.3803657 C7.35195743,10.3803657 7.12048651,10.3803657 6.87799316,10.3803657 C6.63549981,10.3803657 6.44260737,10.3749338 6.29931585,10.36407 L6.08437856,10.36407 C5.91904219,10.3532061 5.81432915,10.2988871 5.77023945,10.2011129 C5.7481946,10.1576577 5.5718358,9.50582936 5.24116306,8.24562798 C5.24116306,8.21303657 5.23565184,8.18044515 5.22462942,8.14785374 L4.71208666,6.09459459 L6.05131129,6.09459459 C6.94412771,6.09459459 7.45667047,6.1054584 7.58893957,6.12718601 C8.25028506,6.23582406 8.8399848,6.5508744 9.35803877,7.07233704 C9.87609274,7.59379968 10.1406309,8.19130896 10.1516534,8.86486486 Z M9.25883694,3.73171701 C9.25883694,4.20972443 9.13207906,4.60625331 8.87856328,4.92130366 C8.62504751,5.236354 8.29437476,5.42103869 7.88654504,5.47535771 C7.82041049,5.48622152 7.36297986,5.49165342 6.51425314,5.49165342 C5.21360699,5.49165342 4.55777271,5.48622152 4.54675029,5.47535771 C4.54675029,5.4536301 4.45305967,5.05710122 4.26567845,4.28577107 C4.07829723,3.51444091 3.88540479,2.74854266 3.68700114,1.98807631 L3.38939567,0.847376789 C3.38939567,0.803921569 3.45553022,0.782193959 3.58779932,0.782193959 C3.72006842,0.782193959 4.16647662,0.771330154 4.92702395,0.749602544 C5.90801976,0.749602544 6.43709616,0.755034446 6.51425314,0.765898251 C7.19764348,0.841944886 7.8259217,1.15699523 8.3990878,1.71104928 C8.9722539,2.26510334 9.25883694,2.93865925 9.25883694,3.73171701 Z" id="形状"></path>
        </g>
        <g id="编组备份-2" transform="translate(363.6571, 159.1486) scale(-1, 1) rotate(-180) translate(-363.6571, -159.1486)translate(349.744, 151.0008)" fill="#000000" fill-opacity="0.85" fill-rule="nonzero">
            <path d="M1.04161916,1.43402226 C1.06366401,1.43402226 1.09673128,1.42315845 1.14082098,1.40143084 C1.18491068,1.37970323 1.24553402,1.36340753 1.32269099,1.35254372 C1.39984797,1.34167992 1.46598252,1.33624801 1.52109464,1.33624801 C1.66438616,1.33624801 1.79665526,1.40686275 1.91790194,1.54809221 C2.03914861,1.68932167 2.12732801,1.84684685 2.18244014,2.02066773 C2.29266439,2.31399046 2.48004561,3.14507154 2.74458381,4.51391097 C3.00912201,5.8827504 3.26263778,7.186407 3.50513113,8.42488076 C3.74762448,9.66335453 3.86887115,10.2880233 3.86887115,10.2988871 L3.86887115,10.3477742 L3.09179019,10.3477742 C2.57373622,10.3477742 2.2981756,10.358638 2.26510832,10.3803657 C2.22101862,10.4129571 2.19897377,10.4672761 2.19897377,10.5433227 L2.31470924,10.9996025 C2.33675409,11.0539216 2.38084379,11.0810811 2.44697834,11.0810811 C2.51311288,11.0810811 2.77213987,11.086513 3.22405929,11.0973768 C3.75313569,11.0973768 4.01767389,11.1028087 4.01767389,11.1136725 C4.01767389,11.1354001 4.0672748,11.4069952 4.16647662,11.9284579 C4.26567845,12.4499205 4.331813,12.7649709 4.36488027,12.8736089 C4.77271,14.6661367 5.57734702,15.5624006 6.77879133,15.5624006 C7.18662106,15.540673 7.52280502,15.4211712 7.78734322,15.2038951 C8.05188141,14.986619 8.18415051,14.6987281 8.18415051,14.3402226 C8.18415051,13.9491256 8.06841505,13.6666667 7.83694413,13.4928458 C7.6054732,13.3190249 7.37400228,13.2266826 7.14253136,13.2158188 C6.65754466,13.2158188 6.41505131,13.4439587 6.41505131,13.9002385 C6.41505131,14.1066508 6.47567465,14.2859036 6.59692132,14.4379968 C6.718168,14.5900901 6.8504371,14.70416 6.99372862,14.7802067 L7.14253136,14.8616852 C6.96617256,14.926868 6.80083618,14.9594595 6.64652223,14.9594595 C6.51425314,14.9594595 6.38749525,14.9051404 6.26624857,14.7965024 C6.1450019,14.6878643 6.06233371,14.5357711 6.01824401,14.3402226 C5.94108704,14.0251722 5.85290764,13.6014838 5.75370582,13.0691574 C5.65450399,12.5368309 5.56632459,12.085983 5.48916762,11.7166137 C5.41201064,11.3472443 5.37343216,11.1516958 5.37343216,11.1299682 C5.37343216,11.1082406 5.67654884,11.0973768 6.28278221,11.0973768 C6.77879133,11.0973768 7.06537438,11.0919449 7.14253136,11.0810811 C7.21968833,11.0702173 7.28031167,11.0376259 7.32440137,10.9833068 C7.33542379,10.9398516 7.32440137,10.8475093 7.29133409,10.7062798 C7.25826682,10.5650503 7.23071076,10.4781399 7.20866591,10.4455485 C7.18662106,10.3912295 7.13702014,10.36407 7.05986317,10.36407 C6.9827062,10.36407 6.68510072,10.358638 6.16704675,10.3477742 L5.24116306,10.3477742 L4.8608894,8.35969793 C4.331813,5.6654743 3.96256176,3.98158453 3.75313569,3.30802862 C3.45553022,2.38460519 3.06974534,1.70018548 2.59578107,1.25476948 C2.18795135,0.907127716 1.78563284,0.733306836 1.38882554,0.733306836 C1.03610794,0.733306836 0.716457621,0.836512984 0.429874572,1.04292528 C0.143291524,1.24933757 0,1.54266031 0,1.92289348 C0,2.32485427 0.115735462,2.618177 0.347206385,2.80286169 C0.578677309,2.98754637 0.810148233,3.07988871 1.04161916,3.07988871 C1.52660585,3.07988871 1.7690992,2.85174881 1.7690992,2.395469 C1.7690992,2.1890567 1.70847586,2.00980392 1.58722919,1.85771065 C1.46598252,1.70561738 1.33371342,1.59154743 1.19042189,1.51550079 L1.04161916,1.43402226 Z" id="路径"></path>
            <g id="编组" transform="translate(10.1351, 0)">
                <polygon id="路径" points="0 0 0 16.2957075 2.26510832 16.2957075 2.26510832 15.6438792 0.661345496 15.6438792 0.661345496 0.651828299 2.26510832 0.651828299 2.26510832 0"></polygon>
            </g>
            <g id="编组" transform="translate(13.3757, 4.0739)">
                <path d="M2.86031927,1.20588235 C2.86031927,0.945151033 3.11383504,0.793057764 3.62086659,0.749602544 C3.81927024,0.749602544 3.91847206,0.689851616 3.91847206,0.570349762 C3.91847206,0.559485957 3.90744964,0.488871224 3.88540479,0.358505564 C3.85233751,0.206412295 3.81927024,0.10863805 3.78620296,0.0651828299 C3.75313569,0.02172761 3.68148993,0 3.57126568,0 C3.54922083,0 3.48308628,0 3.37286203,0 C3.26263778,0 3.07525656,0.00543190249 2.81071836,0.0162957075 C2.54618016,0.0271595125 2.19346256,0.0325914149 1.75256556,0.0325914149 C0.969973394,0.0325914149 0.46845306,0.02172761 0.248004561,0 L0.115735462,0 C0.0385784873,0.0760466349 0,0.135797562 0,0.179252782 C0.0220448499,0.472575517 0.0936906119,0.662692104 0.214937286,0.749602544 L0.44640821,0.749602544 C1.21797796,0.782193959 1.78012163,1.05378908 2.13283922,1.56438792 C2.19897377,1.62957075 3.19650323,3.28630101 5.12542759,6.5345787 C7.05435196,9.78285639 8.03534778,11.4287228 8.06841505,11.4721781 C8.14557203,11.6025437 8.27784113,11.6677266 8.46522235,11.6677266 L8.59749145,11.6677266 L8.87856328,11.6677266 C8.94469783,11.5699523 8.97776511,11.5156333 8.97776511,11.5047695 L9.44070696,6.24125596 C9.74933485,2.73224695 9.91467123,0.961446741 9.93671608,0.928855326 C9.9918282,0.809353471 10.350057,0.749602544 11.0114025,0.749602544 C11.2869631,0.749602544 11.4247434,0.695283519 11.4247434,0.586645469 C11.4247434,0.564917859 11.4082098,0.488871224 11.3751425,0.358505564 C11.3420753,0.19554849 11.3145192,0.0977742448 11.2924743,0.0651828299 C11.2704295,0.0325914149 11.1932725,0.010863805 11.0610034,0 C11.0279361,0 10.9507792,0 10.8295325,0 C10.7082858,0 10.4933485,0.00543190249 10.1847206,0.0162957075 C9.87609274,0.0271595125 9.47377423,0.0325914149 8.97776511,0.0325914149 C7.94165716,0.0325914149 7.26377803,0.02172761 6.94412771,0 L6.74572406,0 C6.67958951,0.0651828299 6.64652223,0.114069952 6.64652223,0.146661367 C6.64652223,0.179252782 6.65754466,0.277027027 6.67958951,0.439984102 C6.72367921,0.581213567 6.75674648,0.668124006 6.77879133,0.700715421 L6.84492588,0.749602544 L7.17559863,0.749602544 C7.77080958,0.782193959 8.12352718,0.874536301 8.23375143,1.02662957 L8.03534778,3.47098569 L4.10034208,3.47098569 L3.5381984,2.52583466 C3.08627898,1.77623211 2.86031927,1.33624801 2.86031927,1.20588235 Z M7.95267959,4.23688394 C7.95267959,4.3563858 7.88654504,5.20376259 7.75427594,6.77901431 C7.62200684,8.35426603 7.54484987,9.14732379 7.52280502,9.1581876 L7.07639681,8.45747218 C6.90003801,8.16414944 6.55283162,7.58293588 6.03477765,6.71383148 L4.54675029,4.23688394 L6.24971494,4.22058824 C7.38502471,4.22058824 7.95267959,4.22602014 7.95267959,4.23688394 Z" id="形状"></path>
            </g>
            <g id="编组" transform="translate(25.561, 0)">
                <polygon id="路径" points="0 15.6438792 0 16.2957075 2.26510832 16.2957075 2.26510832 0 0 0 0 0.651828299 1.60376283 0.651828299 1.60376283 15.6438792"></polygon>
            </g>
        </g>
        <g id="编组" transform="translate(109.7808, 69.5004) scale(-1, 1) rotate(-180) translate(-109.7808, -69.5004)translate(96, 61.3525)" fill="#000000" fill-opacity="0.85" fill-rule="nonzero">
            <path d="M4.97662486,4.77464229 C4.81128848,4.63341282 4.56879513,4.48131955 4.24914481,4.31836248 C3.92949449,4.15540541 3.59331053,4.07392687 3.24059293,4.07392687 C2.54618016,4.07392687 1.9895477,4.31836248 1.57069555,4.8072337 C1.15184341,5.29610493 0.936906119,5.92077371 0.925883694,6.68124006 C0.925883694,7.82193959 1.35024705,8.87029677 2.19897377,9.82631161 C3.04770049,10.7823264 3.99011783,11.2657658 5.02622577,11.2766296 C5.54427974,11.2766296 6.02375523,11.0158983 6.46465222,10.4944356 L6.51425314,10.5596184 C6.53629799,10.5922099 6.56385405,10.6248013 6.59692132,10.6573927 C6.6299886,10.6899841 6.67958951,10.7334393 6.74572406,10.7877583 C6.81185861,10.8420774 6.88350437,10.8801007 6.96066135,10.9018283 C7.03781832,10.9235559 7.12599772,10.9398516 7.22519954,10.9507154 C7.37951349,10.9507154 7.50627138,10.9018283 7.6054732,10.8040541 C7.70467503,10.7062798 7.75978715,10.6030737 7.77080958,10.4944356 C7.77080958,10.3314785 7.45667047,9.01695813 6.82839225,6.5508744 C6.20011403,4.08479067 5.86944128,2.8245893 5.836374,2.77027027 C5.63797035,2.1836248 5.21360699,1.70018548 4.56328392,1.31995231 C3.91296085,0.939719131 3.16894717,0.744170641 2.33124287,0.733306836 C0.777080958,0.733306836 0,1.10267621 0,1.84141494 C0,2.12387387 0.0992018244,2.37374139 0.297605473,2.59101749 C0.496009122,2.80829359 0.749524895,2.91693164 1.05815279,2.91693164 C1.22348917,2.91693164 1.37780312,2.86804452 1.52109464,2.77027027 C1.66438616,2.67249603 1.74154314,2.50410705 1.75256556,2.26510334 C1.75256556,2.15646529 1.74154314,2.05325914 1.71949829,1.9554849 C1.69745344,1.85771065 1.65887495,1.78166402 1.60376283,1.72734499 C1.5486507,1.67302597 1.504561,1.61870694 1.47149373,1.56438792 C1.43842645,1.51006889 1.39984797,1.46661367 1.35575827,1.43402226 L1.32269099,1.40143084 L1.33922463,1.40143084 C1.44944888,1.36883943 1.78012163,1.35254372 2.33124287,1.35254372 C2.75009502,1.35254372 3.08076777,1.41772655 3.32326112,1.54809221 C3.57677689,1.66759406 3.81375903,1.84684685 4.03420753,2.08585056 C4.25465602,2.32485427 4.40896997,2.58015368 4.49714937,2.85174881 C4.56328392,3.0581611 4.65146332,3.39493906 4.76168757,3.86208267 C4.9049791,4.38354531 4.97662486,4.68773185 4.97662486,4.77464229 Z M6.18358039,9.41891892 L6.11744584,9.5981717 C6.08437856,9.71767356 6.0568225,9.79915209 6.03477765,9.84260731 C6.0127328,9.88606253 5.97966553,9.96210917 5.93557583,10.0707472 C5.89148613,10.1793853 5.836374,10.2554319 5.77023945,10.2988871 C5.7041049,10.3423423 5.63245914,10.4020933 5.55530217,10.4781399 C5.47814519,10.5541865 5.37894337,10.6030737 5.25769669,10.6248013 C5.13645002,10.6465289 5.01520334,10.6628246 4.89395667,10.6736884 C4.40896997,10.6736884 3.94051691,10.3857976 3.48859749,9.8100159 C3.15792474,9.3863275 2.88236412,8.73993111 2.66191562,7.87082671 C2.44146712,7.00172231 2.33124287,6.37162162 2.33124287,5.98052464 C2.33124287,5.12228405 2.67293805,4.69316375 3.35632839,4.69316375 C3.97358419,4.69316375 4.57981756,5.07339693 5.17502851,5.83386328 L5.30729761,5.99682035 L6.18358039,9.41891892 Z" id="形状"></path>
            <g transform="translate(9.7218, 0)" id="路径">
                <polygon points="0 0 0 16.2957075 2.26510832 16.2957075 2.26510832 15.6438792 0.661345496 15.6438792 0.661345496 0.651828299 2.26510832 0.651828299 2.26510832 0"></polygon>
            </g>
            <g transform="translate(12.9624, 4.0739)" id="形状">
                <path d="M3.24059293,10.3803657 C2.94298746,10.3803657 2.76662866,10.3857976 2.71151653,10.3966614 C2.65640441,10.4075252 2.62884835,10.4672761 2.62884835,10.5759141 C2.62884835,10.8692369 2.68947168,11.0484897 2.81071836,11.1136725 C2.82174078,11.1245363 3.5381984,11.1299682 4.96009122,11.1299682 C7.81489928,11.1299682 9.31946028,11.1191044 9.47377423,11.0973768 C10.168187,10.9887387 10.7468643,10.7443031 11.2098062,10.36407 C11.672748,9.98383678 11.9097301,9.48410175 11.9207526,8.86486486 C11.9207526,8.16958135 11.6011022,7.54491256 10.9618016,6.99085851 C10.322501,6.43680445 9.58950969,6.06200318 8.76282782,5.86645469 L8.59749145,5.81756757 C9.30292664,5.71979332 9.88160395,5.46992581 10.3335234,5.06796502 C10.7854428,4.66600424 11.0169137,4.16626921 11.0279361,3.56875994 C11.0279361,2.77570217 10.6311288,2.00980392 9.83751425,1.27106518 C9.04389966,0.532326444 8.06841505,0.114069952 6.91106043,0.0162957075 C6.83390346,0.00543190249 5.67103763,0 3.42246294,0 C1.21797796,0 0.0992018244,0.010863805 0.0661345496,0.0325914149 C0.0220448499,0.0651828299 0,0.10863805 0,0.162957075 C0,0.23900371 0.0110224249,0.315050344 0.0330672748,0.391096979 C0.0881793995,0.597509274 0.143291524,0.711579226 0.198403649,0.733306836 C0.242493349,0.744170641 0.325161536,0.749602544 0.44640821,0.749602544 L0.545610034,0.749602544 C0.843215507,0.749602544 1.17388826,0.765898251 1.53762828,0.798489666 C1.69194223,0.831081081 1.79665526,0.896263911 1.85176739,0.994038156 C1.88483466,1.03749338 2.28164196,2.54756227 3.04218928,5.52424483 C3.8027366,8.5009274 4.18301026,10.0707472 4.18301026,10.2337043 C4.18301026,10.3097509 3.86887115,10.358638 3.24059293,10.3803657 Z M10.1516534,8.86486486 C10.1516534,9.19077901 10.0689852,9.49496555 9.9036488,9.77742448 C9.73831243,10.0598834 9.46826302,10.2445681 9.09350057,10.3314785 C9.0163436,10.3532061 8.50931205,10.3695019 7.57240593,10.3803657 C7.35195743,10.3803657 7.12048651,10.3803657 6.87799316,10.3803657 C6.63549981,10.3803657 6.44260737,10.3749338 6.29931585,10.36407 L6.08437856,10.36407 C5.91904219,10.3532061 5.81432915,10.2988871 5.77023945,10.2011129 C5.7481946,10.1576577 5.5718358,9.50582936 5.24116306,8.24562798 C5.24116306,8.21303657 5.23565184,8.18044515 5.22462942,8.14785374 L4.71208666,6.09459459 L6.05131129,6.09459459 C6.94412771,6.09459459 7.45667047,6.1054584 7.58893957,6.12718601 C8.25028506,6.23582406 8.8399848,6.5508744 9.35803877,7.07233704 C9.87609274,7.59379968 10.1406309,8.19130896 10.1516534,8.86486486 Z M9.25883694,3.73171701 C9.25883694,4.20972443 9.13207906,4.60625331 8.87856328,4.92130366 C8.62504751,5.236354 8.29437476,5.42103869 7.88654504,5.47535771 C7.82041049,5.48622152 7.36297986,5.49165342 6.51425314,5.49165342 C5.21360699,5.49165342 4.55777271,5.48622152 4.54675029,5.47535771 C4.54675029,5.4536301 4.45305967,5.05710122 4.26567845,4.28577107 C4.07829723,3.51444091 3.88540479,2.74854266 3.68700114,1.98807631 L3.38939567,0.847376789 C3.38939567,0.803921569 3.45553022,0.782193959 3.58779932,0.782193959 C3.72006842,0.782193959 4.16647662,0.771330154 4.92702395,0.749602544 C5.90801976,0.749602544 6.43709616,0.755034446 6.51425314,0.765898251 C7.19764348,0.841944886 7.8259217,1.15699523 8.3990878,1.71104928 C8.9722539,2.26510334 9.25883694,2.93865925 9.25883694,3.73171701 Z"></path>
            </g>
            <g transform="translate(25.2965, 0)" id="路径">
                <polygon points="0 15.6438792 0 16.2957075 2.26510832 16.2957075 2.26510832 0 0 0 0 0.651828299 1.60376283 0.651828299 1.60376283 15.6438792"></polygon>
            </g>
        </g>
        <g id="编组" transform="translate(113.8141, 158.8521) scale(-1, 1) rotate(-180) translate(-113.8141, -158.8521)translate(99.6283, 150.7043)" fill="#000000" fill-rule="nonzero">
            <path d="M1.47149373,15.2038951 C1.48251615,15.2038951 1.87932345,15.2310546 2.66191562,15.2853736 C3.44450779,15.3396926 3.8468263,15.372284 3.86887115,15.3831479 C4.00114025,15.3831479 4.0672748,15.3342607 4.0672748,15.2364865 C4.0672748,15.1169846 3.86887115,14.2967674 3.47206385,12.7758347 C3.05321171,11.1679915 2.84378563,10.3477742 2.84378563,10.3151828 C2.84378563,10.2934552 2.88236412,10.3206147 2.95952109,10.3966614 C3.63188902,10.9833068 4.34834664,11.2766296 5.10889396,11.2766296 C5.7041049,11.2766296 6.18358039,11.1299682 6.54732041,10.8366455 C6.91106043,10.5433227 7.09844166,10.1142024 7.10946408,9.54928458 C7.10946408,8.99523052 6.90003801,8.13698993 6.48118586,6.9745628 C6.06233371,5.81213567 5.85290764,5.11685215 5.85290764,4.88871224 C5.86393006,4.73661897 5.89148613,4.63341282 5.93557583,4.5790938 C5.97966553,4.52477477 6.06233371,4.49761526 6.18358039,4.49761526 C6.49220829,4.49761526 6.77879133,4.66057234 7.04332953,4.98648649 C7.30786773,5.31240064 7.52280502,5.75781664 7.68814139,6.3227345 C7.72120867,6.44223635 7.75427594,6.51285109 7.78734322,6.5345787 C7.82041049,6.55630631 7.90858989,6.56717011 8.05188141,6.56717011 C8.27232991,6.56717011 8.38255416,6.52371489 8.38255416,6.43680445 C8.38255416,6.42594065 8.36050931,6.34446211 8.31641961,6.19236884 C8.14006081,5.55140435 7.85898898,5.0245098 7.4732041,4.61168521 C7.09844166,4.1445416 6.65203345,3.91096979 6.13397948,3.91096979 L6.05131129,3.91096979 C5.53325732,3.91096979 5.15849487,4.05763116 4.92702395,4.3509539 C4.69555302,4.64427663 4.57981756,4.95389507 4.57981756,5.27980922 C4.57981756,5.4536301 4.77822121,6.09459459 5.17502851,7.2027027 C5.5718358,8.31081081 5.77575067,9.14189189 5.78677309,9.69594595 C5.78677309,10.3369104 5.54427974,10.6573927 5.05929304,10.6573927 L4.97662486,10.6573927 C4.06176359,10.6573927 3.26814899,10.1250662 2.59578107,9.06041335 L2.48004561,8.84856916 L1.91790194,6.64864865 C1.56518434,5.236354 1.36126948,4.46502385 1.30615735,4.33465819 C1.16286583,4.04133545 0.920372482,3.89467409 0.578677309,3.89467409 C0.42436336,3.89467409 0.292094261,3.94356121 0.181870011,4.04133545 C0.0716457621,4.1391097 0.0110224249,4.23688394 0,4.33465819 C0,4.48675146 0.40231851,6.13804981 1.20695553,9.28855326 L2.4304447,14.1120827 C2.4304447,14.2533121 2.39186621,14.3402226 2.31470924,14.372814 C2.23755226,14.4054054 2.02261498,14.4325649 1.66989738,14.4542925 L1.32269099,14.4542925 C1.25655644,14.5194754 1.22348917,14.5629306 1.22348917,14.5846582 C1.22348917,14.6063858 1.23451159,14.7095919 1.25655644,14.8942766 C1.31166857,15.1006889 1.38331433,15.2038951 1.47149373,15.2038951 Z" id="路径"></path>
            <g transform="translate(10.6807, 0)" id="路径">
                <polygon points="0 0 0 16.2957075 2.26510832 16.2957075 2.26510832 15.6438792 0.661345496 15.6438792 0.661345496 0.651828299 2.26510832 0.651828299 2.26510832 0"></polygon>
            </g>
            <g transform="translate(13.9213, 4.0739)" id="形状">
                <path d="M2.86031927,1.20588235 C2.86031927,0.945151033 3.11383504,0.793057764 3.62086659,0.749602544 C3.81927024,0.749602544 3.91847206,0.689851616 3.91847206,0.570349762 C3.91847206,0.559485957 3.90744964,0.488871224 3.88540479,0.358505564 C3.85233751,0.206412295 3.81927024,0.10863805 3.78620296,0.0651828299 C3.75313569,0.02172761 3.68148993,0 3.57126568,0 C3.54922083,0 3.48308628,0 3.37286203,0 C3.26263778,0 3.07525656,0.00543190249 2.81071836,0.0162957075 C2.54618016,0.0271595125 2.19346256,0.0325914149 1.75256556,0.0325914149 C0.969973394,0.0325914149 0.46845306,0.02172761 0.248004561,0 L0.115735462,0 C0.0385784873,0.0760466349 1.76841417e-14,0.135797562 1.76841417e-14,0.179252782 C0.0220448499,0.472575517 0.0936906119,0.662692104 0.214937286,0.749602544 L0.44640821,0.749602544 C1.21797796,0.782193959 1.78012163,1.05378908 2.13283922,1.56438792 C2.19897377,1.62957075 3.19650323,3.28630101 5.12542759,6.5345787 C7.05435196,9.78285639 8.03534778,11.4287228 8.06841505,11.4721781 C8.14557203,11.6025437 8.27784113,11.6677266 8.46522235,11.6677266 L8.59749145,11.6677266 L8.87856328,11.6677266 C8.94469783,11.5699523 8.97776511,11.5156333 8.97776511,11.5047695 L9.44070696,6.24125596 C9.74933485,2.73224695 9.91467123,0.961446741 9.93671608,0.928855326 C9.9918282,0.809353471 10.350057,0.749602544 11.0114025,0.749602544 C11.2869631,0.749602544 11.4247434,0.695283519 11.4247434,0.586645469 C11.4247434,0.564917859 11.4082098,0.488871224 11.3751425,0.358505564 C11.3420753,0.19554849 11.3145192,0.0977742448 11.2924743,0.0651828299 C11.2704295,0.0325914149 11.1932725,0.010863805 11.0610034,0 C11.0279361,0 10.9507792,0 10.8295325,0 C10.7082858,0 10.4933485,0.00543190249 10.1847206,0.0162957075 C9.87609274,0.0271595125 9.47377423,0.0325914149 8.97776511,0.0325914149 C7.94165716,0.0325914149 7.26377803,0.02172761 6.94412771,0 L6.74572406,0 C6.67958951,0.0651828299 6.64652223,0.114069952 6.64652223,0.146661367 C6.64652223,0.179252782 6.65754466,0.277027027 6.67958951,0.439984102 C6.72367921,0.581213567 6.75674648,0.668124006 6.77879133,0.700715421 L6.84492588,0.749602544 L7.17559863,0.749602544 C7.77080958,0.782193959 8.12352718,0.874536301 8.23375143,1.02662957 L8.03534778,3.47098569 L4.10034208,3.47098569 L3.5381984,2.52583466 C3.08627898,1.77623211 2.86031927,1.33624801 2.86031927,1.20588235 Z M7.95267959,4.23688394 C7.95267959,4.3563858 7.88654504,5.20376259 7.75427594,6.77901431 C7.62200684,8.35426603 7.54484987,9.14732379 7.52280502,9.1581876 L7.07639681,8.45747218 C6.90003801,8.16414944 6.55283162,7.58293588 6.03477765,6.71383148 L4.54675029,4.23688394 L6.24971494,4.22058824 C7.38502471,4.22058824 7.95267959,4.22602014 7.95267959,4.23688394 Z"></path>
            </g>
            <g transform="translate(26.1066, 0)" id="路径">
                <polygon points="0 15.6438792 0 16.2957075 2.26510832 16.2957075 2.26510832 0 0 0 0 0.651828299 1.60376283 0.651828299 1.60376283 15.6438792"></polygon>
            </g>
        </g>
    </g>
</svg>