<?xml version="1.0" encoding="UTF-8"?>
<svg width="448px" height="448px" viewBox="0 0 448 448" version="1.1" xmlns="http://www.w3.org/2000/svg" xmlns:xlink="http://www.w3.org/1999/xlink">
    <title>Cantor-Schröder–Bernstein theorem/ring-in-proof</title>
    <g id="Cantor-Schröder–Bernstein-theorem/ring-in-proof" stroke="none" stroke-width="1" fill="none" fill-rule="evenodd">
        <rect fill="#FFFFFF" x="0" y="0" width="448" height="448"></rect>
        <circle id="椭圆形" stroke-opacity="0.88" stroke="#000000" stroke-width="0.5" fill-opacity="0.08" fill="#000000" stroke-linecap="round" stroke-linejoin="round" cx="224" cy="224" r="200"></circle>
        <circle id="椭圆形备份" stroke-opacity="0.88" stroke="#000000" stroke-width="0.5" fill="#FFFFFF" stroke-linecap="round" stroke-linejoin="round" cx="224" cy="224" r="168"></circle>
        <circle id="椭圆形备份-2" stroke-opacity="0.88" stroke="#000000" stroke-width="0.5" fill-opacity="0.08" fill="#000000" stroke-linecap="round" stroke-linejoin="round" cx="224" cy="224" r="136"></circle>
        <circle id="椭圆形备份-3" stroke-opacity="0.88" stroke="#000000" stroke-width="0.5" fill="#FFFFFF" stroke-linecap="round" stroke-linejoin="round" cx="224" cy="224" r="104"></circle>
        <circle id="椭圆形备份-4" stroke-opacity="0.88" stroke="#000000" stroke-width="0.5" fill-opacity="0.08" fill="#000000" stroke-linecap="round" stroke-linejoin="round" cx="224" cy="224" r="72"></circle>
        <circle id="椭圆形备份-5" stroke-opacity="0.88" stroke="#000000" stroke-width="0.5" fill="#FFFFFF" stroke-linecap="round" stroke-linejoin="round" cx="224" cy="224" r="40"></circle>
        <g id="路径-4" transform="translate(217, 18.523)" fill="#000000" fill-opacity="0.85" fill-rule="nonzero">
            <path d="M0.269727403,0 L0.236011478,0 C0.0786704926,0 0,0.0617299047 0,0.185189714 C0,0.23008419 0.0168579627,0.319873142 0.0505738881,0.454556571 C0.0955284553,0.611687237 0.134863702,0.701476189 0.168579627,0.723923428 C0.202295552,0.746370666 0.309062649,0.763206094 0.488880918,0.774429713 C1.45540411,0.80810057 2.21401243,1.09991467 2.76470588,1.649872 C2.8770923,1.76210819 3.52893352,2.46919619 4.72022956,3.77113599 C5.91152559,5.0730758 6.50155428,5.73526932 6.49031564,5.75771656 C5.26530368,8.87788265 4.6247011,10.4660247 4.56850789,10.5221428 C4.46736011,10.6456027 4.1133429,10.7129444 3.50645624,10.724168 L3.03443329,10.724168 C2.96700143,10.7915097 2.93328551,10.8364042 2.93328551,10.8588514 C2.93328551,10.8812987 2.94452415,10.987923 2.96700143,11.1787246 C3.011956,11.3246316 3.06814921,11.431256 3.13558106,11.4985977 L3.37159254,11.4985977 C3.75370636,11.4761505 4.43364419,11.4649268 5.41140603,11.4649268 C5.78228121,11.4649268 6.12505978,11.4649268 6.43974175,11.4649268 C6.75442372,11.4649268 7.00729316,11.4705386 7.19835007,11.4817623 C7.38940698,11.4929859 7.5017934,11.4929859 7.53550933,11.4817623 C7.72656624,11.4817623 7.82209469,11.4200324 7.82209469,11.2965726 C7.82209469,11.2853489 7.81085605,11.2123954 7.78837877,11.077712 C7.7434242,10.9093577 7.70408895,10.8083451 7.67037303,10.7746743 C7.6366571,10.7410034 7.54674797,10.724168 7.40064562,10.724168 C7.05224773,10.6904971 6.7488044,10.5950964 6.49031564,10.4379657 L7.78837877,7.17189256 L8.68185079,8.16518285 C9.86190818,9.4334518 10.4519369,10.134928 10.4519369,10.2696114 C10.4519369,10.4716366 10.3170732,10.6119318 10.0473458,10.6904971 C9.99115256,10.6904971 9.91810139,10.7017207 9.82819225,10.724168 C9.65961263,10.724168 9.57532281,10.7858979 9.57532281,10.9093577 C9.57532281,10.9318049 9.58656145,11.0215939 9.60903874,11.1787246 C9.6539933,11.3246316 9.71018651,11.431256 9.77761836,11.4985977 L9.97991392,11.4985977 C9.99115256,11.4985977 10.1316356,11.4985977 10.401363,11.4985977 C10.6710904,11.4985977 10.9745337,11.4873741 11.311693,11.4649268 C11.6488522,11.4424796 11.8792444,11.4368678 12.0028694,11.4480914 C13.0143472,11.4480914 13.57066,11.4649268 13.6718077,11.4985977 L13.8066714,11.4985977 C13.8853419,11.4200324 13.9246772,11.3583025 13.9246772,11.313408 C13.9021999,11.0328175 13.8347681,10.8364042 13.7223816,10.724168 L13.4526542,10.724168 C13.0705404,10.7129444 12.7277618,10.6624381 12.4243185,10.5726491 C12.1208752,10.4828602 11.890483,10.3874594 11.733142,10.2864468 C11.5758011,10.1854343 11.4409374,10.0844217 11.3285509,9.98340913 L11.1431133,9.83189027 C11.1431133,9.84311389 10.6092779,9.2594857 9.54160689,8.0810057 L8.07496413,6.46480456 C8.07496413,6.45358094 8.24916308,6.00463618 8.59756098,5.11797028 C8.94595887,4.23130437 9.31121473,3.32219123 9.69332855,2.39063085 C10.0754424,1.45907047 10.2833572,0.976454856 10.3170732,0.942783999 C10.4294596,0.841771427 10.7722382,0.785653332 11.3454089,0.774429713 C11.7387614,0.774429713 11.9354376,0.723923428 11.9354376,0.622910856 C11.9354376,0.600463618 11.9241989,0.521898285 11.9017217,0.387214857 C11.8567671,0.207636952 11.8174319,0.101012571 11.7837159,0.0673417142 C11.75,0.0336708571 11.6713295,0.0168354285 11.5477044,0.0168354285 C11.5139885,0.0168354285 11.3285509,0.0168354285 10.9913917,0.0168354285 C10.6542324,0.0168354285 10.1541129,0.0224472381 9.491033,0.0336708571 C8.80547585,0.0336708571 8.28287901,0.0336708571 7.92324247,0.0336708571 C7.56360593,0.0336708571 7.3669297,0.0280590476 7.33321377,0.0168354285 C7.14215686,0.0168354285 7.04662841,0.0673417142 7.04662841,0.168354285 C7.04662841,0.179577904 7.05786705,0.263755047 7.08034433,0.420885714 C7.10282162,0.533121904 7.1252989,0.611687237 7.14777618,0.656581713 C7.17025347,0.701476189 7.19835007,0.729535237 7.232066,0.740758856 C7.26578192,0.751982475 7.31635581,0.763206094 7.38378766,0.774429713 C7.45121951,0.785653332 7.54112865,0.791265142 7.65351506,0.791265142 C7.76590148,0.791265142 7.91200383,0.830547808 8.09182209,0.909113142 C8.28287901,0.998902094 8.37840746,1.05502019 8.37840746,1.07746743 C8.36716882,1.07746743 8.10306074,1.73404914 7.58608321,3.04721257 L6.79375897,5.03379314 C4.68089431,2.74417485 3.59636538,1.53763581 3.54017217,1.414176 C3.4952176,1.32438705 3.47274032,1.25704533 3.47274032,1.21215086 C3.47274032,0.998902094 3.63570062,0.858606856 3.96162123,0.791265142 C3.97285988,0.791265142 4.0065758,0.791265142 4.06276901,0.791265142 C4.11896222,0.791265142 4.15267814,0.785653332 4.16391679,0.774429713 C4.19763271,0.774429713 4.22011,0.774429713 4.23134864,0.774429713 C4.24258728,0.774429713 4.25944524,0.768817904 4.28192253,0.757594285 C4.30439981,0.746370666 4.32125777,0.729535237 4.33249641,0.707087999 C4.34373505,0.684640761 4.34935438,0.645358094 4.34935438,0.589239999 C4.34935438,0.488227428 4.33811573,0.398438476 4.31563845,0.319873142 C4.28192253,0.173966095 4.2482066,0.0897889522 4.21449067,0.0673417142 C4.18077475,0.0448944761 4.09648494,0.0280590476 3.96162123,0.0168354285 C3.92790531,0.0168354285 3.82675753,0.0168354285 3.65817791,0.0168354285 C3.48959828,0.0168354285 3.2535868,0.0224472381 2.95014347,0.0336708571 C2.64670014,0.0448944761 2.31516021,0.0448944761 1.95552367,0.0336708571 C1.07890961,0.0336708571 0.516977523,0.0224472381 0.269727403,0 Z" id="路径" transform="translate(6.9623, 5.7493) scale(-1, 1) rotate(-180) translate(-6.9623, -5.7493)"></path>
        </g>
        <g id="编组-2" transform="translate(208.5384, 79.395)" fill="#000000" fill-opacity="0.85" fill-rule="nonzero">
            <path d="M1.06205165,1.48151771 C1.08452893,1.48151771 1.11824486,1.47029409 1.16319943,1.44784686 C1.20815399,1.42539962 1.26996652,1.40856419 1.34863702,1.39734057 C1.42730751,1.38611695 1.49473936,1.38050514 1.55093257,1.38050514 C1.69703491,1.38050514 1.83189861,1.45345866 1.95552367,1.59936571 C2.07914873,1.74527276 2.16905787,1.90801524 2.22525108,2.08759314 C2.33763749,2.39063085 2.5286944,3.24923771 2.79842181,4.66341371 C3.06814921,6.07758971 3.32663797,7.42442399 3.57388809,8.70391656 C3.82113821,9.98340913 3.94476327,10.6287672 3.94476327,10.6399908 L3.94476327,10.6904971 L3.15243902,10.6904971 C2.62422286,10.6904971 2.34325681,10.7017207 2.30954089,10.724168 C2.26458632,10.7578388 2.24210904,10.8139569 2.24210904,10.8925223 L2.36011478,11.3639143 C2.38259206,11.4200324 2.42754663,11.4480914 2.49497848,11.4480914 C2.56241033,11.4480914 2.82651841,11.4537032 3.28730273,11.4649268 C3.82675753,11.4649268 4.09648494,11.4705386 4.09648494,11.4817623 C4.09648494,11.5042095 4.14705882,11.7848 4.2482066,12.3235337 C4.34935438,12.8622674 4.41678623,13.1877524 4.45050215,13.2999886 C4.8663319,15.1518857 5.68675275,16.0778343 6.91176471,16.0778343 C7.32759445,16.055387 7.67037303,15.9319272 7.94010043,15.7074548 C8.20982783,15.4829825 8.34469154,15.1855565 8.34469154,14.8151771 C8.34469154,14.4111268 8.2266858,14.1193127 7.99067432,13.9397348 C7.75466284,13.7601569 7.51865136,13.6647562 7.28263989,13.6535326 C6.78813965,13.6535326 6.54088953,13.8892286 6.54088953,14.3606206 C6.54088953,14.5738693 6.60270206,14.759059 6.72632712,14.9161897 C6.84995218,15.0733204 6.98481588,15.1911684 7.13091822,15.2697337 L7.28263989,15.3539108 C7.10282162,15.4212525 6.93424199,15.4549234 6.776901,15.4549234 C6.6420373,15.4549234 6.51279292,15.3988053 6.38916786,15.2865691 C6.2655428,15.1743329 6.18125299,15.0172023 6.13629842,14.8151771 C6.05762793,14.4896922 5.96771879,14.051971 5.86657102,13.5020137 C5.76542324,12.9520564 5.67551411,12.4862762 5.59684362,12.1046731 C5.51817312,11.7230701 5.47883788,11.5210449 5.47883788,11.4985977 C5.47883788,11.4761505 5.78790053,11.4649268 6.40602582,11.4649268 C6.91176471,11.4649268 7.20396939,11.459315 7.28263989,11.4480914 C7.36131038,11.4368678 7.42312291,11.4031969 7.46807747,11.3470788 C7.47931612,11.3021844 7.46807747,11.2067836 7.43436155,11.0608766 C7.40064562,10.9149695 7.37254902,10.8251806 7.35007174,10.7915097 C7.32759445,10.7353916 7.27702056,10.7073326 7.19835007,10.7073326 C7.11967958,10.7073326 6.81623625,10.7017207 6.28802009,10.6904971 L5.34397418,10.6904971 L4.95624103,8.63657484 C4.41678623,5.85311732 4.04029173,4.11345637 3.82675753,3.41759199 C3.5233142,2.46358438 3.12996174,1.75649638 2.64670014,1.296328 C2.2308704,0.937172189 1.82065997,0.757594285 1.41606887,0.757594285 C1.05643233,0.757594285 0.730511717,0.864218665 0.43830703,1.07746743 C0.146102343,1.29071619 0,1.5937539 0,1.98658057 C0,2.40185447 0.118005739,2.70489219 0.354017217,2.89569371 C0.590028694,3.08649523 0.826040172,3.181896 1.06205165,3.181896 C1.55655189,3.181896 1.80380201,2.9462 1.80380201,2.474808 C1.80380201,2.26155923 1.74198948,2.07636952 1.61836442,1.91923885 C1.49473936,1.76210819 1.35987566,1.64426019 1.21377331,1.56569485 L1.06205165,1.48151771 Z" id="路径" transform="translate(4.1723, 8.4177) scale(-1, 1) rotate(-180) translate(-4.1723, -8.4177)"></path>
            <polygon id="路径" transform="translate(11.4887, 8.4177) scale(-1, 1) rotate(-180) translate(-11.4887, -8.4177)" points="10.3339311 0 10.3339311 16.8354285 12.643472 16.8354285 12.643472 16.1620114 11.0082496 16.1620114 11.0082496 0.673417142 12.643472 0.673417142 12.643472 0"></polygon>
            <path d="M13.7560976,1.12797371 L13.7223816,1.12797371 C13.5650407,1.12797371 13.4863702,1.18970362 13.4863702,1.31316343 C13.4863702,1.3580579 13.5032281,1.44784686 13.536944,1.58253028 C13.5818986,1.73966095 13.6212339,1.8294499 13.6549498,1.85189714 C13.6886657,1.87434438 13.7954328,1.89117981 13.9752511,1.90240343 C14.9417743,1.93607428 15.7003826,2.22788838 16.251076,2.77784571 C16.3634625,2.8900819 17.0153037,3.5971699 18.2065997,4.89910971 C19.3978957,6.20104951 19.9879244,6.86324304 19.9766858,6.88569028 C18.7516738,10.0058564 18.1110713,11.5939985 18.054878,11.6501166 C17.9537303,11.7735764 17.5997131,11.8409181 16.9928264,11.8521417 L16.5208034,11.8521417 C16.4533716,11.9194834 16.4196557,11.9643779 16.4196557,11.9868251 C16.4196557,12.0092724 16.4308943,12.1158967 16.4533716,12.3066983 C16.4983262,12.4526053 16.5545194,12.5592297 16.6219512,12.6265714 L16.8579627,12.6265714 C17.2400765,12.6041242 17.9200143,12.5929006 18.8977762,12.5929006 C19.2686514,12.5929006 19.6114299,12.5929006 19.9261119,12.5929006 C20.2407939,12.5929006 20.4936633,12.5985124 20.6847202,12.609736 C20.8757771,12.6209596 20.9881636,12.6209596 21.0218795,12.609736 C21.2129364,12.609736 21.3084648,12.5480061 21.3084648,12.4245463 C21.3084648,12.4133226 21.2972262,12.3403691 21.2747489,12.2056857 C21.2297944,12.0373314 21.1904591,11.9363188 21.1567432,11.902648 C21.1230273,11.8689771 21.0331181,11.8521417 20.8870158,11.8521417 C20.5386179,11.8184708 20.2351746,11.7230701 19.9766858,11.5659394 L21.2747489,8.29986627 L22.1682209,9.29315656 C23.3482783,10.5614255 23.938307,11.2629017 23.938307,11.3975851 C23.938307,11.5996103 23.8034433,11.7399055 23.5337159,11.8184708 C23.4775227,11.8184708 23.4044715,11.8296945 23.3145624,11.8521417 C23.1459828,11.8521417 23.061693,11.9138716 23.061693,12.0373314 C23.061693,12.0597786 23.0729316,12.1495676 23.0954089,12.3066983 C23.1403635,12.4526053 23.1965567,12.5592297 23.2639885,12.6265714 L23.4662841,12.6265714 C23.4775227,12.6265714 23.6180057,12.6265714 23.8877331,12.6265714 C24.1574605,12.6265714 24.4609039,12.6153478 24.7980631,12.5929006 C25.1352224,12.5704533 25.3656145,12.5648415 25.4892396,12.5760651 C26.5007174,12.5760651 27.0570301,12.5929006 27.1581779,12.6265714 L27.2930416,12.6265714 C27.3717121,12.5480061 27.4110473,12.4862762 27.4110473,12.4413817 C27.3885701,12.1607912 27.3211382,11.9643779 27.2087518,11.8521417 L26.9390244,11.8521417 C26.5569106,11.8409181 26.214132,11.7904118 25.9106887,11.7006228 C25.6072453,11.6108339 25.3768532,11.5154331 25.2195122,11.4144206 C25.0621712,11.313408 24.9273075,11.2123954 24.8149211,11.1113828 L24.6294835,10.959864 C24.6294835,10.9710876 24.095648,10.3874594 23.027977,9.20897942 L21.5613343,7.59277827 C21.5613343,7.58155466 21.7355332,7.13260989 22.0839311,6.24594399 C22.432329,5.35927809 22.7975849,4.45016495 23.1796987,3.51860457 C23.5618125,2.58704419 23.7697274,2.10442857 23.8034433,2.07075771 C23.9158297,1.96974514 24.2586083,1.91362704 24.8317791,1.90240343 C25.2251315,1.90240343 25.4218077,1.85189714 25.4218077,1.75088457 C25.4218077,1.72843733 25.4105691,1.649872 25.3880918,1.51518857 C25.3431373,1.33561066 25.303802,1.22898628 25.2700861,1.19531543 C25.2363702,1.16164457 25.1576997,1.14480914 25.0340746,1.14480914 C25.0003587,1.14480914 24.8149211,1.14480914 24.4777618,1.14480914 C24.1406026,1.14480914 23.640483,1.15042095 22.9774032,1.16164457 C22.291846,1.16164457 21.7692492,1.16164457 21.4096126,1.16164457 C21.0499761,1.16164457 20.8532999,1.15603276 20.8195839,1.14480914 C20.628527,1.14480914 20.5329986,1.19531543 20.5329986,1.296328 C20.5329986,1.30755162 20.5442372,1.39172876 20.5667145,1.54885943 C20.5891918,1.66109562 20.6116691,1.73966095 20.6341463,1.78455543 C20.6566236,1.8294499 20.6847202,1.85750895 20.7184362,1.86873257 C20.7521521,1.87995619 20.802726,1.89117981 20.8701578,1.90240343 C20.9375897,1.91362704 21.0274988,1.91923885 21.1398852,1.91923885 C21.2522716,1.91923885 21.398374,1.95852152 21.5781923,2.03708685 C21.7692492,2.12687581 21.8647776,2.1829939 21.8647776,2.20544114 C21.853539,2.20544114 21.5894309,2.86202285 21.0724534,4.17518628 L20.2801291,6.16176685 C18.1672645,3.87214857 17.0827355,2.66560952 17.0265423,2.54214971 C16.9815878,2.45236076 16.9591105,2.38501904 16.9591105,2.34012457 C16.9591105,2.12687581 17.1220708,1.98658057 17.4479914,1.91923885 C17.45923,1.91923885 17.492946,1.91923885 17.5491392,1.91923885 C17.6053324,1.91923885 17.6390483,1.91362704 17.6502869,1.90240343 C17.6840029,1.90240343 17.7064802,1.90240343 17.7177188,1.90240343 C17.7289574,1.90240343 17.7458154,1.89679162 17.7682927,1.885568 C17.79077,1.87434438 17.8076279,1.85750895 17.8188666,1.83506171 C17.8301052,1.81261447 17.8357245,1.77333181 17.8357245,1.71721371 C17.8357245,1.61620114 17.8244859,1.52641219 17.8020086,1.44784686 C17.7682927,1.30193981 17.7345768,1.21776266 17.7008608,1.19531543 C17.6671449,1.17286819 17.5828551,1.15603276 17.4479914,1.14480914 C17.4142755,1.14480914 17.3131277,1.14480914 17.1445481,1.14480914 C16.9759684,1.14480914 16.739957,1.15042095 16.4365136,1.16164457 C16.1330703,1.17286819 15.8015304,1.17286819 15.4418938,1.16164457 C14.5652798,1.16164457 14.0033477,1.15042095 13.7560976,1.12797371 Z" id="路径" transform="translate(20.4487, 6.8773) scale(-1, 1) rotate(-180) translate(-20.4487, -6.8773)"></path>
            <polygon id="路径" transform="translate(28.9367, 8.4177) scale(-1, 1) rotate(-180) translate(-28.9367, -8.4177)" points="27.7819225 16.1620114 27.7819225 16.8354285 30.0914634 16.8354285 30.0914634 0 27.7819225 0 27.7819225 0.673417142 29.4171449 0.673417142 29.4171449 16.1620114"></polygon>
        </g>
        <g id="路径-5" transform="translate(218, 50)" fill="#000000" fill-opacity="0.85" fill-rule="nonzero">
            <path d="M0.606886657,10.7073326 C0.472022956,10.7073326 0.3764945,10.7073326 0.320301291,10.7073326 C0.264108082,10.7073326 0.207914873,10.7129444 0.151721664,10.724168 C0.0955284553,10.7353916 0.056193209,10.752227 0.0337159254,10.7746743 C0.0112386418,10.7971215 0,10.8307924 0,10.8756868 C0,10.9205813 0.0168579627,11.0159821 0.0505738881,11.1618891 C0.0842898135,11.3077962 0.134863702,11.4088087 0.202295552,11.4649268 C0.224772836,11.4761505 0.303443329,11.4817623 0.43830703,11.4817623 C0.977761836,11.4480914 1.59026781,11.431256 2.27582496,11.431256 C3.65817791,11.431256 4.45050215,11.4480914 4.6527977,11.4817623 L4.82137733,11.4817623 C4.88880918,11.4144206 4.92252511,11.3639143 4.92252511,11.3302434 C4.92252511,11.2965726 4.91128647,11.19556 4.88880918,11.0272057 C4.84385462,10.8812987 4.78766141,10.7746743 4.72022956,10.7073326 L4.517934,10.7073326 C3.88857006,10.7073326 3.57388809,10.634379 3.57388809,10.488472 C3.57388809,10.4323539 3.85485414,9.60741789 4.41678623,8.01366399 C4.97871832,6.41991009 5.26530368,5.61180952 5.27654232,5.58936228 L5.32711621,5.63986856 C5.37207078,5.68476304 5.43950263,5.75771656 5.52941176,5.85872913 C5.6193209,5.95974171 5.73732664,6.09442513 5.88342898,6.26277942 C6.02953132,6.4311337 6.20934959,6.63877066 6.42288379,6.88569028 C6.63641798,7.13260989 6.87804878,7.41881218 7.14777618,7.74429713 C8.18173123,8.94522437 8.78299857,9.65231237 8.95157819,9.86556113 C9.12015782,10.0788099 9.21006695,10.252776 9.2213056,10.3874594 C9.2213056,10.5670373 9.04148733,10.6736617 8.68185079,10.7073326 C8.49079388,10.7073326 8.39526542,10.7634507 8.39526542,10.8756868 C8.39526542,10.8981341 8.40650407,10.9766994 8.42898135,11.1113828 C8.46269727,11.2797371 8.49079388,11.3807497 8.51327116,11.4144206 C8.53574845,11.4480914 8.61441894,11.4705386 8.74928264,11.4817623 C8.77175992,11.4817623 8.93472023,11.4761505 9.23816356,11.4649268 C9.54160689,11.4537032 9.98553324,11.4424796 10.5699426,11.431256 C10.8733859,11.431256 11.1880679,11.4368678 11.5139885,11.4480914 C11.8399091,11.459315 12.0253467,11.4649268 12.0703013,11.4649268 C12.2613582,11.4649268 12.3568867,11.4144206 12.3568867,11.313408 C12.3568867,11.2685135 12.3400287,11.1787246 12.3063128,11.0440411 C12.2725968,10.9093577 12.2445002,10.8307924 12.222023,10.8083451 C12.1995457,10.7410034 12.0815399,10.7073326 11.8680057,10.7073326 C11.0588235,10.6512145 10.401363,10.370624 9.8956241,9.86556113 C9.79447633,9.76454856 9.0077714,8.84982361 7.53550933,7.12138628 L5.36083214,4.57923656 L4.92252511,2.828352 C4.61908178,1.62742476 4.46736011,0.998902094 4.46736011,0.942783999 C4.46736011,0.819324189 4.84947394,0.757594285 5.61370158,0.757594285 C5.79351985,0.757594285 5.91152559,0.751982475 5.96771879,0.740758856 C6.023912,0.729535237 6.05762793,0.673417142 6.06886657,0.572404571 C6.06886657,0.549957333 6.05762793,0.482615618 6.03515065,0.370379428 C5.99019608,0.179577904 5.95648015,0.0729535237 5.93400287,0.0505062856 C5.91152559,0.0280590476 5.82161645,0.011223619 5.66427547,0 C5.60808226,0 5.37207078,0 4.95624103,0 C4.54041129,0 4.02343376,0.00561180952 3.40530846,0.0168354285 C2.70851267,0.0168354285 2.18029651,0.0168354285 1.82065997,0.0168354285 C1.46102343,0.0168354285 1.25872788,0.011223619 1.21377331,0 C1.01147776,0 0.910329986,0.0448944761 0.910329986,0.134683428 C0.910329986,0.190801524 0.927187948,0.274978666 0.960903874,0.387214857 C0.972142516,0.420885714 0.983381157,0.454556571 0.994619799,0.488227428 C1.00585844,0.521898285 1.01147776,0.549957333 1.01147776,0.572404571 C1.01147776,0.594851809 1.01709708,0.617299047 1.02833572,0.639746285 C1.03957437,0.662193523 1.05081301,0.679028951 1.06205165,0.69025257 C1.07329029,0.701476189 1.09014825,0.712699808 1.11262554,0.723923428 C1.13510282,0.735147047 1.16319943,0.740758856 1.19691535,0.740758856 C1.23063128,0.740758856 1.2643472,0.740758856 1.29806313,0.740758856 C1.33177905,0.740758856 1.38235294,0.746370666 1.44978479,0.757594285 C1.51721664,0.768817904 1.59026781,0.768817904 1.66893831,0.757594285 C2.10724534,0.768817904 2.3938307,0.791265142 2.5286944,0.824935999 C2.66355811,0.858606856 2.76470588,0.93156038 2.83213773,1.04379657 C2.86585366,1.09991467 3.02881396,1.70599009 3.32101865,2.86202285 L3.74246772,4.59607199 L1.66893831,10.4716366 C1.65769967,10.4828602 1.64646102,10.4940838 1.63522238,10.5053074 C1.62398374,10.516531 1.6127451,10.5277547 1.60150646,10.5389783 C1.59026781,10.5502019 1.57340985,10.5614255 1.55093257,10.5726491 C1.52845528,10.5838727 1.505978,10.5950964 1.48350072,10.60632 C1.46102343,10.6175436 1.43292683,10.6287672 1.3992109,10.6399908 C1.36549498,10.6512145 1.32054041,10.6568263 1.2643472,10.6568263 C1.20815399,10.6568263 1.15758011,10.6624381 1.11262554,10.6736617 C1.06767097,10.6848853 0.994619799,10.6904971 0.893472023,10.6904971 C0.792324247,10.6904971 0.696795791,10.6961089 0.606886657,10.7073326 Z" id="路径" transform="translate(6.1784, 5.7409) scale(-1, 1) rotate(-180) translate(-6.1784, -5.7409)"></path>
        </g>
        <g id="编组-3" transform="translate(210.038, 111.9344)" fill="#000000" fill-opacity="0.85" fill-rule="nonzero">
            <path d="M1.06205165,1.48151771 C1.08452893,1.48151771 1.11824486,1.47029409 1.16319943,1.44784686 C1.20815399,1.42539962 1.26996652,1.40856419 1.34863702,1.39734057 C1.42730751,1.38611695 1.49473936,1.38050514 1.55093257,1.38050514 C1.69703491,1.38050514 1.83189861,1.45345866 1.95552367,1.59936571 C2.07914873,1.74527276 2.16905787,1.90801524 2.22525108,2.08759314 C2.33763749,2.39063085 2.5286944,3.24923771 2.79842181,4.66341371 C3.06814921,6.07758971 3.32663797,7.42442399 3.57388809,8.70391656 C3.82113821,9.98340913 3.94476327,10.6287672 3.94476327,10.6399908 L3.94476327,10.6904971 L3.15243902,10.6904971 C2.62422286,10.6904971 2.34325681,10.7017207 2.30954089,10.724168 C2.26458632,10.7578388 2.24210904,10.8139569 2.24210904,10.8925223 L2.36011478,11.3639143 C2.38259206,11.4200324 2.42754663,11.4480914 2.49497848,11.4480914 C2.56241033,11.4480914 2.82651841,11.4537032 3.28730273,11.4649268 C3.82675753,11.4649268 4.09648494,11.4705386 4.09648494,11.4817623 C4.09648494,11.5042095 4.14705882,11.7848 4.2482066,12.3235337 C4.34935438,12.8622674 4.41678623,13.1877524 4.45050215,13.2999886 C4.8663319,15.1518857 5.68675275,16.0778343 6.91176471,16.0778343 C7.32759445,16.055387 7.67037303,15.9319272 7.94010043,15.7074548 C8.20982783,15.4829825 8.34469154,15.1855565 8.34469154,14.8151771 C8.34469154,14.4111268 8.2266858,14.1193127 7.99067432,13.9397348 C7.75466284,13.7601569 7.51865136,13.6647562 7.28263989,13.6535326 C6.78813965,13.6535326 6.54088953,13.8892286 6.54088953,14.3606206 C6.54088953,14.5738693 6.60270206,14.759059 6.72632712,14.9161897 C6.84995218,15.0733204 6.98481588,15.1911684 7.13091822,15.2697337 L7.28263989,15.3539108 C7.10282162,15.4212525 6.93424199,15.4549234 6.776901,15.4549234 C6.6420373,15.4549234 6.51279292,15.3988053 6.38916786,15.2865691 C6.2655428,15.1743329 6.18125299,15.0172023 6.13629842,14.8151771 C6.05762793,14.4896922 5.96771879,14.051971 5.86657102,13.5020137 C5.76542324,12.9520564 5.67551411,12.4862762 5.59684362,12.1046731 C5.51817312,11.7230701 5.47883788,11.5210449 5.47883788,11.4985977 C5.47883788,11.4761505 5.78790053,11.4649268 6.40602582,11.4649268 C6.91176471,11.4649268 7.20396939,11.459315 7.28263989,11.4480914 C7.36131038,11.4368678 7.42312291,11.4031969 7.46807747,11.3470788 C7.47931612,11.3021844 7.46807747,11.2067836 7.43436155,11.0608766 C7.40064562,10.9149695 7.37254902,10.8251806 7.35007174,10.7915097 C7.32759445,10.7353916 7.27702056,10.7073326 7.19835007,10.7073326 C7.11967958,10.7073326 6.81623625,10.7017207 6.28802009,10.6904971 L5.34397418,10.6904971 L4.95624103,8.63657484 C4.41678623,5.85311732 4.04029173,4.11345637 3.82675753,3.41759199 C3.5233142,2.46358438 3.12996174,1.75649638 2.64670014,1.296328 C2.2308704,0.937172189 1.82065997,0.757594285 1.41606887,0.757594285 C1.05643233,0.757594285 0.730511717,0.864218665 0.43830703,1.07746743 C0.146102343,1.29071619 0,1.5937539 0,1.98658057 C0,2.40185447 0.118005739,2.70489219 0.354017217,2.89569371 C0.590028694,3.08649523 0.826040172,3.181896 1.06205165,3.181896 C1.55655189,3.181896 1.80380201,2.9462 1.80380201,2.474808 C1.80380201,2.26155923 1.74198948,2.07636952 1.61836442,1.91923885 C1.49473936,1.76210819 1.35987566,1.64426019 1.21377331,1.56569485 L1.06205165,1.48151771 Z" id="路径" transform="translate(4.1723, 8.4177) scale(-1, 1) rotate(-180) translate(-4.1723, -8.4177)"></path>
            <polygon id="路径" transform="translate(11.4887, 8.4177) scale(-1, 1) rotate(-180) translate(-11.4887, -8.4177)" points="10.3339311 0 10.3339311 16.8354285 12.643472 16.8354285 12.643472 16.1620114 11.0082496 16.1620114 11.0082496 0.673417142 12.643472 0.673417142 12.643472 0"></polygon>
            <path d="M14.1606887,11.8353063 C14.025825,11.8353063 13.9302965,11.8353063 13.8741033,11.8353063 C13.8179101,11.8353063 13.7617169,11.8409181 13.7055237,11.8521417 C13.6493305,11.8633653 13.6099952,11.8802007 13.5875179,11.902648 C13.5650407,11.9250952 13.553802,11.9587661 13.553802,12.0036606 C13.553802,12.048555 13.57066,12.1439558 13.6043759,12.2898628 C13.6380918,12.4357699 13.6886657,12.5367825 13.7560976,12.5929006 C13.7785748,12.6041242 13.8572453,12.609736 13.992109,12.609736 C14.5315638,12.5760651 15.1440698,12.5592297 15.829627,12.5592297 C17.2119799,12.5592297 18.0043042,12.5760651 18.2065997,12.609736 L18.3751793,12.609736 C18.4426112,12.5423943 18.4763271,12.491888 18.4763271,12.4582171 C18.4763271,12.4245463 18.4650885,12.3235337 18.4426112,12.1551794 C18.3976566,12.0092724 18.3414634,11.902648 18.2740316,11.8353063 L18.071736,11.8353063 C17.4423721,11.8353063 17.1276901,11.7623527 17.1276901,11.6164457 C17.1276901,11.5603276 17.4086561,10.7353916 17.9705882,9.1416377 C18.5325203,7.5478838 18.8191057,6.73978323 18.8303443,6.71733599 L18.8809182,6.76784228 C18.9258728,6.81273675 18.9933046,6.88569028 19.0832138,6.98670285 C19.1731229,7.08771542 19.2911286,7.22239885 19.437231,7.39075313 C19.5833333,7.55910742 19.7631516,7.76674437 19.9766858,8.01366399 C20.19022,8.26058361 20.4318508,8.54678589 20.7015782,8.87227084 C21.7355332,10.0731981 22.3368006,10.7802861 22.5053802,10.9935348 C22.6739598,11.2067836 22.763869,11.3807497 22.7751076,11.5154331 C22.7751076,11.695011 22.5952893,11.8016354 22.2356528,11.8353063 C22.0445959,11.8353063 21.9490674,11.8914244 21.9490674,12.0036606 C21.9490674,12.0261078 21.9603061,12.1046731 21.9827834,12.2393566 C22.0164993,12.4077108 22.0445959,12.5087234 22.0670732,12.5423943 C22.0895505,12.5760651 22.1682209,12.5985124 22.3030846,12.609736 C22.3255619,12.609736 22.4885222,12.6041242 22.7919656,12.5929006 C23.0954089,12.5816769 23.5393352,12.5704533 24.1237446,12.5592297 C24.4271879,12.5592297 24.7418699,12.5648415 25.0677905,12.5760651 C25.3937111,12.5872887 25.5791487,12.5929006 25.6241033,12.5929006 C25.8151602,12.5929006 25.9106887,12.5423943 25.9106887,12.4413817 C25.9106887,12.3964872 25.8938307,12.3066983 25.8601148,12.1720148 C25.8263989,12.0373314 25.7983022,11.9587661 25.775825,11.9363188 C25.7533477,11.8689771 25.6353419,11.8353063 25.4218077,11.8353063 C24.6126255,11.7791882 23.955165,11.4985977 23.4494261,10.9935348 C23.3482783,10.8925223 22.5615734,9.97779732 21.0893113,8.24935999 L18.9146341,5.70721028 L18.4763271,3.95632571 C18.1728838,2.75539847 18.0211621,2.12687581 18.0211621,2.07075771 C18.0211621,1.9472979 18.4032759,1.885568 19.1675036,1.885568 C19.3473219,1.885568 19.4653276,1.87995619 19.5215208,1.86873257 C19.577714,1.85750895 19.6114299,1.80139085 19.6226686,1.70037828 C19.6226686,1.67793105 19.6114299,1.61058933 19.5889527,1.49835314 C19.5439981,1.30755162 19.5102822,1.20092724 19.4878049,1.17848 C19.4653276,1.15603276 19.3754185,1.13919733 19.2180775,1.12797371 C19.1618843,1.12797371 18.9258728,1.12797371 18.510043,1.12797371 C18.0942133,1.12797371 17.5772358,1.13358552 16.9591105,1.14480914 C16.2623147,1.14480914 15.7340985,1.14480914 15.374462,1.14480914 C15.0148254,1.14480914 14.8125299,1.13919733 14.7675753,1.12797371 C14.5652798,1.12797371 14.464132,1.17286819 14.464132,1.26265714 C14.464132,1.31877524 14.48099,1.40295238 14.5147059,1.51518857 C14.5259445,1.54885943 14.5371832,1.58253028 14.5484218,1.61620114 C14.5596604,1.649872 14.5652798,1.67793105 14.5652798,1.70037828 C14.5652798,1.72282552 14.5708991,1.74527276 14.5821377,1.76772 C14.5933764,1.79016724 14.604615,1.80700266 14.6158537,1.81822628 C14.6270923,1.8294499 14.6439503,1.84067352 14.6664275,1.85189714 C14.6889048,1.86312076 14.7170014,1.86873257 14.7507174,1.86873257 C14.7844333,1.86873257 14.8181492,1.86873257 14.8518651,1.86873257 C14.8855811,1.86873257 14.9361549,1.87434438 15.0035868,1.885568 C15.0710187,1.89679162 15.1440698,1.89679162 15.2227403,1.885568 C15.6610473,1.89679162 15.9476327,1.91923885 16.0824964,1.95290971 C16.2173601,1.98658057 16.3185079,2.05953409 16.3859397,2.17177028 C16.4196557,2.22788838 16.582616,2.83396381 16.8748207,3.98999657 L17.2962697,5.72404571 L15.2227403,11.5996103 C15.2115017,11.6108339 15.200263,11.6220575 15.1890244,11.6332811 C15.1777857,11.6445047 15.1665471,11.6557284 15.1553085,11.666952 C15.1440698,11.6781756 15.1272119,11.6893992 15.1047346,11.7006228 C15.0822573,11.7118465 15.05978,11.7230701 15.0373027,11.7342937 C15.0148254,11.7455173 14.9867288,11.7567409 14.9530129,11.7679646 C14.919297,11.7791882 14.8743424,11.7848 14.8181492,11.7848 C14.761956,11.7848 14.7113821,11.7904118 14.6664275,11.8016354 C14.621473,11.812859 14.5484218,11.8184708 14.447274,11.8184708 C14.3461263,11.8184708 14.2505978,11.8240826 14.1606887,11.8353063 Z" id="路径" transform="translate(19.7322, 6.8689) scale(-1, 1) rotate(-180) translate(-19.7322, -6.8689)"></path>
            <polygon id="路径" transform="translate(27.4363, 8.4177) scale(-1, 1) rotate(-180) translate(-27.4363, -8.4177)" points="26.2815638 16.1620114 26.2815638 16.8354285 28.5911047 16.8354285 28.5911047 0 26.2815638 0 26.2815638 0.673417142 27.9167862 0.673417142 27.9167862 16.1620114"></polygon>
        </g>
        <g id="编组-4" transform="translate(205, 143)" fill="#000000" fill-opacity="0.85" fill-rule="nonzero">
            <path d="M1.06205165,2.87653499 C1.08452893,2.87653499 1.11824486,2.86531137 1.16319943,2.84286414 C1.20815399,2.8204169 1.26996652,2.80358147 1.34863702,2.79235785 C1.42730751,2.78113423 1.49473936,2.77552242 1.55093257,2.77552242 C1.69703491,2.77552242 1.83189861,2.84847594 1.95552367,2.99438299 C2.07914873,3.14029004 2.16905787,3.30303252 2.22525108,3.48261042 C2.33763749,3.78564813 2.5286944,4.64425499 2.79842181,6.05843099 C3.06814921,7.47260699 3.32663797,8.81944127 3.57388809,10.0989338 C3.82113821,11.3784264 3.94476327,12.0237845 3.94476327,12.0350081 L3.94476327,12.0855144 L3.15243902,12.0855144 C2.62422286,12.0855144 2.34325681,12.096738 2.30954089,12.1191853 C2.26458632,12.1528561 2.24210904,12.2089742 2.24210904,12.2875395 L2.36011478,12.7589315 C2.38259206,12.8150496 2.42754663,12.8431087 2.49497848,12.8431087 C2.56241033,12.8431087 2.82651841,12.8487205 3.28730273,12.8599441 C3.82675753,12.8599441 4.09648494,12.8655559 4.09648494,12.8767795 C4.09648494,12.8992268 4.14705882,13.1798173 4.2482066,13.718551 C4.34935438,14.2572847 4.41678623,14.5827696 4.45050215,14.6950058 C4.8663319,16.546903 5.68675275,17.4728515 6.91176471,17.4728515 C7.32759445,17.4504043 7.67037303,17.3269445 7.94010043,17.1024721 C8.20982783,16.8779997 8.34469154,16.5805738 8.34469154,16.2101944 C8.34469154,15.8061441 8.2266858,15.51433 7.99067432,15.3347521 C7.75466284,15.1551742 7.51865136,15.0597735 7.28263989,15.0485498 C6.78813965,15.0485498 6.54088953,15.2842458 6.54088953,15.7556378 C6.54088953,15.9688866 6.60270206,16.1540763 6.72632712,16.311207 C6.84995218,16.4683376 6.98481588,16.5861856 7.13091822,16.664751 L7.28263989,16.7489281 C7.10282162,16.8162698 6.93424199,16.8499407 6.776901,16.8499407 C6.6420373,16.8499407 6.51279292,16.7938226 6.38916786,16.6815864 C6.2655428,16.5693502 6.18125299,16.4122195 6.13629842,16.2101944 C6.05762793,15.8847094 5.96771879,15.4469883 5.86657102,14.897031 C5.76542324,14.3470736 5.67551411,13.8812935 5.59684362,13.4996904 C5.51817312,13.1180874 5.47883788,12.9160622 5.47883788,12.893615 C5.47883788,12.8711677 5.78790053,12.8599441 6.40602582,12.8599441 C6.91176471,12.8599441 7.20396939,12.8543323 7.28263989,12.8431087 C7.36131038,12.8318851 7.42312291,12.7982142 7.46807747,12.7420961 C7.47931612,12.6972016 7.46807747,12.6018009 7.43436155,12.4558938 C7.40064562,12.3099868 7.37254902,12.2201978 7.35007174,12.186527 C7.32759445,12.1304089 7.27702056,12.1023498 7.19835007,12.1023498 C7.11967958,12.1023498 6.81623625,12.096738 6.28802009,12.0855144 L5.34397418,12.0855144 L4.95624103,10.0315921 C4.41678623,7.2481346 4.04029173,5.50847366 3.82675753,4.81260928 C3.5233142,3.85860166 3.12996174,3.15151366 2.64670014,2.69134528 C2.2308704,2.33218947 1.82065997,2.15261156 1.41606887,2.15261156 C1.05643233,2.15261156 0.730511717,2.25923595 0.43830703,2.47248471 C0.146102343,2.68573347 0,2.98877118 0,3.38159785 C0,3.79687175 0.118005739,4.09990947 0.354017217,4.29071099 C0.590028694,4.48151251 0.826040172,4.57691328 1.06205165,4.57691328 C1.55655189,4.57691328 1.80380201,4.34121728 1.80380201,3.86982528 C1.80380201,3.65657652 1.74198948,3.4713868 1.61836442,3.31425613 C1.49473936,3.15712547 1.35987566,3.03927747 1.21377331,2.96071214 L1.06205165,2.87653499 Z" id="路径" transform="translate(4.1723, 9.8127) scale(-1, 1) rotate(-180) translate(-4.1723, -9.8127)"></path>
            <path d="M9.94726004,5.10623598 C9.73272561,5.10623598 9.56189264,5.17765187 9.43476112,5.32048365 C9.3076296,5.46331542 9.24406385,5.63788759 9.24406385,5.84420016 C9.24406385,6.40759216 9.45462542,6.89560073 9.87574857,7.30822586 C10.2968717,7.72085099 10.8212892,7.92716356 11.4490011,7.92716356 C12.1720616,7.92716356 12.7759363,7.70498079 13.2606252,7.26061527 C13.7453141,6.81624974 13.9916314,6.24095509 13.9995771,5.53473131 C13.9995771,5.19352207 13.9201199,4.86818302 13.7612055,4.55871418 C13.6022911,4.24924533 13.4115939,3.97945198 13.1891137,3.74933411 C12.9666335,3.51921625 12.6488048,3.2256176 12.2356273,2.86853816 C11.9495814,2.62255011 11.5522954,2.25753557 11.0437694,1.77349455 L10.3405732,1.10694626 L11.2463852,1.09504361 C12.4938632,1.09504361 13.1573308,1.11488136 13.236788,1.15455685 C13.2924081,1.17042705 13.3877567,1.52353894 13.5228339,2.21389252 L13.5228339,2.24960047 L13.9995771,2.24960047 L13.9995771,2.21389252 C13.9916314,2.19008723 13.9399842,1.82904024 13.8446356,1.13075156 C13.7492869,0.432462877 13.689694,0.0674483386 13.6658569,0.0357079439 L13.6658569,0 L9.24406385,0 L9.24406385,0.226150312 L9.24406385,0.368982087 C9.24406385,0.424527778 9.267901,0.484041018 9.31557532,0.547521807 C9.36324964,0.611002596 9.48243544,0.749866823 9.67313271,0.964114487 C9.90355858,1.21803764 10.1022016,1.44022041 10.2690617,1.63066277 C10.3405732,1.71001376 10.4756504,1.85681309 10.6742934,2.07106075 C10.8729364,2.28530841 11.0080136,2.43210774 11.0795251,2.51145872 C11.1510366,2.59080971 11.2662495,2.72173884 11.4251639,2.90424611 C11.5840783,3.08675338 11.6953184,3.22165005 11.7588841,3.30893614 C11.8224499,3.39622222 11.9138257,3.5152487 12.0330115,3.66601558 C12.1521973,3.81678245 12.2356273,3.94374403 12.2833016,4.04690031 C12.330976,4.1500566 12.3905689,4.26511553 12.4620803,4.39207711 C12.5335918,4.51903868 12.585239,4.64600026 12.6170219,4.77296184 C12.6488048,4.89992342 12.6766148,5.0189499 12.7004519,5.13004128 C12.7242891,5.24113266 12.7362077,5.37206179 12.7362077,5.52282866 C12.7362077,6.02273988 12.6011304,6.45520276 12.330976,6.82021729 C12.0608215,7.18523183 11.6754541,7.3677391 11.1748737,7.3677391 C10.912665,7.3677391 10.6822391,7.30029076 10.4835961,7.16539409 C10.2849531,7.03049741 10.145903,6.89956828 10.0664458,6.7726067 C9.98698864,6.64564512 9.94726004,6.57026169 9.94726004,6.54645639 C9.94726004,6.53852129 9.96712434,6.53455374 10.0068529,6.53455374 C10.1498759,6.53455374 10.2968717,6.47900805 10.4478404,6.36791667 C10.5988091,6.25682529 10.6742934,6.07431802 10.6742934,5.82039486 C10.6742934,5.6220174 10.6107276,5.45538033 10.4835961,5.32048365 C10.3564646,5.18558697 10.1776859,5.11417108 9.94726004,5.10623598 Z" id="路径" transform="translate(11.6218, 3.9636) scale(-1, 1) rotate(-180) translate(-11.6218, -3.9636)"></path>
            <polygon id="路径" transform="translate(19.4457, 9.8127) scale(-1, 1) rotate(-180) translate(-19.4457, -9.8127)" points="18.2908895 1.39501728 18.2908895 18.2304458 20.6004304 18.2304458 20.6004304 17.5570287 18.965208 17.5570287 18.965208 2.06843442 20.6004304 2.06843442 20.6004304 1.39501728"></polygon>
            <path d="M21.713056,2.52299099 L21.67934,2.52299099 C21.521999,2.52299099 21.4433286,2.5847209 21.4433286,2.70818071 C21.4433286,2.75307518 21.4601865,2.84286414 21.4939024,2.97754756 C21.538857,3.13467823 21.5781923,3.22446718 21.6119082,3.24691442 C21.6456241,3.26936166 21.7523912,3.28619709 21.9322095,3.29742071 C22.8987327,3.33109156 23.657341,3.62290566 24.2080344,4.17286299 C24.3204209,4.28509918 24.9722621,4.99218718 26.1635581,6.29412699 C27.3548541,7.59606679 27.9448828,8.25826032 27.9336442,8.28070756 C26.7086322,11.4008736 26.0680297,12.9890157 26.0118364,13.0451338 C25.9106887,13.1685936 25.5566714,13.2359354 24.9497848,13.247159 L24.4777618,13.247159 C24.41033,13.3145007 24.3766141,13.3593952 24.3766141,13.3818424 C24.3766141,13.4042896 24.3878527,13.510914 24.41033,13.7017155 C24.4552846,13.8476226 24.5114778,13.954247 24.5789096,14.0215887 L24.8149211,14.0215887 C25.1970349,13.9991415 25.8769727,13.9879178 26.8547346,13.9879178 C27.2256098,13.9879178 27.5683883,13.9879178 27.8830703,13.9879178 C28.1977523,13.9879178 28.4506217,13.9935296 28.6416786,14.0047533 C28.8327355,14.0159769 28.945122,14.0159769 28.9788379,14.0047533 C29.1698948,14.0047533 29.2654232,13.9430234 29.2654232,13.8195635 C29.2654232,13.8083399 29.2541846,13.7353864 29.2317073,13.600703 C29.1867527,13.4323487 29.1474175,13.3313361 29.1137016,13.2976653 C29.0799857,13.2639944 28.9900765,13.247159 28.8439742,13.247159 C28.4955763,13.2134881 28.192133,13.1180874 27.9336442,12.9609567 L29.2317073,9.69488355 L30.1251793,10.6881738 C31.3052367,11.9564428 31.8952654,12.657919 31.8952654,12.7926024 C31.8952654,12.9946275 31.7604017,13.1349228 31.4906743,13.2134881 C31.4344811,13.2134881 31.3614299,13.2247117 31.2715208,13.247159 C31.1029412,13.247159 31.0186514,13.3088889 31.0186514,13.4323487 C31.0186514,13.4547959 31.02989,13.5445849 31.0523673,13.7017155 C31.0973219,13.8476226 31.1535151,13.954247 31.2209469,14.0215887 L31.4232425,14.0215887 C31.4344811,14.0215887 31.5749641,14.0215887 31.8446915,14.0215887 C32.1144189,14.0215887 32.4178623,14.0103651 32.7550215,13.9879178 C33.0921808,13.9654706 33.3225729,13.9598588 33.446198,13.9710824 C34.4576758,13.9710824 35.0139885,13.9879178 35.1151363,14.0215887 L35.25,14.0215887 C35.3286705,13.9430234 35.3680057,13.8812935 35.3680057,13.836399 C35.3455285,13.5558085 35.2780966,13.3593952 35.1657102,13.247159 L34.8959828,13.247159 C34.513869,13.2359354 34.1710904,13.1854291 33.8676471,13.0956401 C33.5642037,13.0058512 33.3338116,12.9104504 33.1764706,12.8094378 C33.0191296,12.7084253 32.8842659,12.6074127 32.7718795,12.5064001 L32.5864419,12.3548813 C32.5864419,12.3661049 32.0526064,11.7824767 30.9849354,10.6039967 L29.5182927,8.98779555 C29.5182927,8.97657194 29.6924916,8.52762717 30.0408895,7.64096127 C30.3892874,6.75429537 30.7545433,5.84518223 31.1366571,4.91362185 C31.5187709,3.98206147 31.7266858,3.49944585 31.7604017,3.46577499 C31.8727881,3.36476242 32.2155667,3.30864433 32.7887374,3.29742071 C33.1820899,3.29742071 33.3787661,3.24691442 33.3787661,3.14590185 C33.3787661,3.12345461 33.3675275,3.04488928 33.3450502,2.91020585 C33.3000956,2.73062794 33.2607604,2.62400356 33.2270445,2.59033271 C33.1933286,2.55666185 33.1146581,2.53982642 32.991033,2.53982642 C32.9573171,2.53982642 32.7718795,2.53982642 32.4347202,2.53982642 C32.097561,2.53982642 31.5974414,2.54543823 30.9343615,2.55666185 C30.2488044,2.55666185 29.7262076,2.55666185 29.366571,2.55666185 C29.0069345,2.55666185 28.8102582,2.55105004 28.7765423,2.53982642 C28.5854854,2.53982642 28.489957,2.59033271 28.489957,2.69134528 C28.489957,2.7025689 28.5011956,2.78674604 28.5236729,2.94387671 C28.5461502,3.0561129 28.5686275,3.13467823 28.5911047,3.17957271 C28.613582,3.22446718 28.6416786,3.25252623 28.6753945,3.26374985 C28.7091105,3.27497347 28.7596844,3.28619709 28.8271162,3.29742071 C28.8945481,3.30864433 28.9844572,3.31425613 29.0968436,3.31425613 C29.20923,3.31425613 29.3553324,3.3535388 29.5351506,3.43210413 C29.7262076,3.52189309 29.821736,3.57801118 29.821736,3.60045842 C29.8104974,3.60045842 29.5463893,4.25704013 29.0294118,5.57020356 L28.2370875,7.55678413 C26.1242229,5.26716585 25.0396939,4.0606268 24.9835007,3.93716699 C24.9385462,3.84737804 24.9160689,3.78003632 24.9160689,3.73514185 C24.9160689,3.52189309 25.0790292,3.38159785 25.4049498,3.31425613 C25.4161884,3.31425613 25.4499044,3.31425613 25.5060976,3.31425613 C25.5622908,3.31425613 25.5960067,3.30864433 25.6072453,3.29742071 C25.6409613,3.29742071 25.6634385,3.29742071 25.6746772,3.29742071 C25.6859158,3.29742071 25.7027738,3.2918089 25.7252511,3.28058528 C25.7477284,3.26936166 25.7645863,3.25252623 25.775825,3.23007899 C25.7870636,3.20763175 25.7926829,3.16834909 25.7926829,3.11223099 C25.7926829,3.01121842 25.7814443,2.92142947 25.758967,2.84286414 C25.7252511,2.69695709 25.6915352,2.61277995 25.6578192,2.59033271 C25.6241033,2.56788547 25.5398135,2.55105004 25.4049498,2.53982642 C25.3712339,2.53982642 25.2700861,2.53982642 25.1015065,2.53982642 C24.9329268,2.53982642 24.6969154,2.54543823 24.393472,2.55666185 C24.0900287,2.56788547 23.7584888,2.56788547 23.3988522,2.55666185 C22.5222382,2.55666185 21.9603061,2.54543823 21.713056,2.52299099 Z" id="路径" transform="translate(28.4057, 8.2723) scale(-1, 1) rotate(-180) translate(-28.4057, -8.2723)"></path>
            <polygon id="路径" transform="translate(36.8937, 9.8127) scale(-1, 1) rotate(-180) translate(-36.8937, -9.8127)" points="35.7388809 17.5570287 35.7388809 18.2304458 38.0484218 18.2304458 38.0484218 1.39501728 35.7388809 1.39501728 35.7388809 2.06843442 37.3741033 2.06843442 37.3741033 17.5570287"></polygon>
        </g>
        <g id="编组-6" transform="translate(206.2658, 176.5393)" fill="#000000" fill-opacity="0.85" fill-rule="nonzero">
            <path d="M1.06205165,2.87653499 C1.08452893,2.87653499 1.11824486,2.86531137 1.16319943,2.84286414 C1.20815399,2.8204169 1.26996652,2.80358147 1.34863702,2.79235785 C1.42730751,2.78113423 1.49473936,2.77552242 1.55093257,2.77552242 C1.69703491,2.77552242 1.83189861,2.84847594 1.95552367,2.99438299 C2.07914873,3.14029004 2.16905787,3.30303252 2.22525108,3.48261042 C2.33763749,3.78564813 2.5286944,4.64425499 2.79842181,6.05843099 C3.06814921,7.47260699 3.32663797,8.81944127 3.57388809,10.0989338 C3.82113821,11.3784264 3.94476327,12.0237845 3.94476327,12.0350081 L3.94476327,12.0855144 L3.15243902,12.0855144 C2.62422286,12.0855144 2.34325681,12.096738 2.30954089,12.1191853 C2.26458632,12.1528561 2.24210904,12.2089742 2.24210904,12.2875395 L2.36011478,12.7589315 C2.38259206,12.8150496 2.42754663,12.8431087 2.49497848,12.8431087 C2.56241033,12.8431087 2.82651841,12.8487205 3.28730273,12.8599441 C3.82675753,12.8599441 4.09648494,12.8655559 4.09648494,12.8767795 C4.09648494,12.8992268 4.14705882,13.1798173 4.2482066,13.718551 C4.34935438,14.2572847 4.41678623,14.5827696 4.45050215,14.6950058 C4.8663319,16.546903 5.68675275,17.4728515 6.91176471,17.4728515 C7.32759445,17.4504043 7.67037303,17.3269445 7.94010043,17.1024721 C8.20982783,16.8779997 8.34469154,16.5805738 8.34469154,16.2101944 C8.34469154,15.8061441 8.2266858,15.51433 7.99067432,15.3347521 C7.75466284,15.1551742 7.51865136,15.0597735 7.28263989,15.0485498 C6.78813965,15.0485498 6.54088953,15.2842458 6.54088953,15.7556378 C6.54088953,15.9688866 6.60270206,16.1540763 6.72632712,16.311207 C6.84995218,16.4683376 6.98481588,16.5861856 7.13091822,16.664751 L7.28263989,16.7489281 C7.10282162,16.8162698 6.93424199,16.8499407 6.776901,16.8499407 C6.6420373,16.8499407 6.51279292,16.7938226 6.38916786,16.6815864 C6.2655428,16.5693502 6.18125299,16.4122195 6.13629842,16.2101944 C6.05762793,15.8847094 5.96771879,15.4469883 5.86657102,14.897031 C5.76542324,14.3470736 5.67551411,13.8812935 5.59684362,13.4996904 C5.51817312,13.1180874 5.47883788,12.9160622 5.47883788,12.893615 C5.47883788,12.8711677 5.78790053,12.8599441 6.40602582,12.8599441 C6.91176471,12.8599441 7.20396939,12.8543323 7.28263989,12.8431087 C7.36131038,12.8318851 7.42312291,12.7982142 7.46807747,12.7420961 C7.47931612,12.6972016 7.46807747,12.6018009 7.43436155,12.4558938 C7.40064562,12.3099868 7.37254902,12.2201978 7.35007174,12.186527 C7.32759445,12.1304089 7.27702056,12.1023498 7.19835007,12.1023498 C7.11967958,12.1023498 6.81623625,12.096738 6.28802009,12.0855144 L5.34397418,12.0855144 L4.95624103,10.0315921 C4.41678623,7.2481346 4.04029173,5.50847366 3.82675753,4.81260928 C3.5233142,3.85860166 3.12996174,3.15151366 2.64670014,2.69134528 C2.2308704,2.33218947 1.82065997,2.15261156 1.41606887,2.15261156 C1.05643233,2.15261156 0.730511717,2.25923595 0.43830703,2.47248471 C0.146102343,2.68573347 0,2.98877118 0,3.38159785 C0,3.79687175 0.118005739,4.09990947 0.354017217,4.29071099 C0.590028694,4.48151251 0.826040172,4.57691328 1.06205165,4.57691328 C1.55655189,4.57691328 1.80380201,4.34121728 1.80380201,3.86982528 C1.80380201,3.65657652 1.74198948,3.4713868 1.61836442,3.31425613 C1.49473936,3.15712547 1.35987566,3.03927747 1.21377331,2.96071214 L1.06205165,2.87653499 Z" id="路径" transform="translate(4.1723, 9.8127) scale(-1, 1) rotate(-180) translate(-4.1723, -9.8127)"></path>
            <path d="M9.94726004,5.10623598 C9.73272561,5.10623598 9.56189264,5.17765187 9.43476112,5.32048365 C9.3076296,5.46331542 9.24406385,5.63788759 9.24406385,5.84420016 C9.24406385,6.40759216 9.45462542,6.89560073 9.87574857,7.30822586 C10.2968717,7.72085099 10.8212892,7.92716356 11.4490011,7.92716356 C12.1720616,7.92716356 12.7759363,7.70498079 13.2606252,7.26061527 C13.7453141,6.81624974 13.9916314,6.24095509 13.9995771,5.53473131 C13.9995771,5.19352207 13.9201199,4.86818302 13.7612055,4.55871418 C13.6022911,4.24924533 13.4115939,3.97945198 13.1891137,3.74933411 C12.9666335,3.51921625 12.6488048,3.2256176 12.2356273,2.86853816 C11.9495814,2.62255011 11.5522954,2.25753557 11.0437694,1.77349455 L10.3405732,1.10694626 L11.2463852,1.09504361 C12.4938632,1.09504361 13.1573308,1.11488136 13.236788,1.15455685 C13.2924081,1.17042705 13.3877567,1.52353894 13.5228339,2.21389252 L13.5228339,2.24960047 L13.9995771,2.24960047 L13.9995771,2.21389252 C13.9916314,2.19008723 13.9399842,1.82904024 13.8446356,1.13075156 C13.7492869,0.432462877 13.689694,0.0674483386 13.6658569,0.0357079439 L13.6658569,0 L9.24406385,0 L9.24406385,0.226150312 L9.24406385,0.368982087 C9.24406385,0.424527778 9.267901,0.484041018 9.31557532,0.547521807 C9.36324964,0.611002596 9.48243544,0.749866823 9.67313271,0.964114487 C9.90355858,1.21803764 10.1022016,1.44022041 10.2690617,1.63066277 C10.3405732,1.71001376 10.4756504,1.85681309 10.6742934,2.07106075 C10.8729364,2.28530841 11.0080136,2.43210774 11.0795251,2.51145872 C11.1510366,2.59080971 11.2662495,2.72173884 11.4251639,2.90424611 C11.5840783,3.08675338 11.6953184,3.22165005 11.7588841,3.30893614 C11.8224499,3.39622222 11.9138257,3.5152487 12.0330115,3.66601558 C12.1521973,3.81678245 12.2356273,3.94374403 12.2833016,4.04690031 C12.330976,4.1500566 12.3905689,4.26511553 12.4620803,4.39207711 C12.5335918,4.51903868 12.585239,4.64600026 12.6170219,4.77296184 C12.6488048,4.89992342 12.6766148,5.0189499 12.7004519,5.13004128 C12.7242891,5.24113266 12.7362077,5.37206179 12.7362077,5.52282866 C12.7362077,6.02273988 12.6011304,6.45520276 12.330976,6.82021729 C12.0608215,7.18523183 11.6754541,7.3677391 11.1748737,7.3677391 C10.912665,7.3677391 10.6822391,7.30029076 10.4835961,7.16539409 C10.2849531,7.03049741 10.145903,6.89956828 10.0664458,6.7726067 C9.98698864,6.64564512 9.94726004,6.57026169 9.94726004,6.54645639 C9.94726004,6.53852129 9.96712434,6.53455374 10.0068529,6.53455374 C10.1498759,6.53455374 10.2968717,6.47900805 10.4478404,6.36791667 C10.5988091,6.25682529 10.6742934,6.07431802 10.6742934,5.82039486 C10.6742934,5.6220174 10.6107276,5.45538033 10.4835961,5.32048365 C10.3564646,5.18558697 10.1776859,5.11417108 9.94726004,5.10623598 Z" id="路径" transform="translate(11.6218, 3.9636) scale(-1, 1) rotate(-180) translate(-11.6218, -3.9636)"></path>
            <polygon id="路径" transform="translate(19.4457, 9.8127) scale(-1, 1) rotate(-180) translate(-19.4457, -9.8127)" points="18.2908895 1.39501728 18.2908895 18.2304458 20.6004304 18.2304458 20.6004304 17.5570287 18.965208 17.5570287 18.965208 2.06843442 20.6004304 2.06843442 20.6004304 1.39501728"></polygon>
            <path d="M22.1176471,13.2303235 C21.9827834,13.2303235 21.8872549,13.2303235 21.8310617,13.2303235 C21.7748685,13.2303235 21.7186753,13.2359354 21.6624821,13.247159 C21.6062889,13.2583826 21.5669536,13.275218 21.5444763,13.2976653 C21.521999,13.3201125 21.5107604,13.3537834 21.5107604,13.3986778 C21.5107604,13.4435723 21.5276184,13.5389731 21.5613343,13.6848801 C21.5950502,13.8307872 21.6456241,13.9317997 21.713056,13.9879178 C21.7355332,13.9991415 21.8142037,14.0047533 21.9490674,14.0047533 C22.4885222,13.9710824 23.1010282,13.954247 23.7865854,13.954247 C25.1689383,13.954247 25.9612626,13.9710824 26.1635581,14.0047533 L26.3321377,14.0047533 C26.3995696,13.9374115 26.4332855,13.8869053 26.4332855,13.8532344 C26.4332855,13.8195635 26.4220469,13.718551 26.3995696,13.5501967 C26.354615,13.4042896 26.2984218,13.2976653 26.23099,13.2303235 L26.0286944,13.2303235 C25.3993305,13.2303235 25.0846485,13.15737 25.0846485,13.011463 C25.0846485,12.9553449 25.3656145,12.1304089 25.9275466,10.536655 C26.4894787,8.94290108 26.7760641,8.13480051 26.7873027,8.11235327 L26.8378766,8.16285956 C26.8828312,8.20775403 26.950263,8.28070756 27.0401722,8.38172013 C27.1300813,8.4827327 27.248087,8.61741613 27.3941894,8.78577041 C27.5402917,8.9541247 27.72011,9.16176165 27.9336442,9.40868127 C28.1471784,9.65560089 28.3888092,9.94180317 28.6585366,10.2672881 C29.6924916,11.4682154 30.293759,12.1753034 30.4623386,12.3885521 C30.6309182,12.6018009 30.7208274,12.775767 30.732066,12.9104504 C30.732066,13.0900283 30.5522477,13.1966527 30.1926112,13.2303235 C30.0015543,13.2303235 29.9060258,13.2864416 29.9060258,13.3986778 C29.9060258,13.4211251 29.9172645,13.4996904 29.9397418,13.6343738 C29.9734577,13.8027281 30.0015543,13.9037407 30.0240316,13.9374115 C30.0465088,13.9710824 30.1251793,13.9935296 30.260043,14.0047533 C30.2825203,14.0047533 30.4454806,13.9991415 30.748924,13.9879178 C31.0523673,13.9766942 31.4962936,13.9654706 32.080703,13.954247 C32.3841463,13.954247 32.6988283,13.9598588 33.0247489,13.9710824 C33.3506695,13.982306 33.5361071,13.9879178 33.5810617,13.9879178 C33.7721186,13.9879178 33.8676471,13.9374115 33.8676471,13.836399 C33.8676471,13.7915045 33.8507891,13.7017155 33.8170732,13.5670321 C33.7833572,13.4323487 33.7552606,13.3537834 33.7327834,13.3313361 C33.7103061,13.2639944 33.5923003,13.2303235 33.3787661,13.2303235 C32.5695839,13.1742055 31.9121234,12.893615 31.4063845,12.3885521 C31.3052367,12.2875395 30.5185318,11.3728146 29.0462697,9.64437727 L26.8715925,7.10222756 L26.4332855,5.35134299 C26.1298422,4.15041575 25.9781205,3.52189309 25.9781205,3.46577499 C25.9781205,3.34231518 26.3602343,3.28058528 27.124462,3.28058528 C27.3042802,3.28058528 27.422286,3.27497347 27.4784792,3.26374985 C27.5346724,3.25252623 27.5683883,3.19640813 27.579627,3.09539556 C27.579627,3.07294833 27.5683883,3.00560661 27.545911,2.89337042 C27.5009565,2.7025689 27.4672406,2.59594452 27.4447633,2.57349728 C27.422286,2.55105004 27.3323769,2.53421461 27.1750359,2.52299099 C27.1188427,2.52299099 26.8828312,2.52299099 26.4670014,2.52299099 C26.0511717,2.52299099 25.5341942,2.5286028 24.9160689,2.53982642 C24.2192731,2.53982642 23.6910569,2.53982642 23.3314204,2.53982642 C22.9717838,2.53982642 22.7694883,2.53421461 22.7245337,2.52299099 C22.5222382,2.52299099 22.4210904,2.56788547 22.4210904,2.65767442 C22.4210904,2.71379252 22.4379484,2.79796966 22.4716643,2.91020585 C22.4829029,2.94387671 22.4941416,2.97754756 22.5053802,3.01121842 C22.5166188,3.04488928 22.5222382,3.07294833 22.5222382,3.09539556 C22.5222382,3.1178428 22.5278575,3.14029004 22.5390961,3.16273728 C22.5503348,3.18518452 22.5615734,3.20201994 22.5728121,3.21324356 C22.5840507,3.22446718 22.6009087,3.2356908 22.6233859,3.24691442 C22.6458632,3.25813804 22.6739598,3.26374985 22.7076758,3.26374985 C22.7413917,3.26374985 22.7751076,3.26374985 22.8088235,3.26374985 C22.8425395,3.26374985 22.8931133,3.26936166 22.9605452,3.28058528 C23.027977,3.2918089 23.1010282,3.2918089 23.1796987,3.28058528 C23.6180057,3.2918089 23.9045911,3.31425613 24.0394548,3.34792699 C24.1743185,3.38159785 24.2754663,3.45455137 24.3428981,3.56678756 C24.3766141,3.62290566 24.5395744,4.22898109 24.8317791,5.38501385 L25.2532281,7.11906299 L23.1796987,12.9946275 C23.1684601,13.0058512 23.1572214,13.0170748 23.1459828,13.0282984 C23.1347441,13.039522 23.1235055,13.0507456 23.1122669,13.0619693 C23.1010282,13.0731929 23.0841703,13.0844165 23.061693,13.0956401 C23.0392157,13.1068637 23.0167384,13.1180874 22.9942611,13.129311 C22.9717838,13.1405346 22.9436872,13.1517582 22.9099713,13.1629818 C22.8762554,13.1742055 22.8313008,13.1798173 22.7751076,13.1798173 C22.7189144,13.1798173 22.6683405,13.1854291 22.6233859,13.1966527 C22.5784314,13.2078763 22.5053802,13.2134881 22.4042324,13.2134881 C22.3030846,13.2134881 22.2075562,13.2190999 22.1176471,13.2303235 Z" id="路径" transform="translate(27.6892, 8.2639) scale(-1, 1) rotate(-180) translate(-27.6892, -8.2639)"></path>
            <polygon id="路径" transform="translate(35.3933, 9.8127) scale(-1, 1) rotate(-180) translate(-35.3933, -9.8127)" points="34.2385222 17.5570287 34.2385222 18.2304458 36.5480631 18.2304458 36.5480631 1.39501728 34.2385222 1.39501728 34.2385222 2.06843442 35.8737446 2.06843442 35.8737446 17.5570287"></polygon>
        </g>
        <g id="形状-2" transform="translate(223, 216)" fill="#000000" fill-opacity="0.85" fill-rule="nonzero">
            <path d="M1.44328993e-14,1.01012571 C1.44328993e-14,1.27949257 0.0955284553,1.51518857 0.286585366,1.71721371 C0.477642276,1.91923885 0.719273075,2.02025143 1.01147776,2.02025143 C1.28120516,2.02025143 1.51721664,1.93046247 1.7195122,1.75088457 C1.92180775,1.57130666 2.02857484,1.32999886 2.03981349,1.02696114 C2.03981349,0.746370666 1.94428503,0.505062856 1.75322812,0.303037714 C1.56217121,0.101012571 1.32054041,0 1.02833572,0 C0.736131038,0 0.494500239,0.0954007618 0.303443329,0.286202285 C0.112386418,0.477003809 0.0112386418,0.718311618 1.44328993e-14,1.01012571 Z M1.53210777e-14,7.91265142 C1.53210777e-14,8.18201827 0.0955284553,8.41771427 0.286585366,8.61973942 C0.477642276,8.82176456 0.719273075,8.92277713 1.01147776,8.92277713 C1.28120516,8.92277713 1.51721664,8.83298818 1.7195122,8.65341027 C1.92180775,8.47383237 2.02857484,8.23252456 2.03981349,7.92948685 C2.03981349,7.64889637 1.94428503,7.40758856 1.75322812,7.20556342 C1.56217121,7.00353828 1.32054041,6.9025257 1.02833572,6.9025257 C0.736131038,6.9025257 0.494500239,6.99792647 0.303443329,7.18872799 C0.112386418,7.37952951 0.0112386418,7.62083732 1.53210777e-14,7.91265142 Z M1.59872116e-14,14.6468228 C1.59872116e-14,14.9161897 0.0955284553,15.1518857 0.286585366,15.3539108 C0.477642276,15.555936 0.719273075,15.6569485 1.01147776,15.6569485 C1.28120516,15.6569485 1.51721664,15.5671596 1.7195122,15.3875817 C1.92180775,15.2080038 2.02857484,14.966696 2.03981349,14.6636583 C2.03981349,14.3830678 1.94428503,14.14176 1.75322812,13.9397348 C1.56217121,13.7377097 1.32054041,13.6366971 1.02833572,13.6366971 C0.736131038,13.6366971 0.494500239,13.7320979 0.303443329,13.9228994 C0.112386418,14.1137009 0.0112386418,14.3550087 1.59872116e-14,14.6468228 Z" id="形状" transform="translate(1.0199, 7.8285) scale(-1, 1) rotate(-180) translate(-1.0199, -7.8285)"></path>
        </g>
        <g id="编组-8" transform="translate(31, 217)" fill="#000000" fill-opacity="0.85" fill-rule="nonzero">
            <path d="M3.32101865,11.077712 C3.01757532,11.077712 2.83775705,11.0833238 2.78156385,11.0945474 C2.72537064,11.105771 2.69727403,11.1675009 2.69727403,11.2797371 C2.69727403,11.5827748 2.75908656,11.7679646 2.88271162,11.8353063 C2.9051889,11.8465299 3.88295074,11.8521417 5.81599713,11.8521417 C7.74904352,11.8409181 8.79423721,11.8240826 8.95157819,11.8016354 C9.58094213,11.7118465 10.1091583,11.5547158 10.5362267,11.3302434 C10.9632951,11.105771 11.2667384,10.8476278 11.4465567,10.5558137 C11.6263749,10.2639996 11.7443807,10.0226918 11.8005739,9.83189027 C11.8567671,9.64108875 11.890483,9.45028722 11.9017217,9.2594857 C11.9017217,8.75442284 11.7387614,8.28303084 11.4128407,7.8453097 C11.0869201,7.40758856 10.7104256,7.07087999 10.2833572,6.83518399 C9.85628886,6.59948799 9.47979436,6.40868647 9.15387374,6.26277942 C8.82795313,6.11687237 8.61441894,6.04391885 8.51327116,6.04391885 L8.6312769,5.95974171 C9.3842659,5.53324418 9.7607604,4.91594514 9.7607604,4.10784457 C9.7607604,3.98438476 9.7326638,3.64206438 9.67647059,3.08088342 C9.62027738,2.51970247 9.59218077,2.05953409 9.59218077,1.70037828 L9.59218077,1.54885943 C9.59218077,1.34683428 9.5978001,1.18970362 9.60903874,1.07746743 C9.62027738,0.965231237 9.68208991,0.864218665 9.79447633,0.774429713 C9.90686275,0.684640761 10.0529651,0.634134475 10.2327834,0.622910856 C10.5474653,0.622910856 10.8059541,0.746370666 11.0082496,0.993290284 C11.2105452,1.2402099 11.3566475,1.50396495 11.4465567,1.78455543 C11.5027499,1.94168609 11.5477044,2.03708685 11.5814204,2.07075771 C11.6151363,2.10442857 11.6994261,2.121264 11.8342898,2.121264 C12.0590626,2.121264 12.1714491,2.05392228 12.1714491,1.91923885 C12.1714491,1.71721371 12.0365854,1.39734057 11.766858,0.959619427 C11.3397896,0.319873142 10.8340507,0 10.2496413,0 L10.0979197,0 C9.41236251,0 8.8448111,0.140295238 8.39526542,0.420885714 C7.94571975,0.701476189 7.69846963,1.13919733 7.65351506,1.73404914 C7.65351506,2.03708685 7.73780488,2.50847885 7.90638451,3.14822514 C8.07496413,3.78797142 8.15925395,4.19763352 8.15925395,4.37721142 C8.15925395,4.94961599 7.91762315,5.3648899 7.43436155,5.62303313 C7.26578192,5.70159847 7.1252989,5.74649294 7.01291248,5.75771656 C6.90052606,5.76894018 6.50155428,5.7801638 5.81599713,5.79138742 L4.6527977,5.79138742 L4.1133429,3.60278171 C3.74246772,2.121264 3.55703013,1.36928152 3.55703013,1.34683428 C3.55703013,1.30193981 3.56264945,1.27388076 3.57388809,1.26265714 C3.58512673,1.25143352 3.62446198,1.22898628 3.69189383,1.19531543 C3.75932568,1.16164457 3.85485414,1.15042095 3.9784792,1.16164457 C4.10210426,1.17286819 4.28754185,1.16164457 4.53479197,1.12797371 L5.05738881,1.12797371 C5.12482066,1.03818476 5.15853659,0.987678475 5.15853659,0.976454856 C5.15853659,0.965231237 5.14167862,0.864218665 5.1079627,0.673417142 C5.06300813,0.527510094 5.00681492,0.420885714 4.93938307,0.353543999 L4.68651363,0.353543999 C4.28192253,0.375991238 3.54579149,0.387214857 2.47812052,0.387214857 C2.0960067,0.387214857 1.74198948,0.387214857 1.41606887,0.387214857 C1.09014825,0.387214857 0.831659493,0.387214857 0.640602582,0.387214857 C0.449545672,0.387214857 0.331539933,0.381603047 0.286585366,0.370379428 C0.0955284553,0.370379428 0,0.420885714 0,0.521898285 C0,0.544345523 0.0168579627,0.622910856 0.0505738881,0.757594285 C0.106767097,0.970843046 0.162960306,1.08869105 0.219153515,1.11113828 C0.264108082,1.1223619 0.348397896,1.12797371 0.472022956,1.12797371 L0.573170732,1.12797371 C0.87661406,1.12797371 1.21377331,1.14480914 1.58464849,1.17848 C1.74198948,1.21215086 1.84875658,1.27949257 1.90494978,1.38050514 C1.93866571,1.42539962 2.34325681,2.98548266 3.1187231,6.06075428 C3.89418938,9.13602589 4.28192253,10.7578388 4.28192253,10.9261931 C4.28192253,11.0047585 3.96162123,11.0552647 3.32101865,11.077712 Z M10.0642037,9.68037141 C10.0642037,10.0395272 9.94619799,10.3425649 9.71018651,10.5894846 C9.47417504,10.8364042 8.99091344,10.9935348 8.26040172,11.0608766 C8.23792444,11.0608766 8.10868006,11.0608766 7.87266858,11.0608766 C7.6366571,11.0608766 7.42312291,11.0664884 7.232066,11.077712 L6.86119082,11.077712 C6.33297465,11.077712 6.02953132,11.0215939 5.95086083,10.9093577 C5.93962219,10.8756868 5.74856528,10.1293162 5.3776901,8.6702457 C5.00681492,7.21117523 4.82137733,6.46480456 4.82137733,6.4311337 C4.82137733,6.41991009 5.20911047,6.41429828 5.98457676,6.41429828 C6.86119082,6.4255219 7.44560019,6.46480456 7.73780488,6.53214628 C8.45707795,6.64438247 9.01901004,6.97547923 9.42360115,7.52543656 C9.60341942,7.7835798 9.75514108,8.12028837 9.87876614,8.53556227 C10.0023912,8.95083618 10.0642037,9.33243922 10.0642037,9.68037141 Z" id="形状" transform="translate(6.0857, 5.9261) scale(-1, 1) rotate(-180) translate(-6.0857, -5.9261)"></path>
            <path d="M13.3830646,13.3216557 C13.8280249,13.9643987 14.4358724,14.2857702 15.2066072,14.2857702 C15.5880018,14.2857702 15.9693963,14.182614 16.3507909,13.9763014 C16.7321854,13.7699888 17.0420685,13.4049743 17.2804401,12.8812578 C17.5744317,12.2226446 17.7214275,11.3180433 17.7214275,10.167454 C17.7214275,8.93751374 17.5505946,7.99720455 17.2089286,7.34652646 C17.0500142,7.01325232 16.8315069,6.74742651 16.5534067,6.54904905 C16.2753066,6.35067158 16.0329621,6.22767755 15.8263734,6.18006696 C15.6197847,6.13245637 15.4171688,6.10468352 15.2185258,6.09674842 C15.0119371,6.09674842 14.8053484,6.12055372 14.5987597,6.16816431 C14.392171,6.2157749 14.1498265,6.34273648 13.8717263,6.54904905 C13.5936261,6.75536161 13.3751188,7.02118742 13.2162044,7.34652646 C12.8745385,7.99720455 12.7037055,8.93751374 12.7037055,10.167454 C12.7037055,11.5481612 12.9301585,12.5995618 13.3830646,13.3216557 Z M16.064745,13.4644875 C15.8263734,13.7184107 15.5443003,13.8453723 15.2185258,13.8453723 C14.8848056,13.8453723 14.5987597,13.7184107 14.3603881,13.4644875 C14.1617451,13.258175 14.0306407,12.9725114 13.967075,12.6074969 C13.9035092,12.2424823 13.8717263,11.4807129 13.8717263,10.3221885 C13.8717263,9.06844287 13.9035092,8.24319261 13.967075,7.84643768 C14.0306407,7.44968274 14.1736637,7.13624635 14.3961438,6.90612849 C14.618624,6.66807553 14.8927513,6.54904905 15.2185258,6.54904905 C15.5363546,6.54904905 15.8065091,6.66807553 16.0289892,6.90612849 C16.2594151,7.14418145 16.4024381,7.47745559 16.4580581,7.90595092 C16.5136781,8.33444624 16.545461,9.13985876 16.5534067,10.3221885 C16.5534067,11.4727778 16.5216239,12.2305797 16.4580581,12.5955942 C16.3944923,12.9606088 16.263388,13.2502399 16.064745,13.4644875 Z" id="形状" transform="translate(15.2126, 10.1913) scale(-1, 1) rotate(-180) translate(-15.2126, -10.1913)"></path>
        </g>
        <g id="编组-9" transform="translate(96, 217)" fill="#000000" fill-opacity="0.85" fill-rule="nonzero">
            <path d="M3.32101865,11.077712 C3.01757532,11.077712 2.83775705,11.0833238 2.78156385,11.0945474 C2.72537064,11.105771 2.69727403,11.1675009 2.69727403,11.2797371 C2.69727403,11.5827748 2.75908656,11.7679646 2.88271162,11.8353063 C2.9051889,11.8465299 3.88295074,11.8521417 5.81599713,11.8521417 C7.74904352,11.8409181 8.79423721,11.8240826 8.95157819,11.8016354 C9.58094213,11.7118465 10.1091583,11.5547158 10.5362267,11.3302434 C10.9632951,11.105771 11.2667384,10.8476278 11.4465567,10.5558137 C11.6263749,10.2639996 11.7443807,10.0226918 11.8005739,9.83189027 C11.8567671,9.64108875 11.890483,9.45028722 11.9017217,9.2594857 C11.9017217,8.75442284 11.7387614,8.28303084 11.4128407,7.8453097 C11.0869201,7.40758856 10.7104256,7.07087999 10.2833572,6.83518399 C9.85628886,6.59948799 9.47979436,6.40868647 9.15387374,6.26277942 C8.82795313,6.11687237 8.61441894,6.04391885 8.51327116,6.04391885 L8.6312769,5.95974171 C9.3842659,5.53324418 9.7607604,4.91594514 9.7607604,4.10784457 C9.7607604,3.98438476 9.7326638,3.64206438 9.67647059,3.08088342 C9.62027738,2.51970247 9.59218077,2.05953409 9.59218077,1.70037828 L9.59218077,1.54885943 C9.59218077,1.34683428 9.5978001,1.18970362 9.60903874,1.07746743 C9.62027738,0.965231237 9.68208991,0.864218665 9.79447633,0.774429713 C9.90686275,0.684640761 10.0529651,0.634134475 10.2327834,0.622910856 C10.5474653,0.622910856 10.8059541,0.746370666 11.0082496,0.993290284 C11.2105452,1.2402099 11.3566475,1.50396495 11.4465567,1.78455543 C11.5027499,1.94168609 11.5477044,2.03708685 11.5814204,2.07075771 C11.6151363,2.10442857 11.6994261,2.121264 11.8342898,2.121264 C12.0590626,2.121264 12.1714491,2.05392228 12.1714491,1.91923885 C12.1714491,1.71721371 12.0365854,1.39734057 11.766858,0.959619427 C11.3397896,0.319873142 10.8340507,0 10.2496413,0 L10.0979197,0 C9.41236251,0 8.8448111,0.140295238 8.39526542,0.420885714 C7.94571975,0.701476189 7.69846963,1.13919733 7.65351506,1.73404914 C7.65351506,2.03708685 7.73780488,2.50847885 7.90638451,3.14822514 C8.07496413,3.78797142 8.15925395,4.19763352 8.15925395,4.37721142 C8.15925395,4.94961599 7.91762315,5.3648899 7.43436155,5.62303313 C7.26578192,5.70159847 7.1252989,5.74649294 7.01291248,5.75771656 C6.90052606,5.76894018 6.50155428,5.7801638 5.81599713,5.79138742 L4.6527977,5.79138742 L4.1133429,3.60278171 C3.74246772,2.121264 3.55703013,1.36928152 3.55703013,1.34683428 C3.55703013,1.30193981 3.56264945,1.27388076 3.57388809,1.26265714 C3.58512673,1.25143352 3.62446198,1.22898628 3.69189383,1.19531543 C3.75932568,1.16164457 3.85485414,1.15042095 3.9784792,1.16164457 C4.10210426,1.17286819 4.28754185,1.16164457 4.53479197,1.12797371 L5.05738881,1.12797371 C5.12482066,1.03818476 5.15853659,0.987678475 5.15853659,0.976454856 C5.15853659,0.965231237 5.14167862,0.864218665 5.1079627,0.673417142 C5.06300813,0.527510094 5.00681492,0.420885714 4.93938307,0.353543999 L4.68651363,0.353543999 C4.28192253,0.375991238 3.54579149,0.387214857 2.47812052,0.387214857 C2.0960067,0.387214857 1.74198948,0.387214857 1.41606887,0.387214857 C1.09014825,0.387214857 0.831659493,0.387214857 0.640602582,0.387214857 C0.449545672,0.387214857 0.331539933,0.381603047 0.286585366,0.370379428 C0.0955284553,0.370379428 1.86517468e-14,0.420885714 1.86517468e-14,0.521898285 C1.86517468e-14,0.544345523 0.0168579627,0.622910856 0.0505738881,0.757594285 C0.106767097,0.970843046 0.162960306,1.08869105 0.219153515,1.11113828 C0.264108082,1.1223619 0.348397896,1.12797371 0.472022956,1.12797371 L0.573170732,1.12797371 C0.87661406,1.12797371 1.21377331,1.14480914 1.58464849,1.17848 C1.74198948,1.21215086 1.84875658,1.27949257 1.90494978,1.38050514 C1.93866571,1.42539962 2.34325681,2.98548266 3.1187231,6.06075428 C3.89418938,9.13602589 4.28192253,10.7578388 4.28192253,10.9261931 C4.28192253,11.0047585 3.96162123,11.0552647 3.32101865,11.077712 Z M10.0642037,9.68037141 C10.0642037,10.0395272 9.94619799,10.3425649 9.71018651,10.5894846 C9.47417504,10.8364042 8.99091344,10.9935348 8.26040172,11.0608766 C8.23792444,11.0608766 8.10868006,11.0608766 7.87266858,11.0608766 C7.6366571,11.0608766 7.42312291,11.0664884 7.232066,11.077712 L6.86119082,11.077712 C6.33297465,11.077712 6.02953132,11.0215939 5.95086083,10.9093577 C5.93962219,10.8756868 5.74856528,10.1293162 5.3776901,8.6702457 C5.00681492,7.21117523 4.82137733,6.46480456 4.82137733,6.4311337 C4.82137733,6.41991009 5.20911047,6.41429828 5.98457676,6.41429828 C6.86119082,6.4255219 7.44560019,6.46480456 7.73780488,6.53214628 C8.45707795,6.64438247 9.01901004,6.97547923 9.42360115,7.52543656 C9.60341942,7.7835798 9.75514108,8.12028837 9.87876614,8.53556227 C10.0023912,8.95083618 10.0642037,9.33243922 10.0642037,9.68037141 Z" id="形状" transform="translate(6.0857, 5.9261) scale(-1, 1) rotate(-180) translate(-6.0857, -5.9261)"></path>
            <path d="M14.7775384,12.976479 L14.6225968,12.9169657 C14.5113568,12.8772902 14.3524424,12.8376147 14.1458537,12.7979392 C13.9392649,12.7582637 13.7088391,12.7304909 13.454576,12.7146207 L13.228123,12.7146207 L13.228123,13.2621425 L13.454576,13.2621425 C13.8280249,13.2780127 14.1736637,13.3375259 14.4914925,13.4406822 C14.8093213,13.5438385 15.0318014,13.6390597 15.1589329,13.7263458 C15.2860644,13.8136319 15.3973045,13.900918 15.4926532,13.988204 C15.5085446,14.0120093 15.5562189,14.023912 15.6356761,14.023912 C15.7071876,14.023912 15.7747262,14.0001067 15.838292,13.9524961 L15.838292,10.3936043 L15.8502105,6.82280995 C15.9058306,6.76726426 15.9535049,6.73155632 15.9932335,6.71568612 C16.0329621,6.69981592 16.1283107,6.68394572 16.2792794,6.66807553 C16.4302481,6.65220533 16.6765654,6.64427023 17.0182313,6.64427023 L17.3281144,6.64427023 L17.3281144,6.09674842 L17.19701,6.09674842 C17.0301499,6.12055372 16.3984652,6.13245637 15.3019559,6.13245637 C14.221338,6.13245637 13.597599,6.12055372 13.4307389,6.09674842 L13.2877159,6.09674842 L13.2877159,6.64427023 L13.597599,6.64427023 C13.7724048,6.64427023 13.9233735,6.64427023 14.050505,6.64427023 C14.1776365,6.64427023 14.276958,6.64823778 14.3484695,6.65617288 C14.419981,6.66410798 14.4835467,6.67601062 14.5391668,6.69188082 C14.5947868,6.70775102 14.6265697,6.71568612 14.6345154,6.71568612 C14.6424611,6.71568612 14.6662983,6.73552386 14.7060269,6.77519936 C14.7457555,6.81487485 14.7695927,6.83074505 14.7775384,6.82280995 L14.7775384,12.976479 Z" id="路径" transform="translate(15.2781, 10.0603) scale(-1, 1) rotate(-180) translate(-15.2781, -10.0603)"></path>
        </g>
        <g id="编组-10" transform="translate(160, 217)" fill="#000000" fill-opacity="0.85" fill-rule="nonzero">
            <path d="M3.32101865,11.077712 C3.01757532,11.077712 2.83775705,11.0833238 2.78156385,11.0945474 C2.72537064,11.105771 2.69727403,11.1675009 2.69727403,11.2797371 C2.69727403,11.5827748 2.75908656,11.7679646 2.88271162,11.8353063 C2.9051889,11.8465299 3.88295074,11.8521417 5.81599713,11.8521417 C7.74904352,11.8409181 8.79423721,11.8240826 8.95157819,11.8016354 C9.58094213,11.7118465 10.1091583,11.5547158 10.5362267,11.3302434 C10.9632951,11.105771 11.2667384,10.8476278 11.4465567,10.5558137 C11.6263749,10.2639996 11.7443807,10.0226918 11.8005739,9.83189027 C11.8567671,9.64108875 11.890483,9.45028722 11.9017217,9.2594857 C11.9017217,8.75442284 11.7387614,8.28303084 11.4128407,7.8453097 C11.0869201,7.40758856 10.7104256,7.07087999 10.2833572,6.83518399 C9.85628886,6.59948799 9.47979436,6.40868647 9.15387374,6.26277942 C8.82795313,6.11687237 8.61441894,6.04391885 8.51327116,6.04391885 L8.6312769,5.95974171 C9.3842659,5.53324418 9.7607604,4.91594514 9.7607604,4.10784457 C9.7607604,3.98438476 9.7326638,3.64206438 9.67647059,3.08088342 C9.62027738,2.51970247 9.59218077,2.05953409 9.59218077,1.70037828 L9.59218077,1.54885943 C9.59218077,1.34683428 9.5978001,1.18970362 9.60903874,1.07746743 C9.62027738,0.965231237 9.68208991,0.864218665 9.79447633,0.774429713 C9.90686275,0.684640761 10.0529651,0.634134475 10.2327834,0.622910856 C10.5474653,0.622910856 10.8059541,0.746370666 11.0082496,0.993290284 C11.2105452,1.2402099 11.3566475,1.50396495 11.4465567,1.78455543 C11.5027499,1.94168609 11.5477044,2.03708685 11.5814204,2.07075771 C11.6151363,2.10442857 11.6994261,2.121264 11.8342898,2.121264 C12.0590626,2.121264 12.1714491,2.05392228 12.1714491,1.91923885 C12.1714491,1.71721371 12.0365854,1.39734057 11.766858,0.959619427 C11.3397896,0.319873142 10.8340507,0 10.2496413,0 L10.0979197,0 C9.41236251,0 8.8448111,0.140295238 8.39526542,0.420885714 C7.94571975,0.701476189 7.69846963,1.13919733 7.65351506,1.73404914 C7.65351506,2.03708685 7.73780488,2.50847885 7.90638451,3.14822514 C8.07496413,3.78797142 8.15925395,4.19763352 8.15925395,4.37721142 C8.15925395,4.94961599 7.91762315,5.3648899 7.43436155,5.62303313 C7.26578192,5.70159847 7.1252989,5.74649294 7.01291248,5.75771656 C6.90052606,5.76894018 6.50155428,5.7801638 5.81599713,5.79138742 L4.6527977,5.79138742 L4.1133429,3.60278171 C3.74246772,2.121264 3.55703013,1.36928152 3.55703013,1.34683428 C3.55703013,1.30193981 3.56264945,1.27388076 3.57388809,1.26265714 C3.58512673,1.25143352 3.62446198,1.22898628 3.69189383,1.19531543 C3.75932568,1.16164457 3.85485414,1.15042095 3.9784792,1.16164457 C4.10210426,1.17286819 4.28754185,1.16164457 4.53479197,1.12797371 L5.05738881,1.12797371 C5.12482066,1.03818476 5.15853659,0.987678475 5.15853659,0.976454856 C5.15853659,0.965231237 5.14167862,0.864218665 5.1079627,0.673417142 C5.06300813,0.527510094 5.00681492,0.420885714 4.93938307,0.353543999 L4.68651363,0.353543999 C4.28192253,0.375991238 3.54579149,0.387214857 2.47812052,0.387214857 C2.0960067,0.387214857 1.74198948,0.387214857 1.41606887,0.387214857 C1.09014825,0.387214857 0.831659493,0.387214857 0.640602582,0.387214857 C0.449545672,0.387214857 0.331539933,0.381603047 0.286585366,0.370379428 C0.0955284553,0.370379428 1.86517468e-14,0.420885714 1.86517468e-14,0.521898285 C1.86517468e-14,0.544345523 0.0168579627,0.622910856 0.0505738881,0.757594285 C0.106767097,0.970843046 0.162960306,1.08869105 0.219153515,1.11113828 C0.264108082,1.1223619 0.348397896,1.12797371 0.472022956,1.12797371 L0.573170732,1.12797371 C0.87661406,1.12797371 1.21377331,1.14480914 1.58464849,1.17848 C1.74198948,1.21215086 1.84875658,1.27949257 1.90494978,1.38050514 C1.93866571,1.42539962 2.34325681,2.98548266 3.1187231,6.06075428 C3.89418938,9.13602589 4.28192253,10.7578388 4.28192253,10.9261931 C4.28192253,11.0047585 3.96162123,11.0552647 3.32101865,11.077712 Z M10.0642037,9.68037141 C10.0642037,10.0395272 9.94619799,10.3425649 9.71018651,10.5894846 C9.47417504,10.8364042 8.99091344,10.9935348 8.26040172,11.0608766 C8.23792444,11.0608766 8.10868006,11.0608766 7.87266858,11.0608766 C7.6366571,11.0608766 7.42312291,11.0664884 7.232066,11.077712 L6.86119082,11.077712 C6.33297465,11.077712 6.02953132,11.0215939 5.95086083,10.9093577 C5.93962219,10.8756868 5.74856528,10.1293162 5.3776901,8.6702457 C5.00681492,7.21117523 4.82137733,6.46480456 4.82137733,6.4311337 C4.82137733,6.41991009 5.20911047,6.41429828 5.98457676,6.41429828 C6.86119082,6.4255219 7.44560019,6.46480456 7.73780488,6.53214628 C8.45707795,6.64438247 9.01901004,6.97547923 9.42360115,7.52543656 C9.60341942,7.7835798 9.75514108,8.12028837 9.87876614,8.53556227 C10.0023912,8.95083618 10.0642037,9.33243922 10.0642037,9.68037141 Z" id="形状" transform="translate(6.0857, 5.9261) scale(-1, 1) rotate(-180) translate(-6.0857, -5.9261)"></path>
            <path d="M13.5380061,11.2029844 C13.3234717,11.2029844 13.1526387,11.2744003 13.0255072,11.4172321 C12.8983757,11.5600638 12.8348099,11.734636 12.8348099,11.9409486 C12.8348099,12.5043406 13.0453715,12.9923492 13.4664946,13.4049743 C13.8876178,13.8175994 14.4120353,14.023912 15.0397471,14.023912 C15.7628076,14.023912 16.3666823,13.8017292 16.8513712,13.3573637 C17.3360601,12.9129982 17.5823775,12.3377035 17.5903232,11.6314797 C17.5903232,11.2902705 17.510866,10.9649314 17.3519516,10.6554626 C17.1930372,10.3459938 17.0023399,10.0762004 16.7798598,9.84608254 C16.5573796,9.61596468 16.2395508,9.32236603 15.8263734,8.96528659 C15.5403275,8.71929853 15.1430415,8.35428399 14.6345154,7.87024297 L13.9313192,7.20369469 L14.8371313,7.19179204 C16.0846093,7.19179204 16.7480769,7.21162978 16.8275341,7.25130528 C16.8831541,7.26717547 16.9785027,7.62028736 17.11358,8.31064095 L17.11358,8.34634889 L17.5903232,8.34634889 L17.5903232,8.31064095 C17.5823775,8.28683565 17.5307303,7.92578866 17.4353816,7.22749998 C17.340033,6.5292113 17.2804401,6.16419676 17.2566029,6.13245637 L17.2566029,6.09674842 L12.8348099,6.09674842 L12.8348099,6.32289873 L12.8348099,6.46573051 C12.8348099,6.5212762 12.8586471,6.58078944 12.9063214,6.64427023 C12.9539957,6.70775102 13.0731815,6.84661525 13.2638788,7.06086291 C13.4943046,7.31478607 13.6929476,7.53696883 13.8598077,7.7274112 C13.9313192,7.80676218 14.0663965,7.95356151 14.2650395,8.16780917 C14.4636824,8.38205684 14.5987597,8.52885616 14.6702712,8.60820715 C14.7417826,8.68755813 14.8569956,8.81848726 15.01591,9.00099453 C15.1748244,9.1835018 15.2860644,9.31839848 15.3496302,9.40568456 C15.413196,9.49297065 15.5045717,9.61199713 15.6237575,9.762764 C15.7429433,9.91353088 15.8263734,10.0404925 15.8740477,10.1436487 C15.921722,10.246805 15.9813149,10.361864 16.0528264,10.4888255 C16.1243379,10.6157871 16.1759851,10.7427487 16.2077679,10.8697103 C16.2395508,10.9966718 16.2673608,11.1156983 16.291198,11.2267897 C16.3150352,11.3378811 16.3269537,11.4688102 16.3269537,11.6195771 C16.3269537,12.1194883 16.1918765,12.5519512 15.921722,12.9169657 C15.6515676,13.2819803 15.2662001,13.4644875 14.7656198,13.4644875 C14.503411,13.4644875 14.2729852,13.3970392 14.0743422,13.2621425 C13.8756992,13.1272458 13.7366491,12.9963167 13.6571919,12.8693551 C13.5777347,12.7423935 13.5380061,12.6670101 13.5380061,12.6432048 C13.5380061,12.6352697 13.5578704,12.6313022 13.597599,12.6313022 C13.740622,12.6313022 13.8876178,12.5757565 14.0385864,12.4646651 C14.1895551,12.3535737 14.2650395,12.1710664 14.2650395,11.9171433 C14.2650395,11.7187658 14.2014737,11.5521287 14.0743422,11.4172321 C13.9472107,11.2823354 13.768432,11.2109195 13.5380061,11.2029844 Z" id="路径" transform="translate(15.2126, 10.0603) scale(-1, 1) rotate(-180) translate(-15.2126, -10.0603)"></path>
        </g>
    </g>
</svg>