<svg width="433" height="433" viewBox="0 0 433 433" fill="none" xmlns="http://www.w3.org/2000/svg">
<rect width="433" height="433" fill="white"/>
<circle cx="216" cy="216" r="192" fill="black" fill-opacity="0.16" stroke="black" stroke-width="0.5"/>
<circle cx="216" cy="216" r="159.75" fill="white" stroke="black" stroke-width="0.5"/>
<circle cx="216" cy="216" r="132" fill="black" fill-opacity="0.16"/>
<circle cx="216" cy="216" r="108" fill="white"/>
<circle cx="216" cy="216" r="88" fill="black" fill-opacity="0.16"/>
<circle cx="216" cy="216" r="72" fill="white"/>
<circle cx="216" cy="216" r="60" fill="black" fill-opacity="0.16"/>
<circle cx="216" cy="216" r="52" fill="white"/>
<rect x="216" y="23" width="192" height="386" fill="white"/>
<path d="M216 39H324" stroke="black" stroke-width="0.5" stroke-dasharray="2 2"/>
<path d="M216 95H324" stroke="black" stroke-width="0.5" stroke-dasharray="2 2"/>
<path d="M216 136H324" stroke="black" stroke-width="0.5" stroke-dasharray="2 2"/>
<path d="M216 160H324" stroke="black" stroke-width="0.5" stroke-dasharray="2 2"/>
<path d="M341.115 93.1817C341.475 93.1817 341.619 93.1817 341.619 92.8395C341.619 92.6593 341.475 92.6593 341.151 92.6593H339.692C340.034 90.8041 340.286 89.5252 340.43 88.9488C340.539 88.5165 340.917 88.1022 341.385 88.1022C341.763 88.1022 342.142 88.2643 342.322 88.4264C341.619 88.4985 341.403 89.0208 341.403 89.327C341.403 89.6873 341.673 89.9034 342.016 89.9034C342.376 89.9034 342.916 89.5972 342.916 88.9128C342.916 88.1562 342.16 87.7419 341.367 87.7419C340.593 87.7419 339.836 88.3183 339.476 89.0208C339.152 89.6513 338.971 90.2997 338.557 92.6593H337.35C337.008 92.6593 336.828 92.6593 336.828 92.9836C336.828 93.1817 336.936 93.1817 337.296 93.1817H338.449C338.125 94.8569 337.386 98.9277 336.972 100.855C336.666 102.422 336.396 103.737 335.495 103.737C335.441 103.737 334.919 103.737 334.594 103.395C335.513 103.323 335.513 102.53 335.513 102.512C335.513 102.152 335.243 101.936 334.901 101.936C334.54 101.936 334 102.242 334 102.926C334 103.701 334.793 104.097 335.495 104.097C337.332 104.097 338.089 100.801 338.287 99.9004C338.611 98.5134 339.494 93.7221 339.584 93.1817H341.115Z" fill="black"/>
<path d="M347.469 85.3362C347.469 85.012 347.445 85 347.12 85C346.628 85.4803 345.992 85.7685 344.851 85.7685V86.1648C345.175 86.1648 345.824 86.1648 346.52 85.8406V92.0008C346.52 92.4451 346.484 92.5892 345.343 92.5892H344.923V92.9855C345.415 92.9495 346.448 92.9495 346.988 92.9495C347.529 92.9495 348.573 92.9495 349.066 92.9855V92.5892H348.645C347.505 92.5892 347.469 92.4451 347.469 92.0008V85.3362Z" fill="black"/>
<path d="M356.682 104.8C356.682 104.746 356.682 104.71 356.376 104.403C354.575 102.584 353.566 99.6121 353.566 95.9376C353.566 92.4432 354.413 89.4351 356.502 87.3096C356.682 87.1475 356.682 87.1115 356.682 87.0575C356.682 86.9494 356.592 86.9134 356.52 86.9134C356.286 86.9134 354.809 88.2103 353.926 89.9755C353.008 91.7947 352.593 93.7221 352.593 95.9376C352.593 97.5407 352.845 99.6842 353.782 101.612C354.845 103.773 356.322 104.944 356.52 104.944C356.592 104.944 356.682 104.908 356.682 104.8Z" fill="black"/>
<path d="M360.749 98.4233C360.119 99.4861 359.506 99.8463 358.642 99.9004C358.443 99.9184 358.299 99.9184 358.299 100.243C358.299 100.351 358.389 100.423 358.515 100.423C358.84 100.423 359.65 100.387 359.974 100.387C360.497 100.387 361.073 100.423 361.578 100.423C361.686 100.423 361.902 100.423 361.902 100.08C361.902 99.9184 361.758 99.9004 361.65 99.9004C361.235 99.8643 360.893 99.7202 360.893 99.2879C360.893 99.0358 361.001 98.8376 361.235 98.4414L362.604 96.1718H367.197C367.215 96.3339 367.215 96.478 367.233 96.6401C367.288 97.1084 367.504 98.9817 367.504 99.324C367.504 99.8643 366.585 99.9004 366.297 99.9004C366.099 99.9004 365.901 99.9004 365.901 100.225C365.901 100.423 366.063 100.423 366.171 100.423C366.477 100.423 366.837 100.387 367.143 100.387H368.17C369.269 100.387 370.061 100.423 370.079 100.423C370.206 100.423 370.404 100.423 370.404 100.08C370.404 99.9004 370.242 99.9004 369.971 99.9004C368.981 99.9004 368.963 99.7382 368.909 99.1979L367.81 87.9581C367.774 87.5979 367.702 87.5618 367.504 87.5618C367.324 87.5618 367.215 87.5979 367.053 87.868L360.749 98.4233ZM362.911 95.6494L366.531 89.5972L367.143 95.6494H362.911Z" fill="black"/>
<path d="M382.134 104.494C382.224 104.746 382.314 104.926 382.548 104.926C382.747 104.926 382.909 104.764 382.909 104.566C382.909 104.53 382.909 104.494 382.819 104.277L376.658 87.3457C376.55 87.0394 376.496 86.9134 376.262 86.9134C376.064 86.9134 375.902 87.0755 375.902 87.2736C375.902 87.3096 375.902 87.3457 375.992 87.5618L382.134 104.494Z" fill="black"/>
<path d="M394.513 89.3451C394.675 88.6786 394.747 88.6426 395.449 88.6426H397.791C399.826 88.6426 399.826 90.3718 399.826 90.5339C399.826 91.9929 398.367 93.8482 395.99 93.8482H393.396L394.513 89.3451ZM397.557 93.9923C399.52 93.632 401.303 92.2631 401.303 90.6059C401.303 89.201 400.06 88.1202 398.025 88.1202H392.243C391.901 88.1202 391.739 88.1202 391.739 88.4624C391.739 88.6426 391.901 88.6426 392.171 88.6426C393.27 88.6426 393.27 88.7867 393.27 88.9848C393.27 89.0208 393.27 89.1289 393.198 89.3991L390.766 99.0898C390.604 99.7202 390.568 99.9004 389.307 99.9004C388.965 99.9004 388.785 99.9004 388.785 100.225C388.785 100.423 388.893 100.423 389.253 100.423H395.431C398.187 100.423 400.313 98.3333 400.313 96.514C400.313 95.037 399.016 94.1364 397.557 93.9923ZM394.999 99.9004H392.567C392.315 99.9004 392.279 99.9004 392.171 99.8823C391.973 99.8643 391.955 99.8283 391.955 99.6842C391.955 99.5581 391.991 99.45 392.027 99.2879L393.288 94.2084H396.674C398.8 94.2084 398.8 96.1898 398.8 96.3339C398.8 98.0631 397.233 99.9004 394.999 99.9004Z" fill="black"/>
<path d="M407.307 95.9376C407.307 94.5687 407.127 92.3351 406.119 90.2457C405.056 88.0842 403.579 86.9134 403.381 86.9134C403.309 86.9134 403.219 86.9494 403.219 87.0575C403.219 87.1115 403.219 87.1475 403.525 87.4537C405.326 89.273 406.335 92.245 406.335 95.9196C406.335 99.414 405.488 102.422 403.399 104.548C403.219 104.71 403.219 104.746 403.219 104.8C403.219 104.908 403.309 104.944 403.381 104.944C403.615 104.944 405.092 103.647 405.974 101.882C406.893 100.044 407.307 98.0991 407.307 95.9376Z" fill="black"/>
<path d="M336.45 41.5099C335.819 42.5727 335.207 42.9329 334.342 42.987C334.144 43.005 334 43.005 334 43.3292C334 43.4373 334.09 43.5093 334.216 43.5093C334.54 43.5093 335.351 43.4733 335.675 43.4733C336.198 43.4733 336.774 43.5093 337.278 43.5093C337.386 43.5093 337.602 43.5093 337.602 43.1671C337.602 43.005 337.458 42.987 337.35 42.987C336.936 42.9509 336.594 42.8068 336.594 42.3745C336.594 42.1224 336.702 41.9242 336.936 41.528L338.305 39.2584H342.898C342.916 39.4205 342.916 39.5646 342.934 39.7267C342.988 40.195 343.204 42.0683 343.204 42.4106C343.204 42.9509 342.286 42.987 341.998 42.987C341.799 42.987 341.601 42.987 341.601 43.3112C341.601 43.5093 341.763 43.5093 341.871 43.5093C342.178 43.5093 342.538 43.4733 342.844 43.4733H343.871C344.97 43.4733 345.762 43.5093 345.78 43.5093C345.906 43.5093 346.104 43.5093 346.104 43.1671C346.104 42.987 345.942 42.987 345.672 42.987C344.681 42.987 344.663 42.8249 344.609 42.2845L343.511 31.0447C343.475 30.6845 343.402 30.6484 343.204 30.6484C343.024 30.6484 342.916 30.6845 342.754 30.9546L336.45 41.5099ZM338.611 38.736L342.232 32.6838L342.844 38.736H338.611Z" fill="black"/>
<path d="M357.835 47.5802C357.925 47.8323 358.015 48.0125 358.249 48.0125C358.447 48.0125 358.609 47.8503 358.609 47.6522C358.609 47.6162 358.609 47.5802 358.519 47.364L352.359 30.4323C352.251 30.1261 352.197 30 351.963 30C351.765 30 351.603 30.1621 351.603 30.3602C351.603 30.3963 351.603 30.4323 351.693 30.6484L357.835 47.5802Z" fill="black"/>
<path d="M370.213 32.4317C370.375 31.7652 370.447 31.7292 371.15 31.7292H373.492C375.527 31.7292 375.527 33.4584 375.527 33.6205C375.527 35.0795 374.068 36.9348 371.69 36.9348H369.097L370.213 32.4317ZM373.257 37.0789C375.221 36.7187 377.004 35.3497 377.004 33.6926C377.004 32.2876 375.761 31.2068 373.726 31.2068H367.944C367.602 31.2068 367.439 31.2068 367.439 31.5491C367.439 31.7292 367.602 31.7292 367.872 31.7292C368.97 31.7292 368.97 31.8733 368.97 32.0714C368.97 32.1075 368.97 32.2155 368.898 32.4857L366.467 42.1764C366.305 42.8069 366.269 42.987 365.008 42.987C364.665 42.987 364.485 42.987 364.485 43.3112C364.485 43.5094 364.593 43.5094 364.954 43.5094H371.132C373.888 43.5094 376.013 41.4199 376.013 39.6007C376.013 38.1236 374.716 37.223 373.257 37.0789ZM370.7 42.987H368.268C368.016 42.987 367.98 42.987 367.872 42.969C367.674 42.951 367.656 42.9149 367.656 42.7708C367.656 42.6448 367.692 42.5367 367.728 42.3746L368.988 37.2951H372.375C374.5 37.2951 374.5 39.2764 374.5 39.4205C374.5 41.1497 372.933 42.987 370.7 42.987Z" fill="black"/>
<path d="M134.213 73.3452L134.213 73.3452L134.214 73.343C134.253 73.1835 134.279 73.0925 134.302 73.0352C134.304 73.0349 134.306 73.0347 134.308 73.0344C134.38 73.0252 134.485 73.0224 134.665 73.0224H137.006C137.443 73.0224 137.736 73.1145 137.934 73.2285C138.131 73.3421 138.262 73.4928 138.351 73.6523C138.54 73.987 138.542 74.3497 138.542 74.4137C138.542 75.5852 137.318 77.228 135.205 77.228H133.25L134.213 73.3452ZM131.783 83.2801C131.763 83.2801 131.746 83.2801 131.73 83.2801L132.894 78.5882H135.889C136.34 78.5882 136.644 78.6923 136.852 78.8233C137.062 78.9551 137.205 79.1334 137.305 79.3267C137.513 79.7288 137.515 80.1587 137.515 80.2137C137.515 81.6699 136.169 83.2801 134.214 83.2801H131.783ZM138.437 77.8585C138.904 77.6383 139.336 77.3638 139.708 77.0443C140.471 76.3877 141.019 75.5037 141.019 74.4857C141.019 73.6234 140.632 72.8598 139.952 72.3234C139.28 71.7928 138.343 71.5 137.24 71.5H131.458C131.455 71.5 131.451 71.5 131.448 71.5C131.371 71.5 131.278 71.5 131.193 71.5071C131.106 71.5145 130.977 71.5324 130.849 71.598C130.703 71.6732 130.591 71.7937 130.525 71.9481C130.467 72.0844 130.454 72.225 130.454 72.3422C130.454 72.462 130.482 72.6136 130.587 72.7506C130.69 72.8857 130.825 72.9483 130.924 72.9784C131.073 73.0236 131.253 73.0229 131.359 73.0224C131.369 73.0224 131.378 73.0224 131.386 73.0224C131.644 73.0224 131.827 73.0307 131.956 73.0439C131.949 73.0744 131.941 73.1096 131.93 73.1501L131.93 73.15L131.928 73.1572L129.497 82.8451C129.497 82.8455 129.497 82.846 129.497 82.8465C129.453 83.0181 129.43 83.1023 129.404 83.1629C129.395 83.1827 129.389 83.1918 129.387 83.1948C129.379 83.1998 129.333 83.2262 129.187 83.2474C129.04 83.2688 128.83 83.2801 128.522 83.2801L128.512 83.2801C128.435 83.2801 128.342 83.2801 128.258 83.2867C128.171 83.2935 128.047 83.3096 127.923 83.3667C127.783 83.4316 127.661 83.541 127.584 83.6978C127.516 83.8383 127.5 83.984 127.5 84.1044C127.5 84.1883 127.509 84.3272 127.587 84.4651C127.677 84.6235 127.814 84.7086 127.937 84.7506C128.041 84.7867 128.147 84.7951 128.218 84.7988C128.291 84.8025 128.377 84.8025 128.459 84.8025H128.468H134.647C136.152 84.8025 137.486 84.2323 138.446 83.4102C139.396 82.5965 140.028 81.4913 140.028 80.3938C140.028 79.1982 139.348 78.3501 138.437 77.8585Z" fill="black" stroke="white"/>
<path d="M118.02 48.6051L118.02 48.6064C117.726 49.1011 117.461 49.3901 117.204 49.564C116.954 49.7326 116.677 49.8167 116.311 49.8395L116.311 49.8393L116.297 49.8406C116.292 49.841 116.287 49.8415 116.281 49.842C116.242 49.8453 116.176 49.8511 116.115 49.8622C116.039 49.8761 115.923 49.9058 115.809 49.9859C115.545 50.1718 115.5 50.4669 115.5 50.6808C115.5 50.8857 115.59 51.0718 115.743 51.1973C115.888 51.3165 116.061 51.3609 116.216 51.3609C116.386 51.3609 116.675 51.3517 116.952 51.3429L116.962 51.3426C117.25 51.3335 117.523 51.3249 117.675 51.3249C117.927 51.3249 118.193 51.3335 118.467 51.3426L118.478 51.343C118.745 51.3518 119.02 51.3609 119.278 51.3609C119.28 51.3609 119.283 51.3609 119.286 51.361C119.34 51.3617 119.553 51.3645 119.748 51.2405C120.006 51.0776 120.102 50.8001 120.102 50.5187C120.102 50.4023 120.076 50.2756 120.003 50.1584C119.93 50.0413 119.832 49.9663 119.741 49.9206C119.597 49.8487 119.45 49.8398 119.375 49.8387C119.301 49.8314 119.241 49.8205 119.192 49.807C119.14 49.7922 119.112 49.7773 119.1 49.7691C119.099 49.7684 119.098 49.7677 119.098 49.7672C119.096 49.7609 119.094 49.748 119.094 49.7261C119.094 49.6353 119.116 49.5578 119.365 49.1359L120.587 47.11H124.435C124.436 47.1178 124.436 47.1256 124.437 47.1335L124.437 47.1356C124.464 47.3698 124.532 47.9533 124.592 48.5205C124.65 49.0578 124.696 49.538 124.703 49.72C124.679 49.7341 124.637 49.7534 124.571 49.7725C124.375 49.8288 124.132 49.8385 123.998 49.8385L123.99 49.8385C123.945 49.8385 123.872 49.8385 123.798 49.8465C123.718 49.8552 123.603 49.8763 123.486 49.9401C123.193 50.0997 123.101 50.3944 123.101 50.6628C123.101 50.78 123.126 50.9125 123.201 51.0365C123.278 51.1637 123.385 51.2438 123.487 51.2907C123.648 51.364 123.819 51.3616 123.864 51.361C123.867 51.3609 123.87 51.3609 123.871 51.3609C124.038 51.3609 124.216 51.3513 124.378 51.3425L124.385 51.3422C124.554 51.333 124.707 51.3249 124.844 51.3249H125.871C126.415 51.3249 126.883 51.3338 127.217 51.3427C127.437 51.3486 127.617 51.3551 127.71 51.3585C127.751 51.36 127.775 51.3609 127.78 51.3609C127.782 51.3609 127.785 51.3609 127.789 51.361C127.846 51.3619 128.066 51.3655 128.264 51.2363C128.523 51.0663 128.604 50.7829 128.604 50.5187C128.604 50.3989 128.577 50.2473 128.472 50.1103C128.368 49.9752 128.234 49.9126 128.135 49.8825C127.985 49.8373 127.805 49.838 127.699 49.8385C127.689 49.8385 127.68 49.8385 127.672 49.8385C127.433 49.8385 127.278 49.8283 127.178 49.8116C127.16 49.8085 127.145 49.8055 127.133 49.8027C127.125 49.7596 127.118 49.6957 127.107 49.5871C127.107 49.5868 127.107 49.5865 127.107 49.5863L126.008 38.3476L126.008 38.3465C125.998 38.2451 125.983 38.1431 125.957 38.0493C125.932 37.9564 125.886 37.8388 125.795 37.7338C125.589 37.4994 125.309 37.4998 125.211 37.5C125.209 37.5 125.207 37.5 125.204 37.5C125.083 37.5 124.899 37.5103 124.711 37.6255C124.538 37.7313 124.42 37.8905 124.325 38.049L124.325 38.0498L118.02 48.6051ZM121.493 45.5876L123.886 41.587L124.291 45.5876H121.493ZM119.099 49.7719C119.099 49.7719 119.099 49.7716 119.099 49.771L119.099 49.7719Z" fill="black" stroke="white"/>
<path d="M341.115 132.182C341.475 132.182 341.619 132.182 341.619 131.839C341.619 131.659 341.475 131.659 341.151 131.659H339.692C340.034 129.804 340.286 128.525 340.43 127.949C340.539 127.516 340.917 127.102 341.385 127.102C341.763 127.102 342.142 127.264 342.322 127.426C341.619 127.498 341.403 128.021 341.403 128.327C341.403 128.687 341.673 128.903 342.016 128.903C342.376 128.903 342.916 128.597 342.916 127.913C342.916 127.156 342.16 126.742 341.367 126.742C340.593 126.742 339.836 127.318 339.476 128.021C339.152 128.651 338.971 129.3 338.557 131.659H337.35C337.008 131.659 336.828 131.659 336.828 131.984C336.828 132.182 336.936 132.182 337.296 132.182H338.449C338.125 133.857 337.386 137.928 336.972 139.855C336.666 141.422 336.396 142.737 335.495 142.737C335.441 142.737 334.919 142.737 334.594 142.395C335.513 142.323 335.513 141.53 335.513 141.512C335.513 141.152 335.243 140.936 334.901 140.936C334.54 140.936 334 141.242 334 141.926C334 142.701 334.793 143.097 335.495 143.097C337.332 143.097 338.089 139.801 338.287 138.9C338.611 137.513 339.494 132.722 339.584 132.182H341.115Z" fill="black"/>
<path d="M347.084 129.536C347.277 129.356 347.781 128.959 347.973 128.791C348.718 128.107 349.426 127.446 349.426 126.354C349.426 124.925 348.225 124 346.724 124C345.283 124 344.334 125.093 344.334 126.161C344.334 126.75 344.803 126.834 344.971 126.834C345.223 126.834 345.595 126.654 345.595 126.198C345.595 125.573 344.995 125.573 344.851 125.573C345.199 124.696 346.004 124.396 346.592 124.396C347.709 124.396 348.285 125.345 348.285 126.354C348.285 127.602 347.409 128.515 345.992 129.968L344.479 131.529C344.334 131.661 344.334 131.685 344.334 131.986H349.078L349.426 129.836H349.054C349.018 130.076 348.922 130.677 348.778 130.905C348.705 131.001 347.793 131.001 347.601 131.001H345.463L347.084 129.536Z" fill="black"/>
<path d="M356.682 143.8C356.682 143.746 356.682 143.71 356.376 143.403C354.575 141.584 353.566 138.612 353.566 134.938C353.566 131.443 354.413 128.435 356.502 126.31C356.682 126.148 356.682 126.111 356.682 126.057C356.682 125.949 356.592 125.913 356.52 125.913C356.286 125.913 354.809 127.21 353.926 128.975C353.008 130.795 352.593 132.722 352.593 134.938C352.593 136.541 352.845 138.684 353.782 140.612C354.845 142.773 356.322 143.944 356.52 143.944C356.592 143.944 356.682 143.908 356.682 143.8Z" fill="black"/>
<path d="M360.749 137.423C360.119 138.486 359.506 138.846 358.642 138.9C358.443 138.918 358.299 138.918 358.299 139.243C358.299 139.351 358.389 139.423 358.515 139.423C358.84 139.423 359.65 139.387 359.974 139.387C360.497 139.387 361.073 139.423 361.578 139.423C361.686 139.423 361.902 139.423 361.902 139.08C361.902 138.918 361.758 138.9 361.65 138.9C361.235 138.864 360.893 138.72 360.893 138.288C360.893 138.036 361.001 137.838 361.235 137.441L362.604 135.172H367.197C367.215 135.334 367.215 135.478 367.233 135.64C367.288 136.108 367.504 137.982 367.504 138.324C367.504 138.864 366.585 138.9 366.297 138.9C366.099 138.9 365.901 138.9 365.901 139.225C365.901 139.423 366.063 139.423 366.171 139.423C366.477 139.423 366.837 139.387 367.143 139.387H368.17C369.269 139.387 370.061 139.423 370.079 139.423C370.206 139.423 370.404 139.423 370.404 139.08C370.404 138.9 370.242 138.9 369.971 138.9C368.981 138.9 368.963 138.738 368.909 138.198L367.81 126.958C367.774 126.598 367.702 126.562 367.504 126.562C367.324 126.562 367.215 126.598 367.053 126.868L360.749 137.423ZM362.911 134.649L366.531 128.597L367.143 134.649H362.911Z" fill="black"/>
<path d="M382.134 143.494C382.224 143.746 382.314 143.926 382.548 143.926C382.747 143.926 382.909 143.764 382.909 143.566C382.909 143.53 382.909 143.494 382.819 143.277L376.658 126.346C376.55 126.039 376.496 125.913 376.262 125.913C376.064 125.913 375.902 126.075 375.902 126.274C375.902 126.31 375.902 126.346 375.992 126.562L382.134 143.494Z" fill="black"/>
<path d="M394.513 128.345C394.675 127.679 394.747 127.643 395.449 127.643H397.791C399.826 127.643 399.826 129.372 399.826 129.534C399.826 130.993 398.367 132.848 395.99 132.848H393.396L394.513 128.345ZM397.557 132.992C399.52 132.632 401.303 131.263 401.303 129.606C401.303 128.201 400.06 127.12 398.025 127.12H392.243C391.901 127.12 391.739 127.12 391.739 127.462C391.739 127.643 391.901 127.643 392.171 127.643C393.27 127.643 393.27 127.787 393.27 127.985C393.27 128.021 393.27 128.129 393.198 128.399L390.766 138.09C390.604 138.72 390.568 138.9 389.307 138.9C388.965 138.9 388.785 138.9 388.785 139.225C388.785 139.423 388.893 139.423 389.253 139.423H395.431C398.187 139.423 400.313 137.333 400.313 135.514C400.313 134.037 399.016 133.136 397.557 132.992ZM394.999 138.9H392.567C392.315 138.9 392.279 138.9 392.171 138.882C391.973 138.864 391.955 138.828 391.955 138.684C391.955 138.558 391.991 138.45 392.027 138.288L393.288 133.208H396.674C398.8 133.208 398.8 135.19 398.8 135.334C398.8 137.063 397.233 138.9 394.999 138.9Z" fill="black"/>
<path d="M407.307 134.938C407.307 133.569 407.127 131.335 406.119 129.246C405.056 127.084 403.579 125.913 403.381 125.913C403.309 125.913 403.219 125.949 403.219 126.057C403.219 126.111 403.219 126.148 403.525 126.454C405.326 128.273 406.335 131.245 406.335 134.92C406.335 138.414 405.488 141.422 403.399 143.548C403.219 143.71 403.219 143.746 403.219 143.8C403.219 143.908 403.309 143.944 403.381 143.944C403.615 143.944 405.092 142.647 405.974 140.882C406.893 139.044 407.307 137.099 407.307 134.938Z" fill="black"/>
<path d="M341.115 158.182C341.475 158.182 341.619 158.182 341.619 157.839C341.619 157.659 341.475 157.659 341.151 157.659H339.692C340.034 155.804 340.286 154.525 340.43 153.949C340.539 153.516 340.917 153.102 341.385 153.102C341.763 153.102 342.142 153.264 342.322 153.426C341.619 153.498 341.403 154.021 341.403 154.327C341.403 154.687 341.673 154.903 342.016 154.903C342.376 154.903 342.916 154.597 342.916 153.913C342.916 153.156 342.16 152.742 341.367 152.742C340.593 152.742 339.836 153.318 339.476 154.021C339.152 154.651 338.971 155.3 338.557 157.659H337.35C337.008 157.659 336.828 157.659 336.828 157.984C336.828 158.182 336.936 158.182 337.296 158.182H338.449C338.125 159.857 337.386 163.928 336.972 165.855C336.666 167.422 336.396 168.737 335.495 168.737C335.441 168.737 334.919 168.737 334.594 168.395C335.513 168.323 335.513 167.53 335.513 167.512C335.513 167.152 335.243 166.936 334.901 166.936C334.54 166.936 334 167.242 334 167.926C334 168.701 334.793 169.097 335.495 169.097C337.332 169.097 338.089 165.801 338.287 164.9C338.611 163.513 339.494 158.722 339.584 158.182H341.115Z" fill="black"/>
<path d="M346.736 153.975C347.685 153.975 348.285 154.671 348.285 155.932C348.285 157.433 347.433 157.877 346.796 157.877C346.136 157.877 345.235 157.637 344.815 157.001C345.247 157.001 345.547 156.725 345.547 156.328C345.547 155.944 345.271 155.668 344.887 155.668C344.563 155.668 344.226 155.872 344.226 156.352C344.226 157.493 345.451 158.238 346.82 158.238C348.417 158.238 349.534 157.133 349.534 155.932C349.534 154.935 348.741 154.023 347.517 153.759C348.465 153.422 349.174 152.606 349.174 151.645C349.174 150.684 348.093 150 346.844 150C345.559 150 344.587 150.696 344.587 151.609C344.587 152.053 344.887 152.246 345.199 152.246C345.571 152.246 345.811 151.981 345.811 151.633C345.811 151.189 345.427 151.021 345.163 151.009C345.667 150.348 346.592 150.312 346.808 150.312C347.12 150.312 348.033 150.408 348.033 151.645C348.033 152.486 347.685 152.99 347.517 153.182C347.156 153.554 346.88 153.578 346.148 153.627C345.919 153.639 345.823 153.651 345.823 153.807C345.823 153.975 345.931 153.975 346.136 153.975H346.736Z" fill="black"/>
<path d="M356.682 169.8C356.682 169.746 356.682 169.71 356.376 169.403C354.575 167.584 353.566 164.612 353.566 160.938C353.566 157.443 354.413 154.435 356.502 152.31C356.682 152.148 356.682 152.111 356.682 152.057C356.682 151.949 356.592 151.913 356.52 151.913C356.286 151.913 354.809 153.21 353.926 154.975C353.008 156.795 352.593 158.722 352.593 160.938C352.593 162.541 352.845 164.684 353.782 166.612C354.845 168.773 356.322 169.944 356.52 169.944C356.592 169.944 356.682 169.908 356.682 169.8Z" fill="black"/>
<path d="M360.749 163.423C360.119 164.486 359.506 164.846 358.642 164.9C358.443 164.918 358.299 164.918 358.299 165.243C358.299 165.351 358.389 165.423 358.515 165.423C358.84 165.423 359.65 165.387 359.974 165.387C360.497 165.387 361.073 165.423 361.578 165.423C361.686 165.423 361.902 165.423 361.902 165.08C361.902 164.918 361.758 164.9 361.65 164.9C361.235 164.864 360.893 164.72 360.893 164.288C360.893 164.036 361.001 163.838 361.235 163.441L362.604 161.172H367.197C367.215 161.334 367.215 161.478 367.233 161.64C367.288 162.108 367.504 163.982 367.504 164.324C367.504 164.864 366.585 164.9 366.297 164.9C366.099 164.9 365.901 164.9 365.901 165.225C365.901 165.423 366.063 165.423 366.171 165.423C366.477 165.423 366.837 165.387 367.143 165.387H368.17C369.269 165.387 370.061 165.423 370.079 165.423C370.206 165.423 370.404 165.423 370.404 165.08C370.404 164.9 370.242 164.9 369.971 164.9C368.981 164.9 368.963 164.738 368.909 164.198L367.81 152.958C367.774 152.598 367.702 152.562 367.504 152.562C367.324 152.562 367.215 152.598 367.053 152.868L360.749 163.423ZM362.911 160.649L366.531 154.597L367.143 160.649H362.911Z" fill="black"/>
<path d="M382.134 169.494C382.224 169.746 382.314 169.926 382.548 169.926C382.747 169.926 382.909 169.764 382.909 169.566C382.909 169.53 382.909 169.494 382.819 169.277L376.658 152.346C376.55 152.039 376.496 151.913 376.262 151.913C376.064 151.913 375.902 152.075 375.902 152.274C375.902 152.31 375.902 152.346 375.992 152.562L382.134 169.494Z" fill="black"/>
<path d="M394.513 154.345C394.675 153.679 394.747 153.643 395.449 153.643H397.791C399.826 153.643 399.826 155.372 399.826 155.534C399.826 156.993 398.367 158.848 395.99 158.848H393.396L394.513 154.345ZM397.557 158.992C399.52 158.632 401.303 157.263 401.303 155.606C401.303 154.201 400.06 153.12 398.025 153.12H392.243C391.901 153.12 391.739 153.12 391.739 153.462C391.739 153.643 391.901 153.643 392.171 153.643C393.27 153.643 393.27 153.787 393.27 153.985C393.27 154.021 393.27 154.129 393.198 154.399L390.766 164.09C390.604 164.72 390.568 164.9 389.307 164.9C388.965 164.9 388.785 164.9 388.785 165.225C388.785 165.423 388.893 165.423 389.253 165.423H395.431C398.187 165.423 400.313 163.333 400.313 161.514C400.313 160.037 399.016 159.136 397.557 158.992ZM394.999 164.9H392.567C392.315 164.9 392.279 164.9 392.171 164.882C391.973 164.864 391.955 164.828 391.955 164.684C391.955 164.558 391.991 164.45 392.027 164.288L393.288 159.208H396.674C398.8 159.208 398.8 161.19 398.8 161.334C398.8 163.063 397.233 164.9 394.999 164.9Z" fill="black"/>
<path d="M407.307 160.938C407.307 159.569 407.127 157.335 406.119 155.246C405.056 153.084 403.579 151.913 403.381 151.913C403.309 151.913 403.219 151.949 403.219 152.057C403.219 152.111 403.219 152.148 403.525 152.454C405.326 154.273 406.335 157.245 406.335 160.92C406.335 164.414 405.488 167.422 403.399 169.548C403.219 169.71 403.219 169.746 403.219 169.8C403.219 169.908 403.309 169.944 403.381 169.944C403.615 169.944 405.092 168.647 405.974 166.882C406.893 165.044 407.307 163.099 407.307 160.938Z" fill="black"/>
<path d="M335.747 184.865C335.747 184.378 335.333 184 334.883 184C334.36 184 334 184.414 334 184.865C334 185.405 334.45 185.747 334.865 185.747C335.351 185.747 335.747 185.369 335.747 184.865Z" fill="black"/>
<path d="M335.747 190.869C335.747 190.382 335.333 190.004 334.883 190.004C334.36 190.004 334 190.418 334 190.869C334 191.409 334.45 191.751 334.865 191.751C335.351 191.751 335.747 191.373 335.747 190.869Z" fill="black"/>
<path d="M335.747 196.873C335.747 196.387 335.333 196.008 334.883 196.008C334.36 196.008 334 196.423 334 196.873C334 197.413 334.45 197.756 334.865 197.756C335.351 197.756 335.747 197.377 335.747 196.873Z" fill="black"/>
</svg>
