<svg width="414" height="337" viewBox="0 0 414 337" fill="none" xmlns="http://www.w3.org/2000/svg">
<rect width="414" height="337" fill="black"/>
<path d="M65.7705 73.9824C65.5068 73.9824 65.375 73.9062 65.375 73.7539C65.375 73.5957 65.4395 73.499 65.5684 73.4639C65.7031 73.4229 65.873 73.4023 66.0781 73.4023C66.2832 73.4023 66.541 73.2881 66.8516 73.0596C67.1621 72.8252 67.4551 72.4619 67.7305 71.9697L73.6191 61.5986C73.8008 61.2764 73.9912 61.1152 74.1904 61.1152C74.2373 61.1152 74.2783 61.1182 74.3135 61.124C74.3545 61.1299 74.3867 61.1475 74.4102 61.1768C74.4336 61.2061 74.4512 61.2266 74.4629 61.2383C74.4746 61.25 74.4863 61.2793 74.498 61.3262C74.5098 61.373 74.5156 61.4023 74.5156 61.4141C74.5156 61.4258 74.5215 61.4639 74.5332 61.5283V61.6162L75.3066 72.7959C75.3184 73.0713 75.3828 73.2441 75.5 73.3145C75.623 73.3848 75.8721 73.4287 76.2471 73.4463C76.5693 73.4463 76.7305 73.5283 76.7305 73.6924C76.7305 73.8975 76.6104 74 76.3701 74C76.3115 74 76.0947 73.9912 75.7197 73.9736C75.3506 73.9561 74.9492 73.9473 74.5156 73.9473C74.1582 73.9473 73.7744 73.9531 73.3643 73.9648C72.96 73.9766 72.7256 73.9824 72.6611 73.9824C72.3623 73.9824 72.2129 73.9092 72.2129 73.7627C72.2129 73.6924 72.2363 73.6279 72.2832 73.5693C72.3301 73.499 72.4854 73.4609 72.749 73.4551C73.0186 73.4492 73.2617 73.3965 73.4785 73.2969C73.7012 73.1914 73.8125 72.9863 73.8125 72.6816C73.8125 72.6699 73.8008 72.4971 73.7773 72.1631C73.7539 71.8291 73.7246 71.4307 73.6895 70.9678C73.6543 70.5049 73.6309 70.1357 73.6191 69.8604H69.5146C69.3799 70.1006 69.2334 70.3584 69.0752 70.6338C68.9229 70.9092 68.7998 71.123 68.7061 71.2754C68.6182 71.4219 68.5273 71.5801 68.4336 71.75C68.3398 71.9199 68.2695 72.0488 68.2227 72.1367C68.1816 72.2246 68.1377 72.3184 68.0908 72.418C68.0439 72.5117 68.0146 72.5908 68.0029 72.6553C67.9912 72.7139 67.9854 72.7725 67.9854 72.8311C67.9854 73.001 68.0352 73.1299 68.1348 73.2178C68.2402 73.3057 68.3516 73.3584 68.4688 73.376C68.5918 73.3936 68.7031 73.4258 68.8027 73.4727C68.9023 73.5137 68.958 73.5752 68.9697 73.6572C68.9814 73.751 68.958 73.833 68.8994 73.9033C68.8408 73.9678 68.7441 74 68.6094 74C68.5742 74 68.4863 73.9941 68.3457 73.9824C68.2109 73.9707 68.0234 73.9619 67.7832 73.9561C67.543 73.9502 67.2852 73.9473 67.0098 73.9473C66.7812 73.9473 66.5322 73.9531 66.2627 73.9648C65.9932 73.9766 65.8291 73.9824 65.7705 73.9824ZM69.8398 69.3242H73.584L73.1885 63.4355L69.8398 69.3242Z" fill="#FF6666"/>
<path d="M178.34 33.7627C178.34 33.6279 178.375 33.543 178.445 33.5078C178.521 33.4668 178.688 33.4463 178.946 33.4463C179.204 33.4463 179.409 33.4316 179.562 33.4023C179.644 33.3906 179.714 33.373 179.772 33.3496C179.837 33.3262 179.89 33.3057 179.931 33.2881C179.972 33.2705 180.01 33.2383 180.045 33.1914C180.086 33.1445 180.118 33.1094 180.142 33.0859C180.165 33.0566 180.188 33.001 180.212 32.9189C180.235 32.8369 180.25 32.7783 180.256 32.7432C180.262 32.7021 180.279 32.626 180.309 32.5146C180.338 32.4033 180.358 32.3213 180.37 32.2686L182.682 23.04C182.74 22.835 182.77 22.6914 182.77 22.6094C182.77 22.4746 182.705 22.3867 182.576 22.3457C182.453 22.3047 182.187 22.2783 181.776 22.2666C181.536 22.2666 181.393 22.2432 181.346 22.1963C181.299 22.1611 181.275 22.0996 181.275 22.0117C181.275 21.8066 181.413 21.7041 181.688 21.7041H187.322C188.523 21.7041 189.458 22.123 190.126 22.9609C190.8 23.793 191.137 24.8447 191.137 26.1162C191.137 28.0146 190.486 29.7578 189.186 31.3457C187.885 32.9336 186.411 33.8125 184.765 33.9824C184.595 33.9941 184.349 34 184.026 34H178.735C178.472 34 178.34 33.9209 178.34 33.7627ZM181.601 33.2266C181.601 33.3203 181.645 33.3818 181.732 33.4111C181.82 33.4346 182.011 33.4463 182.304 33.4463H183.903C185.333 33.4463 186.546 32.8691 187.542 31.7148C188.239 30.9121 188.764 29.8486 189.115 28.5244C189.467 27.1943 189.643 26.1514 189.643 25.3955C189.643 24.9971 189.593 24.625 189.493 24.2793C189.399 23.9336 189.247 23.6055 189.036 23.2949C188.831 22.9785 188.523 22.7295 188.113 22.5479C187.703 22.3604 187.211 22.2666 186.637 22.2666H185.09C184.721 22.2666 184.486 22.3076 184.387 22.3896C184.293 22.4717 184.19 22.7295 184.079 23.1631L181.653 32.8486C181.618 33.0186 181.601 33.1445 181.601 33.2266Z" fill="white"/>
<path d="M126.332 144.745C126.332 144.61 126.382 144.528 126.481 144.499C126.587 144.464 126.754 144.446 126.982 144.446H127.123C127.521 144.446 127.797 144.385 127.949 144.262C128.096 144.168 128.242 143.813 128.389 143.198L130.691 134.022C130.738 133.806 130.762 133.668 130.762 133.609C130.762 133.381 130.498 133.267 129.971 133.267H129.821C129.569 133.267 129.414 133.249 129.355 133.214C129.209 133.132 129.191 133.012 129.303 132.854C129.35 132.76 129.487 132.71 129.716 132.704H135.174C136.316 132.704 137.131 132.956 137.617 133.46C138.109 133.964 138.355 134.529 138.355 135.156C138.355 135.385 138.314 135.631 138.232 135.895C138.15 136.158 137.995 136.472 137.767 136.835C137.538 137.192 137.166 137.529 136.65 137.846C136.135 138.162 135.505 138.405 134.761 138.575C135.599 138.646 136.237 138.927 136.677 139.419C137.122 139.911 137.345 140.456 137.345 141.054C137.345 141.956 136.946 142.797 136.149 143.576C135.353 144.355 134.427 144.818 133.372 144.965C133.167 144.988 132.848 145 132.414 145H126.692C126.452 145 126.332 144.915 126.332 144.745ZM130.85 138.804C129.977 142.313 129.54 144.115 129.54 144.209C129.54 144.303 129.575 144.367 129.646 144.402C129.716 144.432 129.854 144.446 130.059 144.446H132.168C132.865 144.446 133.483 144.271 134.022 143.919C134.55 143.573 134.966 143.125 135.271 142.574C135.575 142.018 135.728 141.429 135.728 140.808C135.728 140.233 135.581 139.756 135.288 139.375C134.995 138.994 134.573 138.804 134.022 138.804H130.85ZM130.955 138.391H132.827C132.874 138.391 132.953 138.394 133.064 138.399C133.176 138.405 133.255 138.408 133.302 138.408C134.345 138.408 135.183 138.048 135.815 137.327C136.454 136.601 136.773 135.833 136.773 135.024C136.773 134.567 136.642 134.16 136.378 133.803C136.114 133.445 135.669 133.267 135.042 133.267H133.1C132.701 133.267 132.452 133.299 132.353 133.363C132.253 133.428 132.159 133.609 132.071 133.908C131.351 136.762 130.979 138.256 130.955 138.391Z" fill="white"/>
<path d="M26.7471 176.588C26.7471 175.205 27.125 173.866 27.8809 172.571C28.6367 171.276 29.6006 170.242 30.7725 169.469C31.9443 168.695 33.1221 168.309 34.3057 168.309C35.542 168.309 36.4443 168.818 37.0127 169.838C37.8506 168.877 38.293 168.385 38.3398 168.361C38.375 168.338 38.416 168.326 38.4629 168.326C38.5801 168.326 38.6416 168.399 38.6475 168.546C38.6475 168.593 38.2754 170.104 37.5312 173.081C37.4727 173.333 37.3643 173.459 37.2061 173.459C37.0244 173.459 36.9336 173.368 36.9336 173.187C36.9336 173.175 36.9453 173.063 36.9688 172.853C36.998 172.642 37.0127 172.416 37.0127 172.176C37.0127 171.25 36.7988 170.468 36.3711 169.829C35.9434 169.19 35.3047 168.871 34.4551 168.871C33.5938 168.871 32.7529 169.152 31.9326 169.715C31.1182 170.277 30.4473 170.98 29.9199 171.824C29.4512 172.58 29.0674 173.485 28.7686 174.54C28.4756 175.595 28.3291 176.512 28.3291 177.291C28.3291 178.516 28.6396 179.415 29.2607 179.989C29.8877 180.558 30.5996 180.842 31.3965 180.842C32.334 180.842 33.2334 180.484 34.0947 179.77C34.9561 179.055 35.5801 178.126 35.9668 176.983C35.9785 176.96 35.9902 176.919 36.002 176.86C36.0137 176.802 36.0254 176.758 36.0371 176.729C36.0488 176.693 36.0693 176.655 36.0986 176.614C36.1279 176.573 36.1602 176.541 36.1953 176.518C36.2656 176.471 36.3477 176.465 36.4414 176.5C36.541 176.535 36.5908 176.603 36.5908 176.702C36.5908 176.884 36.5146 177.153 36.3623 177.511C36.2158 177.868 35.9873 178.27 35.6768 178.715C35.3662 179.16 35.0029 179.585 34.5869 179.989C34.1709 180.388 33.6611 180.722 33.0576 180.991C32.4541 181.261 31.8213 181.396 31.1592 181.396C29.8525 181.396 28.7891 180.944 27.9688 180.042C27.1543 179.134 26.7471 177.982 26.7471 176.588Z" fill="white"/>
<path d="M139.199 277.763C139.199 277.628 139.258 277.537 139.375 277.49C139.498 277.443 139.639 277.426 139.797 277.438C139.961 277.443 140.143 277.438 140.342 277.42C140.541 277.396 140.693 277.35 140.799 277.279C140.834 277.256 140.866 277.227 140.896 277.191C140.931 277.156 140.963 277.112 140.992 277.06C141.021 277.001 141.045 276.948 141.062 276.901C141.08 276.854 141.101 276.787 141.124 276.699C141.147 276.605 141.168 276.532 141.186 276.479C141.203 276.427 141.227 276.342 141.256 276.225C141.291 276.102 141.314 276.002 141.326 275.926L143.515 267.146C143.585 266.835 143.623 266.656 143.629 266.609C143.629 266.381 143.377 266.267 142.873 266.267H142.671C142.442 266.267 142.299 266.249 142.24 266.214C142.17 266.179 142.135 266.111 142.135 266.012C142.135 265.93 142.167 265.859 142.231 265.801C142.296 265.736 142.384 265.704 142.495 265.704C142.53 265.704 142.636 265.707 142.812 265.713C142.993 265.719 143.239 265.728 143.55 265.739C143.866 265.751 144.209 265.757 144.578 265.757C144.988 265.757 145.346 265.751 145.65 265.739C145.955 265.728 146.184 265.719 146.336 265.713C146.488 265.707 146.582 265.704 146.617 265.704C146.857 265.704 146.978 265.789 146.978 265.959C146.978 266.006 146.954 266.064 146.907 266.135C146.837 266.217 146.717 266.261 146.547 266.267H146.415C145.864 266.267 145.51 266.322 145.352 266.434C145.199 266.539 145.085 266.747 145.009 267.058L143.594 272.727L149.474 267.849C149.485 267.837 149.547 267.787 149.658 267.699C149.775 267.605 149.872 267.526 149.948 267.462C150.03 267.397 150.121 267.315 150.221 267.216C150.326 267.11 150.405 267.011 150.458 266.917C150.511 266.817 150.537 266.727 150.537 266.645C150.537 266.475 150.423 266.36 150.194 266.302C149.966 266.243 149.852 266.141 149.852 265.994C149.852 265.801 149.972 265.704 150.212 265.704C150.247 265.704 150.35 265.707 150.52 265.713C150.689 265.719 150.918 265.728 151.205 265.739C151.492 265.751 151.803 265.757 152.137 265.757C152.318 265.757 152.521 265.751 152.743 265.739C152.966 265.728 153.101 265.722 153.147 265.722C153.388 265.722 153.508 265.801 153.508 265.959C153.508 266.041 153.487 266.105 153.446 266.152C153.405 266.193 153.358 266.22 153.306 266.231C153.259 266.243 153.183 266.258 153.077 266.275C152.972 266.293 152.887 266.308 152.822 266.319C152.688 266.354 152.559 266.393 152.436 266.434C152.312 266.475 152.175 266.539 152.022 266.627C151.876 266.709 151.738 266.788 151.609 266.864C151.486 266.935 151.319 267.049 151.108 267.207C150.897 267.359 150.716 267.497 150.563 267.62C150.417 267.737 150.191 267.916 149.887 268.156C149.588 268.396 149.33 268.607 149.113 268.789C148.902 268.965 148.589 269.229 148.173 269.58C147.757 269.926 147.388 270.23 147.065 270.494L149.078 275.838C149.377 276.629 149.588 277.086 149.711 277.209C149.846 277.344 150.068 277.423 150.379 277.446C150.391 277.446 150.42 277.449 150.467 277.455C150.514 277.461 150.546 277.464 150.563 277.464C150.581 277.464 150.607 277.47 150.643 277.481C150.684 277.493 150.713 277.508 150.73 277.525C150.748 277.543 150.766 277.566 150.783 277.596C150.801 277.625 150.81 277.657 150.81 277.692C150.81 277.897 150.689 278 150.449 278C150.414 278 150.271 277.991 150.019 277.974C149.767 277.956 149.389 277.947 148.885 277.947C148.551 277.947 148.237 277.95 147.944 277.956C147.657 277.962 147.432 277.968 147.268 277.974C147.109 277.979 147.013 277.982 146.978 277.982C146.761 277.982 146.652 277.909 146.652 277.763C146.652 277.604 146.705 277.514 146.811 277.49C146.922 277.461 147.065 277.438 147.241 277.42C147.423 277.396 147.569 277.338 147.681 277.244C147.815 277.139 147.88 277.013 147.874 276.866C147.874 276.784 147.845 276.664 147.786 276.506L145.896 271.47C144.35 272.753 143.544 273.424 143.479 273.482C143.421 273.564 143.368 273.69 143.321 273.86C142.794 275.935 142.53 277.021 142.53 277.121C142.53 277.238 142.601 277.317 142.741 277.358C142.888 277.399 143.166 277.429 143.576 277.446C143.875 277.446 144.024 277.528 144.024 277.692C144.024 277.897 143.904 278 143.664 278C143.629 278 143.521 277.994 143.339 277.982C143.157 277.971 142.908 277.962 142.592 277.956C142.275 277.95 141.93 277.947 141.555 277.947C141.121 277.947 140.752 277.95 140.447 277.956C140.143 277.962 139.92 277.971 139.779 277.982C139.645 277.994 139.56 278 139.524 278C139.308 278 139.199 277.921 139.199 277.763Z" fill="white"/>
<path d="M252.428 225.763C252.428 225.681 252.442 225.616 252.472 225.569C252.501 225.522 252.551 225.493 252.621 225.481C252.697 225.47 252.773 225.461 252.85 225.455C252.926 225.449 253.037 225.443 253.184 225.438C253.33 225.426 253.462 225.414 253.579 225.402C253.901 225.367 254.101 225.282 254.177 225.147C254.259 225.007 254.391 224.582 254.572 223.873L256.743 215.128C256.813 214.817 256.852 214.645 256.857 214.609C256.857 214.393 256.623 214.284 256.154 214.284H255.97C255.583 214.284 255.381 214.205 255.363 214.047C255.352 213.941 255.378 213.859 255.442 213.801C255.507 213.736 255.601 213.704 255.724 213.704C255.759 213.704 255.864 213.707 256.04 213.713C256.222 213.719 256.468 213.728 256.778 213.739C257.095 213.751 257.432 213.757 257.789 213.757C258.211 213.757 258.574 213.751 258.879 213.739C259.184 213.728 259.412 213.719 259.564 213.713C259.717 213.707 259.811 213.704 259.846 213.704C260.074 213.704 260.188 213.789 260.188 213.959C260.188 214.018 260.171 214.076 260.136 214.135C260.077 214.217 259.828 214.264 259.389 214.275C258.949 214.281 258.656 214.354 258.51 214.495C258.428 214.565 258.354 214.703 258.29 214.908C258.231 215.113 258.082 215.696 257.842 216.657C257.59 217.677 257.37 218.57 257.183 219.338H262.131C262.898 216.303 263.282 214.727 263.282 214.609C263.282 214.381 263.065 214.267 262.632 214.267C262.597 214.267 262.541 214.27 262.465 214.275C262.395 214.281 262.342 214.284 262.307 214.284C262.09 214.284 261.946 214.255 261.876 214.196C261.771 214.103 261.759 213.988 261.841 213.854C261.899 213.76 262.008 213.71 262.166 213.704C262.201 213.704 262.31 213.707 262.491 213.713C262.673 213.719 262.919 213.728 263.229 213.739C263.54 213.751 263.883 213.757 264.258 213.757C264.668 213.757 265.025 213.751 265.33 213.739C265.635 213.728 265.86 213.719 266.007 213.713C266.159 213.707 266.253 213.704 266.288 213.704C266.517 213.704 266.631 213.783 266.631 213.941C266.631 214.17 266.396 214.284 265.928 214.284H265.84C265.734 214.284 265.638 214.287 265.55 214.293C265.468 214.299 265.389 214.305 265.312 214.311C265.242 214.316 265.181 214.337 265.128 214.372C265.075 214.407 265.028 214.431 264.987 214.442C264.952 214.454 264.917 214.498 264.882 214.574C264.847 214.645 264.817 214.691 264.794 214.715C264.771 214.738 264.744 214.809 264.715 214.926C264.686 215.037 264.665 215.116 264.653 215.163C264.642 215.21 264.615 215.312 264.574 215.471C264.539 215.629 264.51 215.749 264.486 215.831L262.289 224.576C262.23 224.84 262.201 225.016 262.201 225.104C262.201 225.139 262.207 225.174 262.219 225.209C262.23 225.244 262.248 225.273 262.271 225.297C262.295 225.32 262.321 225.338 262.351 225.35C262.386 225.361 262.43 225.373 262.482 225.385C262.535 225.396 262.579 225.405 262.614 225.411C262.649 225.417 262.702 225.426 262.772 225.438C262.849 225.443 262.91 225.446 262.957 225.446C263.004 225.446 263.068 225.446 263.15 225.446C263.238 225.446 263.312 225.446 263.37 225.446C263.587 225.446 263.695 225.528 263.695 225.692C263.695 225.897 263.575 226 263.335 226H263.3C263.265 226 263.156 225.994 262.975 225.982C262.793 225.971 262.547 225.962 262.236 225.956C261.926 225.95 261.589 225.947 261.226 225.947C260.804 225.947 260.443 225.95 260.145 225.956C259.846 225.962 259.62 225.971 259.468 225.982C259.321 225.994 259.23 226 259.195 226C258.967 226 258.853 225.915 258.853 225.745C258.853 225.71 258.858 225.675 258.87 225.64C258.882 225.604 258.894 225.578 258.905 225.561C258.917 225.543 258.938 225.525 258.967 225.508C259.002 225.49 259.028 225.479 259.046 225.473C259.063 225.467 259.096 225.461 259.143 225.455C259.189 225.449 259.216 225.446 259.222 225.446C259.228 225.446 259.254 225.446 259.301 225.446H259.397C259.831 225.435 260.133 225.396 260.303 225.332C260.479 225.262 260.596 225.174 260.654 225.068C260.713 224.957 260.783 224.729 260.865 224.383L261.981 219.883H257.033L255.812 224.813C255.812 224.837 255.803 224.881 255.785 224.945C255.768 225.01 255.759 225.062 255.759 225.104C255.759 225.332 256.034 225.446 256.585 225.446H256.673C256.96 225.446 257.13 225.464 257.183 225.499C257.3 225.593 257.312 225.713 257.218 225.859C257.159 225.953 257.051 226 256.893 226C256.857 226 256.746 225.994 256.559 225.982C256.371 225.971 256.119 225.962 255.803 225.956C255.486 225.95 255.141 225.947 254.766 225.947C254.355 225.947 254.001 225.95 253.702 225.956C253.403 225.962 253.181 225.971 253.034 225.982C252.894 225.994 252.806 226 252.771 226C252.542 226 252.428 225.921 252.428 225.763Z" fill="white"/>
<path d="M273.941 311.453C273.941 310.984 274.059 310.639 274.293 310.416C274.527 310.193 274.782 310.082 275.058 310.082C275.274 310.082 275.447 310.146 275.576 310.275C275.711 310.398 275.778 310.562 275.778 310.768C275.778 311.008 275.682 311.242 275.488 311.471C275.301 311.699 275.025 311.813 274.662 311.813H274.521C274.75 312.593 275.254 312.982 276.033 312.982C276.49 312.982 276.933 312.751 277.36 312.288C277.794 311.825 278.113 311.266 278.318 310.609C278.354 310.504 278.395 310.346 278.441 310.135C278.494 309.924 278.526 309.804 278.538 309.774L280.48 302.022C280.516 301.853 280.533 301.732 280.533 301.662C280.533 301.492 280.437 301.384 280.243 301.337C280.05 301.29 279.643 301.267 279.021 301.267H278.934C278.682 301.267 278.556 301.182 278.556 301.012C278.556 300.807 278.676 300.704 278.916 300.704C278.963 300.704 279.089 300.707 279.294 300.713C279.499 300.719 279.783 300.728 280.146 300.739C280.51 300.751 280.908 300.757 281.342 300.757C281.641 300.757 281.922 300.754 282.186 300.748C282.455 300.742 282.666 300.736 282.818 300.73C282.977 300.725 283.073 300.722 283.108 300.722H283.126C283.319 300.722 283.416 300.801 283.416 300.959C283.416 301.076 283.366 301.161 283.267 301.214C283.173 301.261 283.059 301.281 282.924 301.275C282.795 301.27 282.654 301.278 282.502 301.302C282.355 301.325 282.238 301.381 282.15 301.469C282.068 301.551 281.986 301.729 281.904 302.005L279.9 310.012L279.865 310.135C279.854 310.217 279.836 310.302 279.812 310.39C279.789 310.472 279.757 310.583 279.716 310.724C279.675 310.858 279.616 310.99 279.54 311.119C279.47 311.242 279.388 311.383 279.294 311.541C279.206 311.699 279.098 311.852 278.969 311.998C278.846 312.139 278.705 312.279 278.547 312.42C278.395 312.555 278.216 312.687 278.011 312.815C277.806 312.938 277.586 313.047 277.352 313.141C276.941 313.311 276.514 313.396 276.068 313.396C275.447 313.396 274.938 313.217 274.539 312.859C274.141 312.496 273.941 312.027 273.941 311.453Z" fill="white"/>
<path d="M320.236 148.745C320.236 148.528 320.465 148.42 320.922 148.42H321.01C321.408 148.42 321.678 148.373 321.818 148.279C321.988 148.186 322.144 147.831 322.284 147.216L324.341 138.989C324.546 138.198 324.648 137.756 324.648 137.662C324.648 137.434 324.414 137.319 323.945 137.319H323.69C323.333 137.319 323.154 137.234 323.154 137.064C323.154 136.871 323.269 136.769 323.497 136.757H331.899C332.128 136.757 332.242 136.854 332.242 137.047C332.242 137.047 332.099 138.187 331.812 140.466C331.776 140.683 331.686 140.791 331.539 140.791C331.357 140.791 331.267 140.694 331.267 140.501C331.267 140.454 331.284 140.281 331.319 139.982C331.36 139.684 331.381 139.396 331.381 139.121C331.381 138.342 331.176 137.844 330.766 137.627C330.355 137.41 329.667 137.302 328.7 137.302H327.109C326.975 137.302 326.875 137.302 326.811 137.302C326.746 137.302 326.673 137.311 326.591 137.328C326.509 137.346 326.45 137.357 326.415 137.363C326.386 137.369 326.348 137.398 326.301 137.451C326.254 137.504 326.222 137.545 326.204 137.574C326.187 137.598 326.16 137.662 326.125 137.768C326.09 137.873 326.063 137.958 326.046 138.022C326.034 138.081 326.008 138.195 325.967 138.365C325.926 138.529 325.894 138.673 325.87 138.796C325.284 141.146 324.965 142.411 324.912 142.593H326.248C326.945 142.593 327.438 142.493 327.725 142.294C328.012 142.095 328.252 141.641 328.445 140.932C328.504 140.656 328.615 140.519 328.779 140.519C328.949 140.519 329.034 140.598 329.034 140.756C329.034 140.803 329.017 140.917 328.981 141.099C328.343 143.677 327.997 145.021 327.944 145.133C327.921 145.168 327.877 145.197 327.812 145.221C327.73 145.256 327.646 145.25 327.558 145.203C327.476 145.156 327.44 145.077 327.452 144.966C327.452 144.942 327.479 144.802 327.531 144.544C327.59 144.286 327.619 144.072 327.619 143.902C327.619 143.58 327.502 143.375 327.268 143.287C327.033 143.193 326.658 143.146 326.143 143.146H324.771C324.689 143.516 324.546 144.102 324.341 144.904C324.136 145.701 323.957 146.401 323.805 147.005C323.658 147.603 323.585 147.948 323.585 148.042C323.585 148.2 323.676 148.309 323.857 148.367C324.045 148.42 324.429 148.446 325.009 148.446H325.097C325.36 148.446 325.492 148.528 325.492 148.692C325.492 148.897 325.366 149 325.114 149C325.067 149 324.938 148.994 324.728 148.982C324.517 148.971 324.224 148.962 323.849 148.956C323.479 148.95 323.078 148.947 322.645 148.947C321.982 148.947 321.476 148.953 321.124 148.965C320.772 148.977 320.585 148.982 320.562 148.982C320.345 148.982 320.236 148.903 320.236 148.745Z" fill="white"/>
<path d="M377.72 87.6055C377.72 86.5625 377.945 85.5283 378.396 84.5029C378.848 83.4775 379.425 82.5898 380.128 81.8398C380.837 81.0898 381.651 80.4805 382.571 80.0117C383.491 79.543 384.394 79.3086 385.278 79.3086C386.503 79.3086 387.405 79.8184 387.985 80.8379C388.823 79.877 389.266 79.3848 389.312 79.3613C389.348 79.3379 389.389 79.3262 389.436 79.3262C389.553 79.3262 389.614 79.3994 389.62 79.5459C389.62 79.5928 389.248 81.1045 388.504 84.0811C388.445 84.333 388.337 84.459 388.179 84.459C388.12 84.459 388.059 84.4355 387.994 84.3887C387.936 84.3418 387.906 84.2744 387.906 84.1865L387.941 83.8613C387.965 83.6562 387.979 83.416 387.985 83.1406C387.985 82.2266 387.774 81.4531 387.353 80.8203C386.931 80.1875 386.289 79.8711 385.428 79.8711C384.695 79.8711 383.904 80.1143 383.055 80.6006C382.211 81.0869 381.479 81.8398 380.857 82.8594C380.342 83.6855 379.952 84.626 379.688 85.6807C379.431 86.7354 379.302 87.5996 379.302 88.2734C379.302 88.9121 379.398 89.4746 379.592 89.9609C379.785 90.4414 380.043 90.8135 380.365 91.0771C380.693 91.335 381.03 91.5283 381.376 91.6572C381.722 91.7803 382.082 91.8418 382.457 91.8418C383.119 91.8418 383.734 91.6807 384.303 91.3584C384.871 91.0303 385.27 90.6084 385.498 90.0928C385.568 89.9229 385.668 89.5684 385.797 89.0293C385.932 88.4902 385.999 88.165 385.999 88.0537C385.999 87.9072 385.923 87.8047 385.771 87.7461C385.624 87.6875 385.311 87.6582 384.83 87.6582H384.637C384.314 87.6582 384.15 87.5879 384.145 87.4473C384.145 87.377 384.156 87.3154 384.18 87.2627C384.227 87.1572 384.347 87.1045 384.54 87.1045C384.587 87.1045 384.707 87.1104 384.9 87.1221C385.094 87.1338 385.363 87.1426 385.709 87.1484C386.061 87.1543 386.438 87.1572 386.843 87.1572C387.13 87.1572 387.396 87.1543 387.643 87.1484C387.895 87.1426 388.091 87.1367 388.231 87.1309C388.378 87.125 388.463 87.1221 388.486 87.1221C388.703 87.1221 388.812 87.1953 388.812 87.3418C388.812 87.459 388.762 87.541 388.662 87.5879C388.568 87.6348 388.46 87.6553 388.337 87.6494C388.22 87.6436 388.088 87.6611 387.941 87.7021C387.801 87.7373 387.695 87.8018 387.625 87.8955C387.566 87.9775 387.493 88.1768 387.405 88.4932C387.323 88.8037 387.203 89.29 387.045 89.9521C386.887 90.6084 386.743 91.1768 386.614 91.6572C386.556 91.8623 386.477 91.9648 386.377 91.9648C386.271 91.9648 386.146 91.8506 385.999 91.6221C385.858 91.3936 385.738 91.1533 385.639 90.9014C385.229 91.3936 384.71 91.7656 384.083 92.0176C383.456 92.2695 382.812 92.3955 382.149 92.3955C380.843 92.3955 379.776 91.9473 378.95 91.0508C378.13 90.1484 377.72 89 377.72 87.6055Z" fill="white"/>
<path d="M384.065 256.763C384.065 256.681 384.08 256.616 384.109 256.569C384.139 256.522 384.191 256.49 384.268 256.473C384.35 256.455 384.429 256.446 384.505 256.446C384.581 256.446 384.692 256.443 384.839 256.438C384.991 256.426 385.126 256.414 385.243 256.402C385.366 256.391 385.466 256.376 385.542 256.358C385.624 256.341 385.697 256.309 385.762 256.262C385.832 256.215 385.882 256.18 385.911 256.156C385.94 256.133 385.973 256.077 386.008 255.989C386.043 255.896 386.066 255.831 386.078 255.796C386.09 255.761 386.11 255.682 386.14 255.559C386.169 255.43 386.189 255.333 386.201 255.269L388.363 246.611C388.51 246.037 388.583 245.703 388.583 245.609C388.583 245.463 388.516 245.372 388.381 245.337C388.252 245.302 387.965 245.278 387.52 245.267C387.279 245.267 387.136 245.243 387.089 245.196C387.03 245.161 387.001 245.103 387.001 245.021C387.001 244.933 387.033 244.859 387.098 244.801C387.162 244.736 387.25 244.704 387.361 244.704C387.385 244.704 387.423 244.707 387.476 244.713C387.528 244.719 387.566 244.722 387.59 244.722C388.117 244.745 388.776 244.757 389.567 244.757C389.937 244.757 390.276 244.751 390.587 244.739C390.903 244.728 391.152 244.719 391.334 244.713C391.516 244.707 391.624 244.704 391.659 244.704C391.888 244.704 392.002 244.789 392.002 244.959C392.002 245.041 391.987 245.108 391.958 245.161C391.929 245.208 391.873 245.237 391.791 245.249C391.715 245.261 391.633 245.27 391.545 245.275C391.463 245.281 391.349 245.284 391.202 245.284C391.062 245.284 390.938 245.29 390.833 245.302C390.698 245.313 390.581 245.337 390.481 245.372C390.388 245.407 390.314 245.439 390.262 245.469C390.209 245.498 390.159 245.56 390.112 245.653C390.065 245.741 390.036 245.803 390.024 245.838C390.013 245.873 389.986 245.967 389.945 246.119C389.91 246.271 389.887 246.377 389.875 246.436L387.713 255.075C387.566 255.673 387.496 256.016 387.502 256.104C387.502 256.25 387.566 256.341 387.695 256.376C387.83 256.405 388.12 256.429 388.565 256.446C388.806 256.446 388.949 256.47 388.996 256.517C389.055 256.575 389.084 256.628 389.084 256.675C389.084 256.745 389.049 256.818 388.979 256.895C388.908 256.965 388.823 257 388.724 257C388.7 257 388.665 256.997 388.618 256.991C388.571 256.985 388.53 256.982 388.495 256.982C387.728 256.959 387.083 256.947 386.562 256.947C386.175 256.947 385.823 256.95 385.507 256.956C385.19 256.962 384.938 256.971 384.751 256.982C384.569 256.994 384.461 257 384.426 257C384.186 257 384.065 256.921 384.065 256.763Z" fill="white"/>
<path d="M279.517 64.7451C279.517 64.5283 279.733 64.4199 280.167 64.4199H280.325C280.712 64.4199 280.976 64.373 281.116 64.2793C281.251 64.1855 281.377 63.9219 281.494 63.4883L283.832 54.1631C283.891 53.8994 283.923 53.7266 283.929 53.6445C283.929 53.4277 283.688 53.3193 283.208 53.3193H282.971C282.719 53.3193 282.563 53.2959 282.505 53.249C282.399 53.167 282.399 53.041 282.505 52.8711C282.563 52.8008 282.654 52.7627 282.777 52.7568H291.417C291.646 52.7568 291.76 52.8535 291.76 53.0469C291.76 53.0469 291.613 54.1924 291.32 56.4834C291.297 56.6885 291.209 56.791 291.057 56.791C290.875 56.791 290.784 56.6943 290.784 56.501C290.784 56.4541 290.802 56.2812 290.837 55.9824C290.872 55.6836 290.89 55.4023 290.89 55.1387C290.89 54.3477 290.682 53.8438 290.266 53.627C289.855 53.4102 289.146 53.3018 288.139 53.3018H286.337C285.979 53.3018 285.742 53.3369 285.625 53.4072C285.514 53.4775 285.414 53.6885 285.326 54.04L284.254 58.3555H285.651C286.337 58.3555 286.829 58.2588 287.128 58.0654C287.427 57.8662 287.673 57.418 287.866 56.7207C287.925 56.4336 288.039 56.29 288.209 56.29C288.379 56.29 288.464 56.3721 288.464 56.5361C288.464 56.6416 288.446 56.75 288.411 56.8613C287.761 59.4629 287.418 60.7959 287.383 60.8604C287.359 60.9189 287.312 60.96 287.242 60.9834C287.16 61.0068 287.081 61.001 287.005 60.9658C286.935 60.9307 286.899 60.8662 286.899 60.7725C286.899 60.7139 286.926 60.5586 286.979 60.3066C287.031 60.0488 287.058 59.8438 287.058 59.6914C287.058 59.3574 286.938 59.1465 286.697 59.0586C286.457 58.9648 286.067 58.918 285.528 58.918H284.104C283.243 62.3867 282.812 64.1562 282.812 64.2266C282.812 64.373 282.956 64.4463 283.243 64.4463H285.256C286.252 64.4463 287.02 64.3438 287.559 64.1387C288.104 63.9336 288.558 63.5879 288.921 63.1016C289.29 62.6152 289.694 61.833 290.134 60.7549C290.146 60.7432 290.16 60.7139 290.178 60.667C290.195 60.6143 290.207 60.5791 290.213 60.5615C290.225 60.5439 290.242 60.5205 290.266 60.4912C290.289 60.4619 290.31 60.4414 290.327 60.4297C290.345 60.418 290.371 60.4062 290.406 60.3945C290.441 60.3828 290.477 60.377 290.512 60.377C290.67 60.377 290.749 60.4473 290.749 60.5879C290.749 60.6465 290.204 62.0088 289.114 64.6748C289.079 64.7451 289.047 64.8037 289.018 64.8506C288.994 64.8916 288.959 64.9238 288.912 64.9473C288.865 64.9707 288.833 64.9854 288.815 64.9912C288.798 64.9971 288.739 65 288.64 65C288.546 65 288.481 65 288.446 65H279.982C279.672 65 279.517 64.915 279.517 64.7451Z" fill="white"/>
<path d="M43.5459 169.791C43.4303 170.042 43.54 170.339 43.7908 170.454L47.8777 172.337C48.1285 172.453 48.4255 172.343 48.5411 172.092C48.6567 171.842 48.547 171.545 48.2962 171.429L44.6634 169.755L46.3373 166.122C46.4529 165.871 46.3433 165.574 46.0925 165.459C45.8417 165.343 45.5447 165.453 45.4291 165.704L43.5459 169.791ZM44.1731 170.469L118.673 142.969L118.327 142.031L43.8269 169.531L44.1731 170.469Z" fill="white"/>
<path d="M166.46 31.697C166.568 31.4431 166.451 31.1492 166.197 31.0404L162.061 29.2678C161.807 29.159 161.513 29.2766 161.404 29.5304C161.295 29.7842 161.413 30.0782 161.667 30.1869L165.343 31.7626L163.768 35.4392C163.659 35.693 163.777 35.9869 164.03 36.0957C164.284 36.2045 164.578 36.0869 164.687 35.8331L166.46 31.697ZM86.1857 63.9642L166.186 31.9642L165.814 31.0358L85.8143 63.0358L86.1857 63.9642Z" fill="white"/>
<path d="M270.225 55.4467C270.471 55.3227 270.571 55.0222 270.447 54.7754L268.426 50.7548C268.302 50.5081 268.001 50.4086 267.754 50.5326C267.508 50.6566 267.408 50.9572 267.532 51.2039L269.329 54.7778L265.755 56.5742C265.508 56.6982 265.409 56.9988 265.533 57.2455C265.657 57.4922 265.957 57.5917 266.204 57.4677L270.225 55.4467ZM198.843 31.9747L269.843 55.4747L270.157 54.5253L199.157 31.0253L198.843 31.9747Z" fill="white"/>
<path d="M65.4574 81.7981C65.3459 81.5455 65.0507 81.4311 64.7981 81.5426L60.6814 83.3599C60.4287 83.4714 60.3143 83.7666 60.4259 84.0192C60.5374 84.2718 60.8326 84.3862 61.0852 84.2747L64.7445 82.6593L66.3599 86.3186C66.4714 86.5713 66.7666 86.6857 67.0192 86.5741C67.2718 86.4626 67.3862 86.1674 67.2747 85.9148L65.4574 81.7981ZM64.5338 81.8193L33.5338 161.819L34.4662 162.181L65.4662 82.1807L64.5338 81.8193Z" fill="white"/>
<path d="M265.755 306.43C265.993 306.289 266.071 305.982 265.93 305.745L263.631 301.876C263.49 301.638 263.184 301.56 262.946 301.701C262.709 301.842 262.631 302.149 262.772 302.387L264.815 305.826L261.376 307.869C261.138 308.01 261.06 308.316 261.201 308.554C261.342 308.791 261.649 308.869 261.887 308.728L265.755 306.43ZM157.377 278.985L265.377 306.485L265.623 305.515L157.623 278.015L157.377 278.985Z" fill="white"/>
<path d="M379.474 262.159C379.562 261.897 379.421 261.614 379.159 261.526L374.893 260.093C374.632 260.005 374.348 260.146 374.26 260.408C374.172 260.67 374.313 260.953 374.575 261.041L378.367 262.315L377.093 266.107C377.005 266.368 377.146 266.652 377.408 266.74C377.67 266.828 377.953 266.687 378.041 266.425L379.474 262.159ZM291.723 305.948L379.223 262.448L378.777 261.552L291.277 305.052L291.723 305.948Z" fill="white"/>
<path d="M122.959 129.498C123.234 129.521 123.476 129.316 123.498 129.041L123.866 124.556C123.889 124.281 123.684 124.039 123.408 124.017C123.133 123.994 122.892 124.199 122.869 124.474L122.543 128.461L118.556 128.134C118.281 128.111 118.039 128.316 118.017 128.592C117.994 128.867 118.199 129.108 118.474 129.131L122.959 129.498ZM80.6187 79.8235L122.619 129.323L123.381 128.677L81.3813 79.1765L80.6187 79.8235Z" fill="white"/>
<path d="M145.689 253.891C145.905 254.063 146.219 254.027 146.391 253.811L149.193 250.29C149.365 250.074 149.329 249.759 149.113 249.587C148.897 249.415 148.582 249.451 148.41 249.667L145.92 252.797L142.79 250.307C142.574 250.135 142.259 250.171 142.087 250.387C141.915 250.603 141.951 250.918 142.167 251.09L145.689 253.891ZM134.003 152.557L145.503 253.557L146.497 253.443L134.997 152.443L134.003 152.557Z" fill="white"/>
<path d="M244.469 224.174C244.565 223.915 244.433 223.627 244.174 223.531L239.956 221.964C239.697 221.868 239.409 222 239.313 222.259C239.217 222.518 239.349 222.806 239.607 222.902L243.357 224.295L241.964 228.044C241.868 228.303 242 228.591 242.259 228.687C242.518 228.783 242.806 228.651 242.902 228.393L244.469 224.174ZM160.208 262.955L244.208 224.455L243.792 223.545L159.792 262.045L160.208 262.955Z" fill="white"/>
<path d="M279.248 292.432C279.487 292.571 279.793 292.49 279.932 292.252L282.198 288.364C282.337 288.125 282.256 287.819 282.017 287.68C281.779 287.541 281.473 287.622 281.334 287.86L279.32 291.316L275.864 289.302C275.625 289.163 275.319 289.244 275.18 289.483C275.041 289.721 275.122 290.027 275.36 290.166L279.248 292.432ZM264.517 237.127L279.017 292.127L279.983 291.873L265.483 236.873L264.517 237.127Z" fill="white"/>
<path d="M313.997 153.946C313.967 153.671 313.72 153.473 313.446 153.503L308.972 153.99C308.698 154.02 308.499 154.266 308.529 154.541C308.559 154.815 308.806 155.014 309.08 154.984L313.057 154.551L313.49 158.528C313.52 158.802 313.766 159.001 314.041 158.971C314.315 158.941 314.514 158.694 314.484 158.42L313.997 153.946ZM270.89 207.813L313.89 154.313L313.11 153.687L270.11 207.187L270.89 207.813Z" fill="white"/>
<path d="M312.341 141.865C312.543 141.677 312.554 141.36 312.365 141.159L309.292 137.871C309.104 137.669 308.787 137.659 308.586 137.847C308.384 138.036 308.373 138.352 308.562 138.554L311.293 141.476L308.371 144.208C308.169 144.396 308.159 144.713 308.347 144.914C308.536 145.116 308.852 145.127 309.054 144.938L312.341 141.865ZM148.983 136.5L311.983 142L312.017 141L149.017 135.5L148.983 136.5Z" fill="white"/>
<path d="M318.85 130.977C319.114 131.06 319.394 130.913 319.477 130.65L320.825 126.356C320.908 126.093 320.761 125.812 320.498 125.73C320.234 125.647 319.954 125.793 319.871 126.057L318.673 129.873L314.856 128.675C314.593 128.592 314.312 128.739 314.23 129.002C314.147 129.266 314.293 129.546 314.557 129.629L318.85 130.977ZM289.057 74.2314L318.557 130.731L319.443 130.269L289.943 73.7686L289.057 74.2314Z" fill="white"/>
<path d="M269.97 70.6715C270.064 70.4121 269.931 70.1251 269.672 70.0303L265.445 68.4868C265.185 68.3921 264.898 68.5255 264.803 68.7849C264.709 69.0443 264.842 69.3314 265.102 69.4261L268.859 70.7982L267.487 74.5555C267.392 74.8149 267.526 75.1019 267.785 75.1967C268.044 75.2914 268.331 75.1579 268.426 74.8985L269.97 70.6715ZM148.211 127.453L269.711 70.9534L269.289 70.0466L147.789 126.547L148.211 127.453Z" fill="white"/>
<path d="M380.86 242.98C381.125 243.057 381.403 242.905 381.48 242.64L382.741 238.32C382.819 238.055 382.666 237.778 382.401 237.7C382.136 237.623 381.859 237.775 381.781 238.04L380.66 241.88L376.82 240.759C376.555 240.681 376.278 240.834 376.2 241.099C376.123 241.364 376.275 241.641 376.54 241.719L380.86 242.98ZM332.062 154.24L380.562 242.74L381.438 242.26L332.938 153.76L332.062 154.24Z" fill="white"/>
<path d="M131.042 264.498C131.317 264.475 131.521 264.234 131.498 263.958L131.125 259.474C131.102 259.199 130.86 258.994 130.585 259.017C130.31 259.04 130.105 259.282 130.128 259.557L130.46 263.543L126.474 263.875C126.199 263.898 125.994 264.14 126.017 264.415C126.04 264.69 126.282 264.895 126.557 264.872L131.042 264.498ZM39.677 187.382L130.677 264.382L131.323 263.618L40.323 186.618L39.677 187.382Z" fill="white"/>
<path d="M371.245 83.936C371.486 83.8008 371.571 83.496 371.436 83.2552L369.233 79.3314C369.098 79.0906 368.793 79.0051 368.552 79.1403C368.311 79.2755 368.226 79.5802 368.361 79.821L370.319 83.3088L366.831 85.2672C366.591 85.4024 366.505 85.7072 366.64 85.948C366.775 86.1888 367.08 86.2744 367.321 86.1392L371.245 83.936ZM297.865 63.4814L370.865 83.9814L371.135 83.0186L298.135 62.5186L297.865 63.4814Z" fill="white"/>
</svg>
