<svg width="480" height="160" viewBox="0 0 480 160" fill="none" xmlns="http://www.w3.org/2000/svg">
<rect width="480" height="160" fill="black"/>
<path d="M44.9249 30.6845C45.0149 30.4863 45.0149 30.4503 45.0149 30.3603C45.0149 30.1801 44.8708 30 44.6547 30C44.4205 30 44.3124 30.2161 44.2404 30.4143L42.7454 34.377H37.2696L35.7745 30.4143C35.6845 30.1621 35.5944 30 35.3602 30C35.1801 30 35 30.1801 35 30.3603C35 30.3963 35 30.4323 35.1081 30.6845L39.5932 42.4826C39.6832 42.7348 39.7733 42.8969 40.0075 42.8969C40.2596 42.8969 40.3317 42.6988 40.4037 42.5187L44.9249 30.6845ZM37.5578 35.0975H42.4572L40.0075 41.51L37.5578 35.0975Z" fill="white"/>
<path d="M32 52H24V20H56V52H48" stroke="white" stroke-opacity="0.24"/>
<path d="M42.6895 51.0547V52.3555C42.6895 53.0547 42.627 53.6445 42.502 54.125C42.377 54.6055 42.1973 54.9922 41.9629 55.2852C41.7285 55.5781 41.4453 55.791 41.1133 55.9238C40.7852 56.0527 40.4141 56.1172 40 56.1172C39.6719 56.1172 39.3691 56.0762 39.0918 55.9941C38.8145 55.9121 38.5645 55.7812 38.3418 55.6016C38.123 55.418 37.9355 55.1797 37.7793 54.8867C37.623 54.5938 37.5039 54.2383 37.4219 53.8203C37.3398 53.4023 37.2988 52.9141 37.2988 52.3555V51.0547C37.2988 50.3555 37.3613 49.7695 37.4863 49.2969C37.6152 48.8242 37.7969 48.4453 38.0312 48.1602C38.2656 47.8711 38.5469 47.6641 38.875 47.5391C39.207 47.4141 39.5781 47.3516 39.9883 47.3516C40.3203 47.3516 40.625 47.3926 40.9023 47.4746C41.1836 47.5527 41.4336 47.6797 41.6523 47.8555C41.8711 48.0273 42.0566 48.2578 42.209 48.5469C42.3652 48.832 42.4844 49.1816 42.5664 49.5957C42.6484 50.0098 42.6895 50.4961 42.6895 51.0547ZM41.5996 52.5312V50.873C41.5996 50.4902 41.5762 50.1543 41.5293 49.8652C41.4863 49.5723 41.4219 49.3223 41.3359 49.1152C41.25 48.9082 41.1406 48.7402 41.0078 48.6113C40.8789 48.4824 40.7285 48.3887 40.5566 48.3301C40.3887 48.2676 40.1992 48.2363 39.9883 48.2363C39.7305 48.2363 39.502 48.2852 39.3027 48.3828C39.1035 48.4766 38.9355 48.627 38.7988 48.834C38.666 49.041 38.5645 49.3125 38.4941 49.6484C38.4238 49.9844 38.3887 50.3926 38.3887 50.873V52.5312C38.3887 52.9141 38.4102 53.252 38.4531 53.5449C38.5 53.8379 38.5684 54.0918 38.6582 54.3066C38.748 54.5176 38.8574 54.6914 38.9863 54.8281C39.1152 54.9648 39.2637 55.0664 39.4316 55.1328C39.6035 55.1953 39.793 55.2266 40 55.2266C40.2656 55.2266 40.498 55.1758 40.6973 55.0742C40.8965 54.9727 41.0625 54.8145 41.1953 54.5996C41.332 54.3809 41.4336 54.1016 41.5 53.7617C41.5664 53.418 41.5996 53.0078 41.5996 52.5312Z" fill="white" fill-opacity="0.24"/>
<path d="M76.4497 40.8615C75.8193 41.9242 75.2068 42.2845 74.3422 42.3385C74.1441 42.3565 74 42.3565 74 42.6808C74 42.7888 74.0901 42.8609 74.2161 42.8609C74.5404 42.8609 75.3509 42.8249 75.6752 42.8249C76.1975 42.8249 76.7739 42.8609 77.2783 42.8609C77.3863 42.8609 77.6025 42.8609 77.6025 42.5187C77.6025 42.3565 77.4584 42.3385 77.3503 42.3385C76.936 42.3025 76.5938 42.1584 76.5938 41.7261C76.5938 41.4739 76.7019 41.2758 76.936 40.8795L78.305 38.61H82.8982C82.9162 38.7721 82.9162 38.9162 82.9342 39.0783C82.9882 39.5466 83.2044 41.4199 83.2044 41.7621C83.2044 42.3025 82.2857 42.3385 81.9975 42.3385C81.7994 42.3385 81.6013 42.3385 81.6013 42.6628C81.6013 42.8609 81.7634 42.8609 81.8714 42.8609C82.1777 42.8609 82.5379 42.8249 82.8441 42.8249H83.8708C84.9696 42.8249 85.7621 42.8609 85.7801 42.8609C85.9062 42.8609 86.1044 42.8609 86.1044 42.5187C86.1044 42.3385 85.9423 42.3385 85.6721 42.3385C84.6814 42.3385 84.6634 42.1764 84.6093 41.636L83.5106 30.3963C83.4745 30.036 83.4025 30 83.2044 30C83.0242 30 82.9162 30.036 82.7541 30.3062L76.4497 40.8615ZM78.6112 38.0876L82.2317 32.0354L82.8441 38.0876H78.6112Z" fill="white"/>
<path d="M72 52H64V20H96V52H88" stroke="white" stroke-opacity="0.24"/>
<path d="M80.8965 47.4219V56H79.8125V48.7754L77.627 49.5723V48.5938L80.7266 47.4219H80.8965Z" fill="white" fill-opacity="0.24"/>
<path d="M124.925 30.6845C125.015 30.4863 125.015 30.4503 125.015 30.3603C125.015 30.1801 124.871 30 124.655 30C124.421 30 124.312 30.2161 124.24 30.4143L122.745 34.377H117.27L115.775 30.4143C115.684 30.1621 115.594 30 115.36 30C115.18 30 115 30.1801 115 30.3603C115 30.3963 115 30.4323 115.108 30.6845L119.593 42.4826C119.683 42.7348 119.773 42.8969 120.007 42.8969C120.26 42.8969 120.332 42.6988 120.404 42.5187L124.925 30.6845ZM117.558 35.0975H122.457L120.007 41.51L117.558 35.0975Z" fill="white"/>
<path d="M112 52H104V20H136V52H128" stroke="white" stroke-opacity="0.24"/>
<path d="M122.924 55.1094V56H117.34V55.2207L120.135 52.1094C120.479 51.7266 120.744 51.4023 120.932 51.1367C121.123 50.8672 121.256 50.627 121.33 50.416C121.408 50.2012 121.447 49.9824 121.447 49.7598C121.447 49.4785 121.389 49.2246 121.271 48.998C121.158 48.7676 120.99 48.584 120.768 48.4473C120.545 48.3105 120.275 48.2422 119.959 48.2422C119.58 48.2422 119.264 48.3164 119.01 48.4648C118.76 48.6094 118.572 48.8125 118.447 49.0742C118.322 49.3359 118.26 49.6367 118.26 49.9766H117.176C117.176 49.4961 117.281 49.0566 117.492 48.6582C117.703 48.2598 118.016 47.9434 118.43 47.709C118.844 47.4707 119.354 47.3516 119.959 47.3516C120.498 47.3516 120.959 47.4473 121.342 47.6387C121.725 47.8262 122.018 48.0918 122.221 48.4355C122.428 48.7754 122.531 49.1738 122.531 49.6309C122.531 49.8809 122.488 50.1348 122.402 50.3926C122.32 50.6465 122.205 50.9004 122.057 51.1543C121.912 51.4082 121.742 51.6582 121.547 51.9043C121.355 52.1504 121.15 52.3926 120.932 52.6309L118.646 55.1094H122.924Z" fill="white" fill-opacity="0.24"/>
<path d="M159.831 31.4317C159.994 30.7652 160.066 30.7292 160.768 30.7292H163.11C165.145 30.7292 165.145 32.4584 165.145 32.6205C165.145 34.0795 163.686 35.9348 161.308 35.9348H158.715L159.831 31.4317ZM162.876 36.0789C164.839 35.7187 166.622 34.3497 166.622 32.6926C166.622 31.2876 165.379 30.2068 163.344 30.2068H157.562C157.22 30.2068 157.058 30.2068 157.058 30.5491C157.058 30.7292 157.22 30.7292 157.49 30.7292C158.589 30.7292 158.589 30.8733 158.589 31.0714C158.589 31.1075 158.589 31.2155 158.517 31.4857L156.085 41.1764C155.923 41.8069 155.887 41.987 154.626 41.987C154.284 41.987 154.104 41.987 154.104 42.3112C154.104 42.5094 154.212 42.5094 154.572 42.5094H160.75C163.506 42.5094 165.631 40.4199 165.631 38.6007C165.631 37.1236 164.335 36.223 162.876 36.0789ZM160.318 41.987H157.886C157.634 41.987 157.598 41.987 157.49 41.969C157.292 41.951 157.274 41.9149 157.274 41.7708C157.274 41.6448 157.31 41.5367 157.346 41.3746L158.607 36.2951H161.993C164.118 36.2951 164.118 38.2764 164.118 38.4205C164.118 40.1497 162.551 41.987 160.318 41.987Z" fill="white"/>
<path d="M152 52H144V20H176V52H168" stroke="white" stroke-opacity="0.24"/>
<path d="M158.916 51.2012H159.689C160.068 51.2012 160.381 51.1387 160.627 51.0137C160.877 50.8848 161.062 50.7109 161.184 50.4922C161.309 50.2695 161.371 50.0195 161.371 49.7422C161.371 49.4141 161.316 49.1387 161.207 48.916C161.098 48.6934 160.934 48.5254 160.715 48.4121C160.496 48.2988 160.219 48.2422 159.883 48.2422C159.578 48.2422 159.309 48.3027 159.074 48.4238C158.844 48.541 158.662 48.709 158.529 48.9277C158.4 49.1465 158.336 49.4043 158.336 49.7012H157.252C157.252 49.2676 157.361 48.873 157.58 48.5176C157.799 48.1621 158.105 47.8789 158.5 47.668C158.898 47.457 159.359 47.3516 159.883 47.3516C160.398 47.3516 160.85 47.4434 161.236 47.627C161.623 47.8066 161.924 48.0762 162.139 48.4355C162.354 48.791 162.461 49.2344 162.461 49.7656C162.461 49.9805 162.41 50.2109 162.309 50.457C162.211 50.6992 162.057 50.9258 161.846 51.1367C161.639 51.3477 161.369 51.5215 161.037 51.6582C160.705 51.791 160.307 51.8574 159.842 51.8574H158.916V51.2012ZM158.916 52.0918V51.4414H159.842C160.385 51.4414 160.834 51.5059 161.189 51.6348C161.545 51.7637 161.824 51.9355 162.027 52.1504C162.234 52.3652 162.379 52.6016 162.461 52.8594C162.547 53.1133 162.59 53.3672 162.59 53.6211C162.59 54.0195 162.521 54.373 162.385 54.6816C162.252 54.9902 162.062 55.252 161.816 55.4668C161.574 55.6816 161.289 55.8438 160.961 55.9531C160.633 56.0625 160.275 56.1172 159.889 56.1172C159.518 56.1172 159.168 56.0645 158.84 55.959C158.516 55.8535 158.229 55.7012 157.979 55.502C157.729 55.2988 157.533 55.0508 157.393 54.7578C157.252 54.4609 157.182 54.123 157.182 53.7441H158.266C158.266 54.041 158.33 54.3008 158.459 54.5234C158.592 54.7461 158.779 54.9199 159.021 55.0449C159.268 55.166 159.557 55.2266 159.889 55.2266C160.221 55.2266 160.506 55.1699 160.744 55.0566C160.986 54.9395 161.172 54.7637 161.301 54.5293C161.434 54.2949 161.5 54 161.5 53.6445C161.5 53.2891 161.426 52.998 161.277 52.7715C161.129 52.541 160.918 52.3711 160.645 52.2617C160.375 52.1484 160.057 52.0918 159.689 52.0918H158.916Z" fill="white" fill-opacity="0.24"/>
<path d="M202.404 44.8864C202.404 44.8323 202.404 44.7963 202.098 44.4901C200.297 42.6708 199.288 39.6988 199.288 36.0242C199.288 32.5298 200.134 29.5217 202.224 27.3963C202.404 27.2342 202.404 27.1981 202.404 27.1441C202.404 27.036 202.314 27 202.242 27C202.008 27 200.531 28.2969 199.648 30.0621C198.729 31.8814 198.315 33.8087 198.315 36.0242C198.315 37.6273 198.567 39.7708 199.504 41.6982C200.567 43.8597 202.044 45.0305 202.242 45.0305C202.314 45.0305 202.404 44.9944 202.404 44.8864Z" fill="white"/>
<path d="M192 52H184V20H216V52H208" stroke="white" stroke-opacity="0.24"/>
<path d="M203.1 53.1289V54.0195H196.936V53.3809L200.756 47.4688H201.641L200.691 49.1797L198.166 53.1289H203.1ZM201.91 47.4688V56H200.826V47.4688H201.91Z" fill="white" fill-opacity="0.24"/>
<path d="M245.414 34.7454C245.414 34.151 245.36 34.0969 244.784 34.0969H236.03C235.724 34.0969 235.399 34.0969 235.399 34.4572C235.399 34.8174 235.724 34.8174 236.03 34.8174H244.694V38.2578C244.694 38.582 244.694 38.9062 245.054 38.9062C245.414 38.9062 245.414 38.582 245.414 38.2578V34.7454Z" fill="white"/>
<path d="M232 52H224V20H256V52H248" stroke="white" stroke-opacity="0.24"/>
<path d="M238.705 51.9395L237.838 51.7168L238.266 47.4688H242.643V48.4707H239.186L238.928 50.791C239.084 50.7012 239.281 50.6172 239.52 50.5391C239.762 50.4609 240.039 50.4219 240.352 50.4219C240.746 50.4219 241.1 50.4902 241.412 50.627C241.725 50.7598 241.99 50.9512 242.209 51.2012C242.432 51.4512 242.602 51.752 242.719 52.1035C242.836 52.4551 242.895 52.8477 242.895 53.2812C242.895 53.6914 242.838 54.0684 242.725 54.4121C242.615 54.7559 242.449 55.0566 242.227 55.3145C242.004 55.5684 241.723 55.7656 241.383 55.9062C241.047 56.0469 240.65 56.1172 240.193 56.1172C239.85 56.1172 239.523 56.0703 239.215 55.9766C238.91 55.8789 238.637 55.7324 238.395 55.5371C238.156 55.3379 237.961 55.0918 237.809 54.7988C237.66 54.502 237.566 54.1543 237.527 53.7559H238.559C238.605 54.0762 238.699 54.3457 238.84 54.5645C238.98 54.7832 239.164 54.9492 239.391 55.0625C239.621 55.1719 239.889 55.2266 240.193 55.2266C240.451 55.2266 240.68 55.1816 240.879 55.0918C241.078 55.002 241.246 54.873 241.383 54.7051C241.52 54.5371 241.623 54.334 241.693 54.0957C241.768 53.8574 241.805 53.5898 241.805 53.293C241.805 53.0234 241.768 52.7734 241.693 52.543C241.619 52.3125 241.508 52.1113 241.359 51.9395C241.215 51.7676 241.037 51.6348 240.826 51.541C240.615 51.4434 240.373 51.3945 240.1 51.3945C239.736 51.3945 239.461 51.4434 239.273 51.541C239.09 51.6387 238.9 51.7715 238.705 51.9395Z" fill="white" fill-opacity="0.24"/>
<path d="M282.271 44.8864C282.271 44.8323 282.271 44.7963 281.965 44.4901C280.164 42.6708 279.155 39.6988 279.155 36.0242C279.155 32.5298 280.001 29.5217 282.091 27.3963C282.271 27.2342 282.271 27.1981 282.271 27.1441C282.271 27.036 282.181 27 282.109 27C281.875 27 280.398 28.2969 279.515 30.0621C278.596 31.8814 278.182 33.8087 278.182 36.0242C278.182 37.6273 278.434 39.7708 279.371 41.6982C280.434 43.8597 281.911 45.0305 282.109 45.0305C282.181 45.0305 282.271 44.9944 282.271 44.8864Z" fill="white"/>
<path d="M272 52H264V20H296V52H288" stroke="white" stroke-opacity="0.24"/>
<path d="M281.494 47.457H281.588V48.377H281.494C280.92 48.377 280.439 48.4707 280.053 48.6582C279.666 48.8418 279.359 49.0898 279.133 49.4023C278.906 49.7109 278.742 50.0586 278.641 50.4453C278.543 50.832 278.494 51.2246 278.494 51.623V52.877C278.494 53.2559 278.539 53.5918 278.629 53.8848C278.719 54.1738 278.842 54.418 278.998 54.6172C279.154 54.8164 279.33 54.9668 279.525 55.0684C279.725 55.1699 279.932 55.2207 280.146 55.2207C280.396 55.2207 280.619 55.1738 280.814 55.0801C281.01 54.9824 281.174 54.8477 281.307 54.6758C281.443 54.5 281.547 54.293 281.617 54.0547C281.688 53.8164 281.723 53.5547 281.723 53.2695C281.723 53.0156 281.691 52.7715 281.629 52.5371C281.566 52.2988 281.471 52.0879 281.342 51.9043C281.213 51.7168 281.051 51.5703 280.855 51.4648C280.664 51.3555 280.436 51.3008 280.17 51.3008C279.869 51.3008 279.588 51.375 279.326 51.5234C279.068 51.668 278.855 51.8594 278.688 52.0977C278.523 52.332 278.43 52.5879 278.406 52.8652L277.832 52.8594C277.887 52.4219 277.988 52.0488 278.137 51.7402C278.289 51.4277 278.477 51.1738 278.699 50.9785C278.926 50.7793 279.178 50.6348 279.455 50.5449C279.736 50.4512 280.033 50.4043 280.346 50.4043C280.771 50.4043 281.139 50.4844 281.447 50.6445C281.756 50.8047 282.01 51.0195 282.209 51.2891C282.408 51.5547 282.555 51.8555 282.648 52.1914C282.746 52.5234 282.795 52.8652 282.795 53.2168C282.795 53.6191 282.738 53.9961 282.625 54.3477C282.512 54.6992 282.342 55.0078 282.115 55.2734C281.893 55.5391 281.617 55.7461 281.289 55.8945C280.961 56.043 280.58 56.1172 280.146 56.1172C279.686 56.1172 279.283 56.0234 278.939 55.8359C278.596 55.6445 278.311 55.3906 278.084 55.0742C277.857 54.7578 277.688 54.4062 277.574 54.0195C277.461 53.6328 277.404 53.2402 277.404 52.8418V52.332C277.404 51.7305 277.465 51.1406 277.586 50.5625C277.707 49.9844 277.916 49.4609 278.213 48.9922C278.514 48.5234 278.93 48.1504 279.461 47.873C279.992 47.5957 280.67 47.457 281.494 47.457Z" fill="white" fill-opacity="0.24"/>
<path d="M316.338 40.5099C315.707 41.5727 315.095 41.9329 314.23 41.987C314.032 42.005 313.888 42.005 313.888 42.3292C313.888 42.4373 313.978 42.5093 314.104 42.5093C314.429 42.5093 315.239 42.4733 315.563 42.4733C316.086 42.4733 316.662 42.5093 317.166 42.5093C317.275 42.5093 317.491 42.5093 317.491 42.1671C317.491 42.005 317.347 41.987 317.238 41.987C316.824 41.9509 316.482 41.8068 316.482 41.3745C316.482 41.1224 316.59 40.9242 316.824 40.528L318.193 38.2584H322.786C322.804 38.4205 322.804 38.5646 322.822 38.7267C322.876 39.195 323.093 41.0683 323.093 41.4106C323.093 41.9509 322.174 41.987 321.886 41.987C321.688 41.987 321.489 41.987 321.489 42.3112C321.489 42.5093 321.652 42.5093 321.76 42.5093C322.066 42.5093 322.426 42.4733 322.732 42.4733H323.759C324.858 42.4733 325.65 42.5093 325.668 42.5093C325.794 42.5093 325.993 42.5093 325.993 42.1671C325.993 41.987 325.83 41.987 325.56 41.987C324.57 41.987 324.552 41.8249 324.498 41.2845L323.399 30.0447C323.363 29.6845 323.291 29.6484 323.093 29.6484C322.912 29.6484 322.804 29.6845 322.642 29.9546L316.338 40.5099ZM318.499 37.736L322.12 31.6838L322.732 37.736H318.499Z" fill="white"/>
<path d="M312 52H304V20H336V52H328" stroke="white" stroke-opacity="0.24"/>
<path d="M322.848 47.4688V48.0781L319.314 56H318.172L321.699 48.3594H317.082V47.4688H322.848Z" fill="white" fill-opacity="0.24"/>
<path d="M365.659 34.6733C365.912 34.6733 366.236 34.6733 366.236 34.3491C366.236 34.0069 365.93 34.0069 365.659 34.0069H355.05C354.798 34.0069 354.474 34.0069 354.474 34.3311C354.474 34.6733 354.78 34.6733 355.05 34.6733H365.659ZM365.659 38.0236C365.912 38.0236 366.236 38.0236 366.236 37.6994C366.236 37.3572 365.93 37.3572 365.659 37.3572H355.05C354.798 37.3572 354.474 37.3572 354.474 37.6814C354.474 38.0236 354.78 38.0236 355.05 38.0236H365.659Z" fill="white"/>
<path d="M352 52H344V20H376V52H368" stroke="white" stroke-opacity="0.24"/>
<path d="M362.713 53.6914C362.713 54.2109 362.592 54.6523 362.35 55.0156C362.111 55.375 361.787 55.6484 361.377 55.8359C360.971 56.0234 360.512 56.1172 360 56.1172C359.488 56.1172 359.027 56.0234 358.617 55.8359C358.207 55.6484 357.883 55.375 357.645 55.0156C357.406 54.6523 357.287 54.2109 357.287 53.6914C357.287 53.3516 357.352 53.041 357.48 52.7598C357.613 52.4746 357.799 52.2266 358.037 52.0156C358.279 51.8047 358.564 51.6426 358.893 51.5293C359.225 51.4121 359.59 51.3535 359.988 51.3535C360.512 51.3535 360.979 51.4551 361.389 51.6582C361.799 51.8574 362.121 52.1328 362.355 52.4844C362.594 52.8359 362.713 53.2383 362.713 53.6914ZM361.623 53.668C361.623 53.3516 361.555 53.0723 361.418 52.8301C361.281 52.584 361.09 52.3926 360.844 52.2559C360.598 52.1191 360.312 52.0508 359.988 52.0508C359.656 52.0508 359.369 52.1191 359.127 52.2559C358.889 52.3926 358.703 52.584 358.57 52.8301C358.438 53.0723 358.371 53.3516 358.371 53.668C358.371 53.9961 358.436 54.2773 358.564 54.5117C358.697 54.7422 358.885 54.9199 359.127 55.0449C359.373 55.166 359.664 55.2266 360 55.2266C360.336 55.2266 360.625 55.166 360.867 55.0449C361.109 54.9199 361.295 54.7422 361.424 54.5117C361.557 54.2773 361.623 53.9961 361.623 53.668ZM362.514 49.6895C362.514 50.1035 362.404 50.4766 362.186 50.8086C361.967 51.1406 361.668 51.4023 361.289 51.5938C360.91 51.7852 360.48 51.8809 360 51.8809C359.512 51.8809 359.076 51.7852 358.693 51.5938C358.314 51.4023 358.018 51.1406 357.803 50.8086C357.588 50.4766 357.48 50.1035 357.48 49.6895C357.48 49.1934 357.588 48.7715 357.803 48.4238C358.021 48.0762 358.32 47.8105 358.699 47.627C359.078 47.4434 359.51 47.3516 359.994 47.3516C360.482 47.3516 360.916 47.4434 361.295 47.627C361.674 47.8105 361.971 48.0762 362.186 48.4238C362.404 48.7715 362.514 49.1934 362.514 49.6895ZM361.43 49.707C361.43 49.4219 361.369 49.1699 361.248 48.9512C361.127 48.7324 360.959 48.5605 360.744 48.4355C360.529 48.3066 360.279 48.2422 359.994 48.2422C359.709 48.2422 359.459 48.3027 359.244 48.4238C359.033 48.541 358.867 48.709 358.746 48.9277C358.629 49.1465 358.57 49.4062 358.57 49.707C358.57 50 358.629 50.2559 358.746 50.4746C358.867 50.6934 359.035 50.8633 359.25 50.9844C359.465 51.1055 359.715 51.166 360 51.166C360.285 51.166 360.533 51.1055 360.744 50.9844C360.959 50.8633 361.127 50.6934 361.248 50.4746C361.369 50.2559 361.43 50 361.43 49.707Z" fill="white" fill-opacity="0.24"/>
<path d="M399.814 31.4317C399.976 30.7652 400.049 30.7292 400.751 30.7292H403.093C405.128 30.7292 405.128 32.4584 405.128 32.6205C405.128 34.0795 403.669 35.9348 401.291 35.9348H398.698L399.814 31.4317ZM402.858 36.0789C404.822 35.7187 406.605 34.3497 406.605 32.6926C406.605 31.2876 405.362 30.2068 403.327 30.2068H397.545C397.203 30.2068 397.04 30.2068 397.04 30.5491C397.04 30.7292 397.203 30.7292 397.473 30.7292C398.572 30.7292 398.572 30.8733 398.572 31.0714C398.572 31.1075 398.572 31.2155 398.499 31.4857L396.068 41.1764C395.906 41.8069 395.87 41.987 394.609 41.987C394.267 41.987 394.086 41.987 394.086 42.3112C394.086 42.5094 394.195 42.5094 394.555 42.5094H400.733C403.489 42.5094 405.614 40.4199 405.614 38.6007C405.614 37.1236 404.318 36.223 402.858 36.0789ZM400.301 41.987H397.869C397.617 41.987 397.581 41.987 397.473 41.969C397.275 41.951 397.257 41.9149 397.257 41.7708C397.257 41.6448 397.293 41.5367 397.329 41.3746L398.59 36.2951H401.976C404.101 36.2951 404.101 38.2764 404.101 38.4205C404.101 40.1497 402.534 41.987 400.301 41.987Z" fill="white"/>
<path d="M392 52H384V20H416V52H408" stroke="white" stroke-opacity="0.24"/>
<path d="M398.412 55.0918H398.523C399.148 55.0918 399.656 55.0039 400.047 54.8281C400.438 54.6523 400.738 54.416 400.949 54.1191C401.16 53.8223 401.305 53.4883 401.383 53.1172C401.461 52.7422 401.5 52.3574 401.5 51.9629V50.6562C401.5 50.2695 401.455 49.9258 401.365 49.625C401.279 49.3242 401.158 49.0723 401.002 48.8691C400.85 48.666 400.676 48.5117 400.48 48.4062C400.285 48.3008 400.078 48.248 399.859 48.248C399.609 48.248 399.385 48.2988 399.186 48.4004C398.99 48.498 398.824 48.6367 398.688 48.8164C398.555 48.9961 398.453 49.207 398.383 49.4492C398.312 49.6914 398.277 49.9551 398.277 50.2402C398.277 50.4941 398.309 50.7402 398.371 50.9785C398.434 51.2168 398.529 51.4316 398.658 51.623C398.787 51.8145 398.947 51.9668 399.139 52.0801C399.334 52.1895 399.562 52.2441 399.824 52.2441C400.066 52.2441 400.293 52.1973 400.504 52.1035C400.719 52.0059 400.908 51.875 401.072 51.7109C401.24 51.543 401.373 51.3535 401.471 51.1426C401.572 50.9316 401.631 50.7109 401.646 50.4805H402.162C402.162 50.8047 402.098 51.125 401.969 51.4414C401.844 51.7539 401.668 52.0391 401.441 52.2969C401.215 52.5547 400.949 52.7617 400.645 52.918C400.34 53.0703 400.008 53.1465 399.648 53.1465C399.227 53.1465 398.861 53.0645 398.553 52.9004C398.244 52.7363 397.99 52.5176 397.791 52.2441C397.596 51.9707 397.449 51.666 397.352 51.3301C397.258 50.9902 397.211 50.6465 397.211 50.2988C397.211 49.8926 397.268 49.5117 397.381 49.1562C397.494 48.8008 397.662 48.4883 397.885 48.2188C398.107 47.9453 398.383 47.7324 398.711 47.5801C399.043 47.4277 399.426 47.3516 399.859 47.3516C400.348 47.3516 400.764 47.4492 401.107 47.6445C401.451 47.8398 401.73 48.1016 401.945 48.4297C402.164 48.7578 402.324 49.127 402.426 49.5371C402.527 49.9473 402.578 50.3691 402.578 50.8027V51.1953C402.578 51.6367 402.549 52.0859 402.49 52.543C402.436 52.9961 402.328 53.4297 402.168 53.8438C402.012 54.2578 401.783 54.6289 401.482 54.957C401.182 55.2812 400.789 55.5391 400.305 55.7305C399.824 55.918 399.23 56.0117 398.523 56.0117H398.412V55.0918Z" fill="white" fill-opacity="0.24"/>
<path d="M441.609 36.0242C441.609 34.6553 441.429 32.4217 440.42 30.3323C439.358 28.1708 437.881 27 437.682 27C437.61 27 437.52 27.036 437.52 27.1441C437.52 27.1981 437.52 27.2342 437.826 27.5404C439.628 29.3596 440.636 32.3317 440.636 36.0062C440.636 39.5006 439.79 42.5087 437.7 44.6342C437.52 44.7963 437.52 44.8323 437.52 44.8864C437.52 44.9944 437.61 45.0305 437.682 45.0305C437.917 45.0305 439.394 43.7336 440.276 41.9684C441.195 40.1311 441.609 38.1857 441.609 36.0242Z" fill="white"/>
<path d="M432 52H424V20H456V52H448" stroke="white" stroke-opacity="0.24"/>
<path d="M437.521 47.4219V56H436.438V48.7754L434.252 49.5723V48.5938L437.352 47.4219H437.521ZM446.064 51.0547V52.3555C446.064 53.0547 446.002 53.6445 445.877 54.125C445.752 54.6055 445.572 54.9922 445.338 55.2852C445.104 55.5781 444.82 55.791 444.488 55.9238C444.16 56.0527 443.789 56.1172 443.375 56.1172C443.047 56.1172 442.744 56.0762 442.467 55.9941C442.189 55.9121 441.939 55.7812 441.717 55.6016C441.498 55.418 441.311 55.1797 441.154 54.8867C440.998 54.5938 440.879 54.2383 440.797 53.8203C440.715 53.4023 440.674 52.9141 440.674 52.3555V51.0547C440.674 50.3555 440.736 49.7695 440.861 49.2969C440.99 48.8242 441.172 48.4453 441.406 48.1602C441.641 47.8711 441.922 47.6641 442.25 47.5391C442.582 47.4141 442.953 47.3516 443.363 47.3516C443.695 47.3516 444 47.3926 444.277 47.4746C444.559 47.5527 444.809 47.6797 445.027 47.8555C445.246 48.0273 445.432 48.2578 445.584 48.5469C445.74 48.832 445.859 49.1816 445.941 49.5957C446.023 50.0098 446.064 50.4961 446.064 51.0547ZM444.975 52.5312V50.873C444.975 50.4902 444.951 50.1543 444.904 49.8652C444.861 49.5723 444.797 49.3223 444.711 49.1152C444.625 48.9082 444.516 48.7402 444.383 48.6113C444.254 48.4824 444.104 48.3887 443.932 48.3301C443.764 48.2676 443.574 48.2363 443.363 48.2363C443.105 48.2363 442.877 48.2852 442.678 48.3828C442.479 48.4766 442.311 48.627 442.174 48.834C442.041 49.041 441.939 49.3125 441.869 49.6484C441.799 49.9844 441.764 50.3926 441.764 50.873V52.5312C441.764 52.9141 441.785 53.252 441.828 53.5449C441.875 53.8379 441.943 54.0918 442.033 54.3066C442.123 54.5176 442.232 54.6914 442.361 54.8281C442.49 54.9648 442.639 55.0664 442.807 55.1328C442.979 55.1953 443.168 55.2266 443.375 55.2266C443.641 55.2266 443.873 55.1758 444.072 55.0742C444.271 54.9727 444.438 54.8145 444.57 54.5996C444.707 54.3809 444.809 54.1016 444.875 53.7617C444.941 53.418 444.975 53.0078 444.975 52.5312Z" fill="white" fill-opacity="0.24"/>
<path d="M43.1879 78.6193C43.9444 79.2677 44.8631 79.736 45.4575 80.0062C44.809 80.2944 43.9264 80.7627 43.1879 81.3932H31.75C31.4438 81.3932 31.1016 81.3932 31.1016 81.7534C31.1016 82.1137 31.4258 82.1137 31.732 82.1137H42.3774C41.5128 82.9422 40.5761 84.5273 40.5761 84.7615C40.5761 84.9596 40.8103 84.9596 40.9183 84.9596C41.0624 84.9596 41.1885 84.9596 41.2606 84.8155C41.6388 84.1311 42.1432 83.1764 43.314 82.1317C44.5569 81.0329 45.7637 80.5466 46.7003 80.2764C47.0066 80.1683 47.0246 80.1503 47.0606 80.1143C47.0966 80.0963 47.0966 80.0422 47.0966 80.0062C47.0966 79.9702 47.0966 79.9342 47.0786 79.8981L47.0246 79.8621C46.9885 79.8441 46.9705 79.8261 46.6283 79.718C44.1966 78.9975 42.3954 77.3584 41.3867 75.4311C41.1885 75.0708 41.1705 75.0528 40.9183 75.0528C40.8103 75.0528 40.5761 75.0528 40.5761 75.2509C40.5761 75.4851 41.4947 77.0522 42.3774 77.8988H31.732C31.4258 77.8988 31.1016 77.8988 31.1016 78.259C31.1016 78.6193 31.4438 78.6193 31.75 78.6193H43.1879Z" fill="white"/>
<path d="M32 96H24V64H56V96H48" stroke="white" stroke-opacity="0.24"/>
<path d="M37.5215 91.4219V100H36.4375V92.7754L34.252 93.5723V92.5938L37.3516 91.4219H37.5215ZM44.2715 91.4219V100H43.1875V92.7754L41.002 93.5723V92.5938L44.1016 91.4219H44.2715Z" fill="white" fill-opacity="0.24"/>
<path d="M83.1364 74.6572C83.1364 74.0628 83.0824 74.0087 82.506 74.0087H75.7513C75.4451 74.0087 75.1208 74.0087 75.1208 74.369C75.1208 74.7292 75.4451 74.7292 75.7513 74.7292H82.4159V79.8988H76.0035C75.6972 79.8988 75.373 79.8988 75.373 80.2591C75.373 80.6193 75.6972 80.6193 76.0035 80.6193H82.4159V85.7889H75.7513C75.4451 85.7889 75.1208 85.7889 75.1208 86.1491C75.1208 86.5094 75.4451 86.5094 75.7513 86.5094H82.506C83.0824 86.5094 83.1364 86.4553 83.1364 85.8609V74.6572Z" fill="white"/>
<path d="M72 96H64V64H96V96H88" stroke="white" stroke-opacity="0.24"/>
<path d="M77.5215 91.4219V100H76.4375V92.7754L74.252 93.5723V92.5938L77.3516 91.4219H77.5215ZM86.2988 99.1094V100H80.7148V99.2207L83.5098 96.1094C83.8535 95.7266 84.1191 95.4023 84.3066 95.1367C84.498 94.8672 84.6309 94.627 84.7051 94.416C84.7832 94.2012 84.8223 93.9824 84.8223 93.7598C84.8223 93.4785 84.7637 93.2246 84.6465 92.998C84.5332 92.7676 84.3652 92.584 84.1426 92.4473C83.9199 92.3105 83.6504 92.2422 83.334 92.2422C82.9551 92.2422 82.6387 92.3164 82.3848 92.4648C82.1348 92.6094 81.9473 92.8125 81.8223 93.0742C81.6973 93.3359 81.6348 93.6367 81.6348 93.9766H80.5508C80.5508 93.4961 80.6562 93.0566 80.8672 92.6582C81.0781 92.2598 81.3906 91.9434 81.8047 91.709C82.2188 91.4707 82.7285 91.3516 83.334 91.3516C83.873 91.3516 84.334 91.4473 84.7168 91.6387C85.0996 91.8262 85.3926 92.0918 85.5957 92.4355C85.8027 92.7754 85.9062 93.1738 85.9062 93.6309C85.9062 93.8809 85.8633 94.1348 85.7773 94.3926C85.6953 94.6465 85.5801 94.9004 85.4316 95.1543C85.2871 95.4082 85.1172 95.6582 84.9219 95.9043C84.7305 96.1504 84.5254 96.3926 84.3066 96.6309L82.0215 99.1094H86.2988Z" fill="white" fill-opacity="0.24"/>
<path d="M119.559 81.3659C119.469 81.6721 119.469 81.7081 119.216 82.0503C118.82 82.5547 118.028 83.3292 117.181 83.3292C116.443 83.3292 116.028 82.6628 116.028 81.6C116.028 80.6093 116.587 78.5919 116.929 77.8354C117.541 76.5746 118.388 75.9261 119.09 75.9261C120.279 75.9261 120.513 77.4031 120.513 77.5472C120.513 77.5652 120.459 77.7994 120.441 77.8354L119.559 81.3659ZM120.711 76.7547C120.513 76.2864 120.027 75.5659 119.09 75.5659C117.055 75.5659 114.857 78.1957 114.857 80.8615C114.857 82.6448 115.902 83.6895 117.127 83.6895C118.118 83.6895 118.964 82.9149 119.469 82.3205C119.649 83.3833 120.495 83.6895 121.036 83.6895C121.576 83.6895 122.008 83.3652 122.333 82.7168C122.621 82.1044 122.873 81.0056 122.873 80.9336C122.873 80.8435 122.801 80.7715 122.693 80.7715C122.531 80.7715 122.513 80.8615 122.441 81.1317C122.17 82.1944 121.828 83.3292 121.09 83.3292C120.567 83.3292 120.531 82.8609 120.531 82.5007C120.531 82.0864 120.585 81.8882 120.747 81.1857C120.874 80.7354 120.964 80.3392 121.108 79.8168C121.774 77.1149 121.936 76.4665 121.936 76.3584C121.936 76.1062 121.738 75.9081 121.468 75.9081C120.892 75.9081 120.747 76.5385 120.711 76.7547Z" fill="white"/>
<path d="M112 96H104V64H136V96H128" stroke="white" stroke-opacity="0.24"/>
<path d="M117.521 91.4219V100H116.438V92.7754L114.252 93.5723V92.5938L117.352 91.4219H117.521ZM122.291 95.2012H123.064C123.443 95.2012 123.756 95.1387 124.002 95.0137C124.252 94.8848 124.438 94.7109 124.559 94.4922C124.684 94.2695 124.746 94.0195 124.746 93.7422C124.746 93.4141 124.691 93.1387 124.582 92.916C124.473 92.6934 124.309 92.5254 124.09 92.4121C123.871 92.2988 123.594 92.2422 123.258 92.2422C122.953 92.2422 122.684 92.3027 122.449 92.4238C122.219 92.541 122.037 92.709 121.904 92.9277C121.775 93.1465 121.711 93.4043 121.711 93.7012H120.627C120.627 93.2676 120.736 92.873 120.955 92.5176C121.174 92.1621 121.48 91.8789 121.875 91.668C122.273 91.457 122.734 91.3516 123.258 91.3516C123.773 91.3516 124.225 91.4434 124.611 91.627C124.998 91.8066 125.299 92.0762 125.514 92.4355C125.729 92.791 125.836 93.2344 125.836 93.7656C125.836 93.9805 125.785 94.2109 125.684 94.457C125.586 94.6992 125.432 94.9258 125.221 95.1367C125.014 95.3477 124.744 95.5215 124.412 95.6582C124.08 95.791 123.682 95.8574 123.217 95.8574H122.291V95.2012ZM122.291 96.0918V95.4414H123.217C123.76 95.4414 124.209 95.5059 124.564 95.6348C124.92 95.7637 125.199 95.9355 125.402 96.1504C125.609 96.3652 125.754 96.6016 125.836 96.8594C125.922 97.1133 125.965 97.3672 125.965 97.6211C125.965 98.0195 125.896 98.373 125.76 98.6816C125.627 98.9902 125.438 99.252 125.191 99.4668C124.949 99.6816 124.664 99.8438 124.336 99.9531C124.008 100.062 123.65 100.117 123.264 100.117C122.893 100.117 122.543 100.064 122.215 99.959C121.891 99.8535 121.604 99.7012 121.354 99.502C121.104 99.2988 120.908 99.0508 120.768 98.7578C120.627 98.4609 120.557 98.123 120.557 97.7441H121.641C121.641 98.041 121.705 98.3008 121.834 98.5234C121.967 98.7461 122.154 98.9199 122.396 99.0449C122.643 99.166 122.932 99.2266 123.264 99.2266C123.596 99.2266 123.881 99.1699 124.119 99.0566C124.361 98.9395 124.547 98.7637 124.676 98.5293C124.809 98.2949 124.875 98 124.875 97.6445C124.875 97.2891 124.801 96.998 124.652 96.7715C124.504 96.541 124.293 96.3711 124.02 96.2617C123.75 96.1484 123.432 96.0918 123.064 96.0918H122.291Z" fill="white" fill-opacity="0.24"/>
<path d="M161.253 88.8864C161.253 88.8323 161.253 88.7963 160.947 88.4901C159.145 86.6708 158.137 83.6988 158.137 80.0242C158.137 76.5298 158.983 73.5217 161.073 71.3963C161.253 71.2342 161.253 71.1981 161.253 71.1441C161.253 71.036 161.163 71 161.091 71C160.857 71 159.38 72.2969 158.497 74.0621C157.578 75.8814 157.164 77.8087 157.164 80.0242C157.164 81.6273 157.416 83.7708 158.353 85.6982C159.416 87.8597 160.893 89.0305 161.091 89.0305C161.163 89.0305 161.253 88.9944 161.253 88.8864Z" fill="white"/>
<path d="M152 96H144V64H176V96H168" stroke="white" stroke-opacity="0.24"/>
<path d="M157.521 91.4219V100H156.438V92.7754L154.252 93.5723V92.5938L157.352 91.4219H157.521ZM166.475 97.1289V98.0195H160.311V97.3809L164.131 91.4688H165.016L164.066 93.1797L161.541 97.1289H166.475ZM165.285 91.4688V100H164.201V91.4688H165.285Z" fill="white" fill-opacity="0.24"/>
<path d="M195.32 84.5099C194.689 85.5727 194.077 85.9329 193.212 85.987C193.014 86.005 192.87 86.005 192.87 86.3292C192.87 86.4373 192.96 86.5093 193.086 86.5093C193.41 86.5093 194.221 86.4733 194.545 86.4733C195.068 86.4733 195.644 86.5093 196.148 86.5093C196.256 86.5093 196.473 86.5093 196.473 86.1671C196.473 86.005 196.329 85.987 196.22 85.987C195.806 85.9509 195.464 85.8068 195.464 85.3745C195.464 85.1224 195.572 84.9242 195.806 84.528L197.175 82.2584H201.768C201.786 82.4205 201.786 82.5646 201.804 82.7267C201.858 83.195 202.074 85.0683 202.074 85.4106C202.074 85.9509 201.156 85.987 200.868 85.987C200.67 85.987 200.471 85.987 200.471 86.3112C200.471 86.5093 200.633 86.5093 200.742 86.5093C201.048 86.5093 201.408 86.4733 201.714 86.4733H202.741C203.84 86.4733 204.632 86.5093 204.65 86.5093C204.776 86.5093 204.974 86.5093 204.974 86.1671C204.974 85.987 204.812 85.987 204.542 85.987C203.552 85.987 203.533 85.8249 203.479 85.2845L202.381 74.0447C202.345 73.6845 202.273 73.6484 202.074 73.6484C201.894 73.6484 201.786 73.6845 201.624 73.9546L195.32 84.5099ZM197.481 81.736L201.102 75.6838L201.714 81.736H197.481Z" fill="white"/>
<path d="M192 96H184V64H216V96H208" stroke="white" stroke-opacity="0.24"/>
<path d="M197.521 91.4219V100H196.438V92.7754L194.252 93.5723V92.5938L197.352 91.4219H197.521ZM202.08 95.9395L201.213 95.7168L201.641 91.4688H206.018V92.4707H202.561L202.303 94.791C202.459 94.7012 202.656 94.6172 202.895 94.5391C203.137 94.4609 203.414 94.4219 203.727 94.4219C204.121 94.4219 204.475 94.4902 204.787 94.627C205.1 94.7598 205.365 94.9512 205.584 95.2012C205.807 95.4512 205.977 95.752 206.094 96.1035C206.211 96.4551 206.27 96.8477 206.27 97.2812C206.27 97.6914 206.213 98.0684 206.1 98.4121C205.99 98.7559 205.824 99.0566 205.602 99.3145C205.379 99.5684 205.098 99.7656 204.758 99.9062C204.422 100.047 204.025 100.117 203.568 100.117C203.225 100.117 202.898 100.07 202.59 99.9766C202.285 99.8789 202.012 99.7324 201.77 99.5371C201.531 99.3379 201.336 99.0918 201.184 98.7988C201.035 98.502 200.941 98.1543 200.902 97.7559H201.934C201.98 98.0762 202.074 98.3457 202.215 98.5645C202.355 98.7832 202.539 98.9492 202.766 99.0625C202.996 99.1719 203.264 99.2266 203.568 99.2266C203.826 99.2266 204.055 99.1816 204.254 99.0918C204.453 99.002 204.621 98.873 204.758 98.7051C204.895 98.5371 204.998 98.334 205.068 98.0957C205.143 97.8574 205.18 97.5898 205.18 97.293C205.18 97.0234 205.143 96.7734 205.068 96.543C204.994 96.3125 204.883 96.1113 204.734 95.9395C204.59 95.7676 204.412 95.6348 204.201 95.541C203.99 95.4434 203.748 95.3945 203.475 95.3945C203.111 95.3945 202.836 95.4434 202.648 95.541C202.465 95.6387 202.275 95.7715 202.08 95.9395Z" fill="white" fill-opacity="0.24"/>
<path d="M238.072 75.4317C238.234 74.7652 238.306 74.7292 239.008 74.7292H241.35C243.385 74.7292 243.385 76.4584 243.385 76.6205C243.385 78.0795 241.926 79.9348 239.549 79.9348H236.955L238.072 75.4317ZM241.116 80.0789C243.079 79.7187 244.862 78.3497 244.862 76.6926C244.862 75.2876 243.62 74.2068 241.584 74.2068H235.802C235.46 74.2068 235.298 74.2068 235.298 74.5491C235.298 74.7292 235.46 74.7292 235.73 74.7292C236.829 74.7292 236.829 74.8733 236.829 75.0714C236.829 75.1075 236.829 75.2155 236.757 75.4857L234.325 85.1764C234.163 85.8069 234.127 85.987 232.866 85.987C232.524 85.987 232.344 85.987 232.344 86.3112C232.344 86.5094 232.452 86.5094 232.812 86.5094H238.99C241.746 86.5094 243.872 84.4199 243.872 82.6007C243.872 81.1236 242.575 80.223 241.116 80.0789ZM238.558 85.987H236.126C235.874 85.987 235.838 85.987 235.73 85.969C235.532 85.951 235.514 85.9149 235.514 85.7708C235.514 85.6448 235.55 85.5367 235.586 85.3746L236.847 80.2951H240.233C242.359 80.2951 242.359 82.2764 242.359 82.4205C242.359 84.1497 240.792 85.987 238.558 85.987Z" fill="white"/>
<path d="M232 96H224V64H256V96H248" stroke="white" stroke-opacity="0.24"/>
<path d="M237.521 91.4219V100H236.438V92.7754L234.252 93.5723V92.5938L237.352 91.4219H237.521ZM244.869 91.457H244.963V92.377H244.869C244.295 92.377 243.814 92.4707 243.428 92.6582C243.041 92.8418 242.734 93.0898 242.508 93.4023C242.281 93.7109 242.117 94.0586 242.016 94.4453C241.918 94.832 241.869 95.2246 241.869 95.623V96.877C241.869 97.2559 241.914 97.5918 242.004 97.8848C242.094 98.1738 242.217 98.418 242.373 98.6172C242.529 98.8164 242.705 98.9668 242.9 99.0684C243.1 99.1699 243.307 99.2207 243.521 99.2207C243.771 99.2207 243.994 99.1738 244.189 99.0801C244.385 98.9824 244.549 98.8477 244.682 98.6758C244.818 98.5 244.922 98.293 244.992 98.0547C245.062 97.8164 245.098 97.5547 245.098 97.2695C245.098 97.0156 245.066 96.7715 245.004 96.5371C244.941 96.2988 244.846 96.0879 244.717 95.9043C244.588 95.7168 244.426 95.5703 244.23 95.4648C244.039 95.3555 243.811 95.3008 243.545 95.3008C243.244 95.3008 242.963 95.375 242.701 95.5234C242.443 95.668 242.23 95.8594 242.062 96.0977C241.898 96.332 241.805 96.5879 241.781 96.8652L241.207 96.8594C241.262 96.4219 241.363 96.0488 241.512 95.7402C241.664 95.4277 241.852 95.1738 242.074 94.9785C242.301 94.7793 242.553 94.6348 242.83 94.5449C243.111 94.4512 243.408 94.4043 243.721 94.4043C244.146 94.4043 244.514 94.4844 244.822 94.6445C245.131 94.8047 245.385 95.0195 245.584 95.2891C245.783 95.5547 245.93 95.8555 246.023 96.1914C246.121 96.5234 246.17 96.8652 246.17 97.2168C246.17 97.6191 246.113 97.9961 246 98.3477C245.887 98.6992 245.717 99.0078 245.49 99.2734C245.268 99.5391 244.992 99.7461 244.664 99.8945C244.336 100.043 243.955 100.117 243.521 100.117C243.061 100.117 242.658 100.023 242.314 99.8359C241.971 99.6445 241.686 99.3906 241.459 99.0742C241.232 98.7578 241.062 98.4062 240.949 98.0195C240.836 97.6328 240.779 97.2402 240.779 96.8418V96.332C240.779 95.7305 240.84 95.1406 240.961 94.5625C241.082 93.9844 241.291 93.4609 241.588 92.9922C241.889 92.5234 242.305 92.1504 242.836 91.873C243.367 91.5957 244.045 91.457 244.869 91.457Z" fill="white" fill-opacity="0.24"/>
<path d="M283.949 78.6733C284.201 78.6733 284.525 78.6733 284.525 78.3491C284.525 78.0069 284.219 78.0069 283.949 78.0069H273.339C273.087 78.0069 272.763 78.0069 272.763 78.3311C272.763 78.6733 273.069 78.6733 273.339 78.6733H283.949ZM283.949 82.0236C284.201 82.0236 284.525 82.0236 284.525 81.6994C284.525 81.3572 284.219 81.3572 283.949 81.3572H273.339C273.087 81.3572 272.763 81.3572 272.763 81.6814C272.763 82.0236 273.069 82.0236 273.339 82.0236H283.949Z" fill="white"/>
<path d="M272 96H264V64H296V96H288" stroke="white" stroke-opacity="0.24"/>
<path d="M277.521 91.4219V100H276.438V92.7754L274.252 93.5723V92.5938L277.352 91.4219H277.521ZM286.223 91.4688V92.0781L282.689 100H281.547L285.074 92.3594H280.457V91.4688H286.223Z" fill="white" fill-opacity="0.24"/>
<path d="M319.933 81.3659C319.843 81.6721 319.843 81.7081 319.591 82.0503C319.195 82.5547 318.402 83.3292 317.556 83.3292C316.817 83.3292 316.403 82.6628 316.403 81.6C316.403 80.6093 316.961 78.5919 317.303 77.8354C317.916 76.5746 318.762 75.9261 319.465 75.9261C320.654 75.9261 320.888 77.4031 320.888 77.5472C320.888 77.5652 320.834 77.7994 320.816 77.8354L319.933 81.3659ZM321.086 76.7547C320.888 76.2864 320.402 75.5659 319.465 75.5659C317.429 75.5659 315.232 78.1957 315.232 80.8615C315.232 82.6448 316.277 83.6895 317.502 83.6895C318.492 83.6895 319.339 82.9149 319.843 82.3205C320.023 83.3833 320.87 83.6895 321.41 83.6895C321.951 83.6895 322.383 83.3652 322.707 82.7168C322.995 82.1044 323.247 81.0056 323.247 80.9336C323.247 80.8435 323.175 80.7715 323.067 80.7715C322.905 80.7715 322.887 80.8615 322.815 81.1317C322.545 82.1944 322.203 83.3292 321.464 83.3292C320.942 83.3292 320.906 82.8609 320.906 82.5007C320.906 82.0864 320.96 81.8882 321.122 81.1857C321.248 80.7354 321.338 80.3392 321.482 79.8168C322.149 77.1149 322.311 76.4665 322.311 76.3584C322.311 76.1062 322.113 75.9081 321.843 75.9081C321.266 75.9081 321.122 76.5385 321.086 76.7547Z" fill="white"/>
<path d="M312 96H304V64H336V96H328" stroke="white" stroke-opacity="0.24"/>
<path d="M317.521 91.4219V100H316.438V92.7754L314.252 93.5723V92.5938L317.352 91.4219H317.521ZM326.088 97.6914C326.088 98.2109 325.967 98.6523 325.725 99.0156C325.486 99.375 325.162 99.6484 324.752 99.8359C324.346 100.023 323.887 100.117 323.375 100.117C322.863 100.117 322.402 100.023 321.992 99.8359C321.582 99.6484 321.258 99.375 321.02 99.0156C320.781 98.6523 320.662 98.2109 320.662 97.6914C320.662 97.3516 320.727 97.041 320.855 96.7598C320.988 96.4746 321.174 96.2266 321.412 96.0156C321.654 95.8047 321.939 95.6426 322.268 95.5293C322.6 95.4121 322.965 95.3535 323.363 95.3535C323.887 95.3535 324.354 95.4551 324.764 95.6582C325.174 95.8574 325.496 96.1328 325.73 96.4844C325.969 96.8359 326.088 97.2383 326.088 97.6914ZM324.998 97.668C324.998 97.3516 324.93 97.0723 324.793 96.8301C324.656 96.584 324.465 96.3926 324.219 96.2559C323.973 96.1191 323.688 96.0508 323.363 96.0508C323.031 96.0508 322.744 96.1191 322.502 96.2559C322.264 96.3926 322.078 96.584 321.945 96.8301C321.812 97.0723 321.746 97.3516 321.746 97.668C321.746 97.9961 321.811 98.2773 321.939 98.5117C322.072 98.7422 322.26 98.9199 322.502 99.0449C322.748 99.166 323.039 99.2266 323.375 99.2266C323.711 99.2266 324 99.166 324.242 99.0449C324.484 98.9199 324.67 98.7422 324.799 98.5117C324.932 98.2773 324.998 97.9961 324.998 97.668ZM325.889 93.6895C325.889 94.1035 325.779 94.4766 325.561 94.8086C325.342 95.1406 325.043 95.4023 324.664 95.5938C324.285 95.7852 323.855 95.8809 323.375 95.8809C322.887 95.8809 322.451 95.7852 322.068 95.5938C321.689 95.4023 321.393 95.1406 321.178 94.8086C320.963 94.4766 320.855 94.1035 320.855 93.6895C320.855 93.1934 320.963 92.7715 321.178 92.4238C321.396 92.0762 321.695 91.8105 322.074 91.627C322.453 91.4434 322.885 91.3516 323.369 91.3516C323.857 91.3516 324.291 91.4434 324.67 91.627C325.049 91.8105 325.346 92.0762 325.561 92.4238C325.779 92.7715 325.889 93.1934 325.889 93.6895ZM324.805 93.707C324.805 93.4219 324.744 93.1699 324.623 92.9512C324.502 92.7324 324.334 92.5605 324.119 92.4355C323.904 92.3066 323.654 92.2422 323.369 92.2422C323.084 92.2422 322.834 92.3027 322.619 92.4238C322.408 92.541 322.242 92.709 322.121 92.9277C322.004 93.1465 321.945 93.4062 321.945 93.707C321.945 94 322.004 94.2559 322.121 94.4746C322.242 94.6934 322.41 94.8633 322.625 94.9844C322.84 95.1055 323.09 95.166 323.375 95.166C323.66 95.166 323.908 95.1055 324.119 94.9844C324.334 94.8633 324.502 94.6934 324.623 94.4746C324.744 94.2559 324.805 94 324.805 93.707Z" fill="white" fill-opacity="0.24"/>
<path d="M360.849 80.0242C360.849 78.6553 360.669 76.4217 359.66 74.3323C358.598 72.1708 357.121 71 356.922 71C356.85 71 356.76 71.036 356.76 71.1441C356.76 71.1981 356.76 71.2342 357.066 71.5404C358.868 73.3596 359.876 76.3317 359.876 80.0062C359.876 83.5006 359.03 86.5087 356.94 88.6342C356.76 88.7963 356.76 88.8323 356.76 88.8864C356.76 88.9944 356.85 89.0305 356.922 89.0305C357.157 89.0305 358.634 87.7336 359.516 85.9684C360.435 84.1311 360.849 82.1857 360.849 80.0242Z" fill="white"/>
<path d="M352 96H344V64H376V96H368" stroke="white" stroke-opacity="0.24"/>
<path d="M357.521 91.4219V100H356.438V92.7754L354.252 93.5723V92.5938L357.352 91.4219H357.521ZM361.787 99.0918H361.898C362.523 99.0918 363.031 99.0039 363.422 98.8281C363.812 98.6523 364.113 98.416 364.324 98.1191C364.535 97.8223 364.68 97.4883 364.758 97.1172C364.836 96.7422 364.875 96.3574 364.875 95.9629V94.6562C364.875 94.2695 364.83 93.9258 364.74 93.625C364.654 93.3242 364.533 93.0723 364.377 92.8691C364.225 92.666 364.051 92.5117 363.855 92.4062C363.66 92.3008 363.453 92.248 363.234 92.248C362.984 92.248 362.76 92.2988 362.561 92.4004C362.365 92.498 362.199 92.6367 362.062 92.8164C361.93 92.9961 361.828 93.207 361.758 93.4492C361.688 93.6914 361.652 93.9551 361.652 94.2402C361.652 94.4941 361.684 94.7402 361.746 94.9785C361.809 95.2168 361.904 95.4316 362.033 95.623C362.162 95.8145 362.322 95.9668 362.514 96.0801C362.709 96.1895 362.938 96.2441 363.199 96.2441C363.441 96.2441 363.668 96.1973 363.879 96.1035C364.094 96.0059 364.283 95.875 364.447 95.7109C364.615 95.543 364.748 95.3535 364.846 95.1426C364.947 94.9316 365.006 94.7109 365.021 94.4805H365.537C365.537 94.8047 365.473 95.125 365.344 95.4414C365.219 95.7539 365.043 96.0391 364.816 96.2969C364.59 96.5547 364.324 96.7617 364.02 96.918C363.715 97.0703 363.383 97.1465 363.023 97.1465C362.602 97.1465 362.236 97.0645 361.928 96.9004C361.619 96.7363 361.365 96.5176 361.166 96.2441C360.971 95.9707 360.824 95.666 360.727 95.3301C360.633 94.9902 360.586 94.6465 360.586 94.2988C360.586 93.8926 360.643 93.5117 360.756 93.1562C360.869 92.8008 361.037 92.4883 361.26 92.2188C361.482 91.9453 361.758 91.7324 362.086 91.5801C362.418 91.4277 362.801 91.3516 363.234 91.3516C363.723 91.3516 364.139 91.4492 364.482 91.6445C364.826 91.8398 365.105 92.1016 365.32 92.4297C365.539 92.7578 365.699 93.127 365.801 93.5371C365.902 93.9473 365.953 94.3691 365.953 94.8027V95.1953C365.953 95.6367 365.924 96.0859 365.865 96.543C365.811 96.9961 365.703 97.4297 365.543 97.8438C365.387 98.2578 365.158 98.6289 364.857 98.957C364.557 99.2812 364.164 99.5391 363.68 99.7305C363.199 99.918 362.605 100.012 361.898 100.012H361.787V99.0918Z" fill="white" fill-opacity="0.24"/>
<path d="M400.849 80.0242C400.849 78.6553 400.669 76.4217 399.66 74.3323C398.598 72.1708 397.121 71 396.922 71C396.85 71 396.76 71.036 396.76 71.1441C396.76 71.1981 396.76 71.2342 397.066 71.5404C398.868 73.3596 399.876 76.3317 399.876 80.0062C399.876 83.5006 399.03 86.5087 396.94 88.6342C396.76 88.7963 396.76 88.8323 396.76 88.8864C396.76 88.9944 396.85 89.0305 396.922 89.0305C397.157 89.0305 398.634 87.7336 399.516 85.9684C400.435 84.1311 400.849 82.1857 400.849 80.0242Z" fill="white"/>
<path d="M392 96H384V64H416V96H408" stroke="white" stroke-opacity="0.24"/>
<path d="M399.549 99.1094V100H393.965V99.2207L396.76 96.1094C397.104 95.7266 397.369 95.4023 397.557 95.1367C397.748 94.8672 397.881 94.627 397.955 94.416C398.033 94.2012 398.072 93.9824 398.072 93.7598C398.072 93.4785 398.014 93.2246 397.896 92.998C397.783 92.7676 397.615 92.584 397.393 92.4473C397.17 92.3105 396.9 92.2422 396.584 92.2422C396.205 92.2422 395.889 92.3164 395.635 92.4648C395.385 92.6094 395.197 92.8125 395.072 93.0742C394.947 93.3359 394.885 93.6367 394.885 93.9766H393.801C393.801 93.4961 393.906 93.0566 394.117 92.6582C394.328 92.2598 394.641 91.9434 395.055 91.709C395.469 91.4707 395.979 91.3516 396.584 91.3516C397.123 91.3516 397.584 91.4473 397.967 91.6387C398.35 91.8262 398.643 92.0918 398.846 92.4355C399.053 92.7754 399.156 93.1738 399.156 93.6309C399.156 93.8809 399.113 94.1348 399.027 94.3926C398.945 94.6465 398.83 94.9004 398.682 95.1543C398.537 95.4082 398.367 95.6582 398.172 95.9043C397.98 96.1504 397.775 96.3926 397.557 96.6309L395.271 99.1094H399.549ZM406.064 95.0547V96.3555C406.064 97.0547 406.002 97.6445 405.877 98.125C405.752 98.6055 405.572 98.9922 405.338 99.2852C405.104 99.5781 404.82 99.791 404.488 99.9238C404.16 100.053 403.789 100.117 403.375 100.117C403.047 100.117 402.744 100.076 402.467 99.9941C402.189 99.9121 401.939 99.7812 401.717 99.6016C401.498 99.418 401.311 99.1797 401.154 98.8867C400.998 98.5938 400.879 98.2383 400.797 97.8203C400.715 97.4023 400.674 96.9141 400.674 96.3555V95.0547C400.674 94.3555 400.736 93.7695 400.861 93.2969C400.99 92.8242 401.172 92.4453 401.406 92.1602C401.641 91.8711 401.922 91.6641 402.25 91.5391C402.582 91.4141 402.953 91.3516 403.363 91.3516C403.695 91.3516 404 91.3926 404.277 91.4746C404.559 91.5527 404.809 91.6797 405.027 91.8555C405.246 92.0273 405.432 92.2578 405.584 92.5469C405.74 92.832 405.859 93.1816 405.941 93.5957C406.023 94.0098 406.064 94.4961 406.064 95.0547ZM404.975 96.5312V94.873C404.975 94.4902 404.951 94.1543 404.904 93.8652C404.861 93.5723 404.797 93.3223 404.711 93.1152C404.625 92.9082 404.516 92.7402 404.383 92.6113C404.254 92.4824 404.104 92.3887 403.932 92.3301C403.764 92.2676 403.574 92.2363 403.363 92.2363C403.105 92.2363 402.877 92.2852 402.678 92.3828C402.479 92.4766 402.311 92.627 402.174 92.834C402.041 93.041 401.939 93.3125 401.869 93.6484C401.799 93.9844 401.764 94.3926 401.764 94.873V96.5312C401.764 96.9141 401.785 97.252 401.828 97.5449C401.875 97.8379 401.943 98.0918 402.033 98.3066C402.123 98.5176 402.232 98.6914 402.361 98.8281C402.49 98.9648 402.639 99.0664 402.807 99.1328C402.979 99.1953 403.168 99.2266 403.375 99.2266C403.641 99.2266 403.873 99.1758 404.072 99.0742C404.271 98.9727 404.438 98.8145 404.57 98.5996C404.707 98.3809 404.809 98.1016 404.875 97.7617C404.941 97.418 404.975 97.0078 404.975 96.5312Z" fill="white" fill-opacity="0.24"/>
<path d="M432 96H424V64H456V96H448" stroke="white" stroke-opacity="0.24"/>
<path d="M439.549 99.1094V100H433.965V99.2207L436.76 96.1094C437.104 95.7266 437.369 95.4023 437.557 95.1367C437.748 94.8672 437.881 94.627 437.955 94.416C438.033 94.2012 438.072 93.9824 438.072 93.7598C438.072 93.4785 438.014 93.2246 437.896 92.998C437.783 92.7676 437.615 92.584 437.393 92.4473C437.17 92.3105 436.9 92.2422 436.584 92.2422C436.205 92.2422 435.889 92.3164 435.635 92.4648C435.385 92.6094 435.197 92.8125 435.072 93.0742C434.947 93.3359 434.885 93.6367 434.885 93.9766H433.801C433.801 93.4961 433.906 93.0566 434.117 92.6582C434.328 92.2598 434.641 91.9434 435.055 91.709C435.469 91.4707 435.979 91.3516 436.584 91.3516C437.123 91.3516 437.584 91.4473 437.967 91.6387C438.35 91.8262 438.643 92.0918 438.846 92.4355C439.053 92.7754 439.156 93.1738 439.156 93.6309C439.156 93.8809 439.113 94.1348 439.027 94.3926C438.945 94.6465 438.83 94.9004 438.682 95.1543C438.537 95.4082 438.367 95.6582 438.172 95.9043C437.98 96.1504 437.775 96.3926 437.557 96.6309L435.271 99.1094H439.549ZM446.064 95.0547V96.3555C446.064 97.0547 446.002 97.6445 445.877 98.125C445.752 98.6055 445.572 98.9922 445.338 99.2852C445.104 99.5781 444.82 99.791 444.488 99.9238C444.16 100.053 443.789 100.117 443.375 100.117C443.047 100.117 442.744 100.076 442.467 99.9941C442.189 99.9121 441.939 99.7812 441.717 99.6016C441.498 99.418 441.311 99.1797 441.154 98.8867C440.998 98.5938 440.879 98.2383 440.797 97.8203C440.715 97.4023 440.674 96.9141 440.674 96.3555V95.0547C440.674 94.3555 440.736 93.7695 440.861 93.2969C440.99 92.8242 441.172 92.4453 441.406 92.1602C441.641 91.8711 441.922 91.6641 442.25 91.5391C442.582 91.4141 442.953 91.3516 443.363 91.3516C443.695 91.3516 444 91.3926 444.277 91.4746C444.559 91.5527 444.809 91.6797 445.027 91.8555C445.246 92.0273 445.432 92.2578 445.584 92.5469C445.74 92.832 445.859 93.1816 445.941 93.5957C446.023 94.0098 446.064 94.4961 446.064 95.0547ZM444.975 96.5312V94.873C444.975 94.4902 444.951 94.1543 444.904 93.8652C444.861 93.5723 444.797 93.3223 444.711 93.1152C444.625 92.9082 444.516 92.7402 444.383 92.6113C444.254 92.4824 444.104 92.3887 443.932 92.3301C443.764 92.2676 443.574 92.2363 443.363 92.2363C443.105 92.2363 442.877 92.2852 442.678 92.3828C442.479 92.4766 442.311 92.627 442.174 92.834C442.041 93.041 441.939 93.3125 441.869 93.6484C441.799 93.9844 441.764 94.3926 441.764 94.873V96.5312C441.764 96.9141 441.785 97.252 441.828 97.5449C441.875 97.8379 441.943 98.0918 442.033 98.3066C442.123 98.5176 442.232 98.6914 442.361 98.8281C442.49 98.9648 442.639 99.0664 442.807 99.1328C442.979 99.1953 443.168 99.2266 443.375 99.2266C443.641 99.2266 443.873 99.1758 444.072 99.0742C444.271 98.9727 444.438 98.8145 444.57 98.5996C444.707 98.3809 444.809 98.1016 444.875 97.7617C444.941 97.418 444.975 97.0078 444.975 96.5312Z" fill="white" fill-opacity="0.24"/>
<path d="M32 140H24V108H56V140H48" stroke="white" stroke-opacity="0.24"/>
<path d="M39.5488 143.109V144H33.9648V143.221L36.7598 140.109C37.1035 139.727 37.3691 139.402 37.5566 139.137C37.748 138.867 37.8809 138.627 37.9551 138.416C38.0332 138.201 38.0723 137.982 38.0723 137.76C38.0723 137.479 38.0137 137.225 37.8965 136.998C37.7832 136.768 37.6152 136.584 37.3926 136.447C37.1699 136.311 36.9004 136.242 36.584 136.242C36.2051 136.242 35.8887 136.316 35.6348 136.465C35.3848 136.609 35.1973 136.812 35.0723 137.074C34.9473 137.336 34.8848 137.637 34.8848 137.977H33.8008C33.8008 137.496 33.9062 137.057 34.1172 136.658C34.3281 136.26 34.6406 135.943 35.0547 135.709C35.4688 135.471 35.9785 135.352 36.584 135.352C37.123 135.352 37.584 135.447 37.9668 135.639C38.3496 135.826 38.6426 136.092 38.8457 136.436C39.0527 136.775 39.1562 137.174 39.1562 137.631C39.1562 137.881 39.1133 138.135 39.0273 138.393C38.9453 138.646 38.8301 138.9 38.6816 139.154C38.5371 139.408 38.3672 139.658 38.1719 139.904C37.9805 140.15 37.7754 140.393 37.5566 140.631L35.2715 143.109H39.5488ZM44.2715 135.422V144H43.1875V136.775L41.002 137.572V136.594L44.1016 135.422H44.2715Z" fill="white" fill-opacity="0.24"/>
<path d="M72 140H64V108H96V140H88" stroke="white" stroke-opacity="0.24"/>
<path d="M79.5488 143.109V144H73.9648V143.221L76.7598 140.109C77.1035 139.727 77.3691 139.402 77.5566 139.137C77.748 138.867 77.8809 138.627 77.9551 138.416C78.0332 138.201 78.0723 137.982 78.0723 137.76C78.0723 137.479 78.0137 137.225 77.8965 136.998C77.7832 136.768 77.6152 136.584 77.3926 136.447C77.1699 136.311 76.9004 136.242 76.584 136.242C76.2051 136.242 75.8887 136.316 75.6348 136.465C75.3848 136.609 75.1973 136.812 75.0723 137.074C74.9473 137.336 74.8848 137.637 74.8848 137.977H73.8008C73.8008 137.496 73.9062 137.057 74.1172 136.658C74.3281 136.26 74.6406 135.943 75.0547 135.709C75.4688 135.471 75.9785 135.352 76.584 135.352C77.123 135.352 77.584 135.447 77.9668 135.639C78.3496 135.826 78.6426 136.092 78.8457 136.436C79.0527 136.775 79.1562 137.174 79.1562 137.631C79.1562 137.881 79.1133 138.135 79.0273 138.393C78.9453 138.646 78.8301 138.9 78.6816 139.154C78.5371 139.408 78.3672 139.658 78.1719 139.904C77.9805 140.15 77.7754 140.393 77.5566 140.631L75.2715 143.109H79.5488ZM86.2988 143.109V144H80.7148V143.221L83.5098 140.109C83.8535 139.727 84.1191 139.402 84.3066 139.137C84.498 138.867 84.6309 138.627 84.7051 138.416C84.7832 138.201 84.8223 137.982 84.8223 137.76C84.8223 137.479 84.7637 137.225 84.6465 136.998C84.5332 136.768 84.3652 136.584 84.1426 136.447C83.9199 136.311 83.6504 136.242 83.334 136.242C82.9551 136.242 82.6387 136.316 82.3848 136.465C82.1348 136.609 81.9473 136.812 81.8223 137.074C81.6973 137.336 81.6348 137.637 81.6348 137.977H80.5508C80.5508 137.496 80.6562 137.057 80.8672 136.658C81.0781 136.26 81.3906 135.943 81.8047 135.709C82.2188 135.471 82.7285 135.352 83.334 135.352C83.873 135.352 84.334 135.447 84.7168 135.639C85.0996 135.826 85.3926 136.092 85.5957 136.436C85.8027 136.775 85.9062 137.174 85.9062 137.631C85.9062 137.881 85.8633 138.135 85.7773 138.393C85.6953 138.646 85.5801 138.9 85.4316 139.154C85.2871 139.408 85.1172 139.658 84.9219 139.904C84.7305 140.15 84.5254 140.393 84.3066 140.631L82.0215 143.109H86.2988Z" fill="white" fill-opacity="0.24"/>
<path d="M112 140H104V108H136V140H128" stroke="white" stroke-opacity="0.24"/>
<path d="M119.549 143.109V144H113.965V143.221L116.76 140.109C117.104 139.727 117.369 139.402 117.557 139.137C117.748 138.867 117.881 138.627 117.955 138.416C118.033 138.201 118.072 137.982 118.072 137.76C118.072 137.479 118.014 137.225 117.896 136.998C117.783 136.768 117.615 136.584 117.393 136.447C117.17 136.311 116.9 136.242 116.584 136.242C116.205 136.242 115.889 136.316 115.635 136.465C115.385 136.609 115.197 136.812 115.072 137.074C114.947 137.336 114.885 137.637 114.885 137.977H113.801C113.801 137.496 113.906 137.057 114.117 136.658C114.328 136.26 114.641 135.943 115.055 135.709C115.469 135.471 115.979 135.352 116.584 135.352C117.123 135.352 117.584 135.447 117.967 135.639C118.35 135.826 118.643 136.092 118.846 136.436C119.053 136.775 119.156 137.174 119.156 137.631C119.156 137.881 119.113 138.135 119.027 138.393C118.945 138.646 118.83 138.9 118.682 139.154C118.537 139.408 118.367 139.658 118.172 139.904C117.98 140.15 117.775 140.393 117.557 140.631L115.271 143.109H119.549ZM122.291 139.201H123.064C123.443 139.201 123.756 139.139 124.002 139.014C124.252 138.885 124.438 138.711 124.559 138.492C124.684 138.27 124.746 138.02 124.746 137.742C124.746 137.414 124.691 137.139 124.582 136.916C124.473 136.693 124.309 136.525 124.09 136.412C123.871 136.299 123.594 136.242 123.258 136.242C122.953 136.242 122.684 136.303 122.449 136.424C122.219 136.541 122.037 136.709 121.904 136.928C121.775 137.146 121.711 137.404 121.711 137.701H120.627C120.627 137.268 120.736 136.873 120.955 136.518C121.174 136.162 121.48 135.879 121.875 135.668C122.273 135.457 122.734 135.352 123.258 135.352C123.773 135.352 124.225 135.443 124.611 135.627C124.998 135.807 125.299 136.076 125.514 136.436C125.729 136.791 125.836 137.234 125.836 137.766C125.836 137.98 125.785 138.211 125.684 138.457C125.586 138.699 125.432 138.926 125.221 139.137C125.014 139.348 124.744 139.521 124.412 139.658C124.08 139.791 123.682 139.857 123.217 139.857H122.291V139.201ZM122.291 140.092V139.441H123.217C123.76 139.441 124.209 139.506 124.564 139.635C124.92 139.764 125.199 139.936 125.402 140.15C125.609 140.365 125.754 140.602 125.836 140.859C125.922 141.113 125.965 141.367 125.965 141.621C125.965 142.02 125.896 142.373 125.76 142.682C125.627 142.99 125.438 143.252 125.191 143.467C124.949 143.682 124.664 143.844 124.336 143.953C124.008 144.062 123.65 144.117 123.264 144.117C122.893 144.117 122.543 144.064 122.215 143.959C121.891 143.854 121.604 143.701 121.354 143.502C121.104 143.299 120.908 143.051 120.768 142.758C120.627 142.461 120.557 142.123 120.557 141.744H121.641C121.641 142.041 121.705 142.301 121.834 142.523C121.967 142.746 122.154 142.92 122.396 143.045C122.643 143.166 122.932 143.227 123.264 143.227C123.596 143.227 123.881 143.17 124.119 143.057C124.361 142.939 124.547 142.764 124.676 142.529C124.809 142.295 124.875 142 124.875 141.645C124.875 141.289 124.801 140.998 124.652 140.771C124.504 140.541 124.293 140.371 124.02 140.262C123.75 140.148 123.432 140.092 123.064 140.092H122.291Z" fill="white" fill-opacity="0.24"/>
<path d="M152 140H144V108H176V140H168" stroke="white" stroke-opacity="0.24"/>
<path d="M159.549 143.109V144H153.965V143.221L156.76 140.109C157.104 139.727 157.369 139.402 157.557 139.137C157.748 138.867 157.881 138.627 157.955 138.416C158.033 138.201 158.072 137.982 158.072 137.76C158.072 137.479 158.014 137.225 157.896 136.998C157.783 136.768 157.615 136.584 157.393 136.447C157.17 136.311 156.9 136.242 156.584 136.242C156.205 136.242 155.889 136.316 155.635 136.465C155.385 136.609 155.197 136.812 155.072 137.074C154.947 137.336 154.885 137.637 154.885 137.977H153.801C153.801 137.496 153.906 137.057 154.117 136.658C154.328 136.26 154.641 135.943 155.055 135.709C155.469 135.471 155.979 135.352 156.584 135.352C157.123 135.352 157.584 135.447 157.967 135.639C158.35 135.826 158.643 136.092 158.846 136.436C159.053 136.775 159.156 137.174 159.156 137.631C159.156 137.881 159.113 138.135 159.027 138.393C158.945 138.646 158.83 138.9 158.682 139.154C158.537 139.408 158.367 139.658 158.172 139.904C157.98 140.15 157.775 140.393 157.557 140.631L155.271 143.109H159.549ZM166.475 141.129V142.02H160.311V141.381L164.131 135.469H165.016L164.066 137.18L161.541 141.129H166.475ZM165.285 135.469V144H164.201V135.469H165.285Z" fill="white" fill-opacity="0.24"/>
<path d="M192 140H184V108H216V140H208" stroke="white" stroke-opacity="0.24"/>
<path d="M199.549 143.109V144H193.965V143.221L196.76 140.109C197.104 139.727 197.369 139.402 197.557 139.137C197.748 138.867 197.881 138.627 197.955 138.416C198.033 138.201 198.072 137.982 198.072 137.76C198.072 137.479 198.014 137.225 197.896 136.998C197.783 136.768 197.615 136.584 197.393 136.447C197.17 136.311 196.9 136.242 196.584 136.242C196.205 136.242 195.889 136.316 195.635 136.465C195.385 136.609 195.197 136.812 195.072 137.074C194.947 137.336 194.885 137.637 194.885 137.977H193.801C193.801 137.496 193.906 137.057 194.117 136.658C194.328 136.26 194.641 135.943 195.055 135.709C195.469 135.471 195.979 135.352 196.584 135.352C197.123 135.352 197.584 135.447 197.967 135.639C198.35 135.826 198.643 136.092 198.846 136.436C199.053 136.775 199.156 137.174 199.156 137.631C199.156 137.881 199.113 138.135 199.027 138.393C198.945 138.646 198.83 138.9 198.682 139.154C198.537 139.408 198.367 139.658 198.172 139.904C197.98 140.15 197.775 140.393 197.557 140.631L195.271 143.109H199.549ZM202.08 139.939L201.213 139.717L201.641 135.469H206.018V136.471H202.561L202.303 138.791C202.459 138.701 202.656 138.617 202.895 138.539C203.137 138.461 203.414 138.422 203.727 138.422C204.121 138.422 204.475 138.49 204.787 138.627C205.1 138.76 205.365 138.951 205.584 139.201C205.807 139.451 205.977 139.752 206.094 140.104C206.211 140.455 206.27 140.848 206.27 141.281C206.27 141.691 206.213 142.068 206.1 142.412C205.99 142.756 205.824 143.057 205.602 143.314C205.379 143.568 205.098 143.766 204.758 143.906C204.422 144.047 204.025 144.117 203.568 144.117C203.225 144.117 202.898 144.07 202.59 143.977C202.285 143.879 202.012 143.732 201.77 143.537C201.531 143.338 201.336 143.092 201.184 142.799C201.035 142.502 200.941 142.154 200.902 141.756H201.934C201.98 142.076 202.074 142.346 202.215 142.564C202.355 142.783 202.539 142.949 202.766 143.062C202.996 143.172 203.264 143.227 203.568 143.227C203.826 143.227 204.055 143.182 204.254 143.092C204.453 143.002 204.621 142.873 204.758 142.705C204.895 142.537 204.998 142.334 205.068 142.096C205.143 141.857 205.18 141.59 205.18 141.293C205.18 141.023 205.143 140.773 205.068 140.543C204.994 140.312 204.883 140.111 204.734 139.939C204.59 139.768 204.412 139.635 204.201 139.541C203.99 139.443 203.748 139.395 203.475 139.395C203.111 139.395 202.836 139.443 202.648 139.541C202.465 139.639 202.275 139.771 202.08 139.939Z" fill="white" fill-opacity="0.24"/>
<path d="M232 140H224V108H256V140H248" stroke="white" stroke-opacity="0.24"/>
<path d="M239.549 143.109V144H233.965V143.221L236.76 140.109C237.104 139.727 237.369 139.402 237.557 139.137C237.748 138.867 237.881 138.627 237.955 138.416C238.033 138.201 238.072 137.982 238.072 137.76C238.072 137.479 238.014 137.225 237.896 136.998C237.783 136.768 237.615 136.584 237.393 136.447C237.17 136.311 236.9 136.242 236.584 136.242C236.205 136.242 235.889 136.316 235.635 136.465C235.385 136.609 235.197 136.812 235.072 137.074C234.947 137.336 234.885 137.637 234.885 137.977H233.801C233.801 137.496 233.906 137.057 234.117 136.658C234.328 136.26 234.641 135.943 235.055 135.709C235.469 135.471 235.979 135.352 236.584 135.352C237.123 135.352 237.584 135.447 237.967 135.639C238.35 135.826 238.643 136.092 238.846 136.436C239.053 136.775 239.156 137.174 239.156 137.631C239.156 137.881 239.113 138.135 239.027 138.393C238.945 138.646 238.83 138.9 238.682 139.154C238.537 139.408 238.367 139.658 238.172 139.904C237.98 140.15 237.775 140.393 237.557 140.631L235.271 143.109H239.549ZM244.869 135.457H244.963V136.377H244.869C244.295 136.377 243.814 136.471 243.428 136.658C243.041 136.842 242.734 137.09 242.508 137.402C242.281 137.711 242.117 138.059 242.016 138.445C241.918 138.832 241.869 139.225 241.869 139.623V140.877C241.869 141.256 241.914 141.592 242.004 141.885C242.094 142.174 242.217 142.418 242.373 142.617C242.529 142.816 242.705 142.967 242.9 143.068C243.1 143.17 243.307 143.221 243.521 143.221C243.771 143.221 243.994 143.174 244.189 143.08C244.385 142.982 244.549 142.848 244.682 142.676C244.818 142.5 244.922 142.293 244.992 142.055C245.062 141.816 245.098 141.555 245.098 141.27C245.098 141.016 245.066 140.771 245.004 140.537C244.941 140.299 244.846 140.088 244.717 139.904C244.588 139.717 244.426 139.57 244.23 139.465C244.039 139.355 243.811 139.301 243.545 139.301C243.244 139.301 242.963 139.375 242.701 139.523C242.443 139.668 242.23 139.859 242.062 140.098C241.898 140.332 241.805 140.588 241.781 140.865L241.207 140.859C241.262 140.422 241.363 140.049 241.512 139.74C241.664 139.428 241.852 139.174 242.074 138.979C242.301 138.779 242.553 138.635 242.83 138.545C243.111 138.451 243.408 138.404 243.721 138.404C244.146 138.404 244.514 138.484 244.822 138.645C245.131 138.805 245.385 139.02 245.584 139.289C245.783 139.555 245.93 139.855 246.023 140.191C246.121 140.523 246.17 140.865 246.17 141.217C246.17 141.619 246.113 141.996 246 142.348C245.887 142.699 245.717 143.008 245.49 143.273C245.268 143.539 244.992 143.746 244.664 143.895C244.336 144.043 243.955 144.117 243.521 144.117C243.061 144.117 242.658 144.023 242.314 143.836C241.971 143.645 241.686 143.391 241.459 143.074C241.232 142.758 241.062 142.406 240.949 142.02C240.836 141.633 240.779 141.24 240.779 140.842V140.332C240.779 139.73 240.84 139.141 240.961 138.562C241.082 137.984 241.291 137.461 241.588 136.992C241.889 136.523 242.305 136.15 242.836 135.873C243.367 135.596 244.045 135.457 244.869 135.457Z" fill="white" fill-opacity="0.24"/>
<path d="M272 140H264V108H296V140H288" stroke="white" stroke-opacity="0.24"/>
<path d="M279.549 143.109V144H273.965V143.221L276.76 140.109C277.104 139.727 277.369 139.402 277.557 139.137C277.748 138.867 277.881 138.627 277.955 138.416C278.033 138.201 278.072 137.982 278.072 137.76C278.072 137.479 278.014 137.225 277.896 136.998C277.783 136.768 277.615 136.584 277.393 136.447C277.17 136.311 276.9 136.242 276.584 136.242C276.205 136.242 275.889 136.316 275.635 136.465C275.385 136.609 275.197 136.812 275.072 137.074C274.947 137.336 274.885 137.637 274.885 137.977H273.801C273.801 137.496 273.906 137.057 274.117 136.658C274.328 136.26 274.641 135.943 275.055 135.709C275.469 135.471 275.979 135.352 276.584 135.352C277.123 135.352 277.584 135.447 277.967 135.639C278.35 135.826 278.643 136.092 278.846 136.436C279.053 136.775 279.156 137.174 279.156 137.631C279.156 137.881 279.113 138.135 279.027 138.393C278.945 138.646 278.83 138.9 278.682 139.154C278.537 139.408 278.367 139.658 278.172 139.904C277.98 140.15 277.775 140.393 277.557 140.631L275.271 143.109H279.549ZM286.223 135.469V136.078L282.689 144H281.547L285.074 136.359H280.457V135.469H286.223Z" fill="white" fill-opacity="0.24"/>
<path d="M312 140H304V108H336V140H328" stroke="white" stroke-opacity="0.24"/>
<path d="M319.549 143.109V144H313.965V143.221L316.76 140.109C317.104 139.727 317.369 139.402 317.557 139.137C317.748 138.867 317.881 138.627 317.955 138.416C318.033 138.201 318.072 137.982 318.072 137.76C318.072 137.479 318.014 137.225 317.896 136.998C317.783 136.768 317.615 136.584 317.393 136.447C317.17 136.311 316.9 136.242 316.584 136.242C316.205 136.242 315.889 136.316 315.635 136.465C315.385 136.609 315.197 136.812 315.072 137.074C314.947 137.336 314.885 137.637 314.885 137.977H313.801C313.801 137.496 313.906 137.057 314.117 136.658C314.328 136.26 314.641 135.943 315.055 135.709C315.469 135.471 315.979 135.352 316.584 135.352C317.123 135.352 317.584 135.447 317.967 135.639C318.35 135.826 318.643 136.092 318.846 136.436C319.053 136.775 319.156 137.174 319.156 137.631C319.156 137.881 319.113 138.135 319.027 138.393C318.945 138.646 318.83 138.9 318.682 139.154C318.537 139.408 318.367 139.658 318.172 139.904C317.98 140.15 317.775 140.393 317.557 140.631L315.271 143.109H319.549ZM326.088 141.691C326.088 142.211 325.967 142.652 325.725 143.016C325.486 143.375 325.162 143.648 324.752 143.836C324.346 144.023 323.887 144.117 323.375 144.117C322.863 144.117 322.402 144.023 321.992 143.836C321.582 143.648 321.258 143.375 321.02 143.016C320.781 142.652 320.662 142.211 320.662 141.691C320.662 141.352 320.727 141.041 320.855 140.76C320.988 140.475 321.174 140.227 321.412 140.016C321.654 139.805 321.939 139.643 322.268 139.529C322.6 139.412 322.965 139.354 323.363 139.354C323.887 139.354 324.354 139.455 324.764 139.658C325.174 139.857 325.496 140.133 325.73 140.484C325.969 140.836 326.088 141.238 326.088 141.691ZM324.998 141.668C324.998 141.352 324.93 141.072 324.793 140.83C324.656 140.584 324.465 140.393 324.219 140.256C323.973 140.119 323.688 140.051 323.363 140.051C323.031 140.051 322.744 140.119 322.502 140.256C322.264 140.393 322.078 140.584 321.945 140.83C321.812 141.072 321.746 141.352 321.746 141.668C321.746 141.996 321.811 142.277 321.939 142.512C322.072 142.742 322.26 142.92 322.502 143.045C322.748 143.166 323.039 143.227 323.375 143.227C323.711 143.227 324 143.166 324.242 143.045C324.484 142.92 324.67 142.742 324.799 142.512C324.932 142.277 324.998 141.996 324.998 141.668ZM325.889 137.689C325.889 138.104 325.779 138.477 325.561 138.809C325.342 139.141 325.043 139.402 324.664 139.594C324.285 139.785 323.855 139.881 323.375 139.881C322.887 139.881 322.451 139.785 322.068 139.594C321.689 139.402 321.393 139.141 321.178 138.809C320.963 138.477 320.855 138.104 320.855 137.689C320.855 137.193 320.963 136.771 321.178 136.424C321.396 136.076 321.695 135.811 322.074 135.627C322.453 135.443 322.885 135.352 323.369 135.352C323.857 135.352 324.291 135.443 324.67 135.627C325.049 135.811 325.346 136.076 325.561 136.424C325.779 136.771 325.889 137.193 325.889 137.689ZM324.805 137.707C324.805 137.422 324.744 137.17 324.623 136.951C324.502 136.732 324.334 136.561 324.119 136.436C323.904 136.307 323.654 136.242 323.369 136.242C323.084 136.242 322.834 136.303 322.619 136.424C322.408 136.541 322.242 136.709 322.121 136.928C322.004 137.146 321.945 137.406 321.945 137.707C321.945 138 322.004 138.256 322.121 138.475C322.242 138.693 322.41 138.863 322.625 138.984C322.84 139.105 323.09 139.166 323.375 139.166C323.66 139.166 323.908 139.105 324.119 138.984C324.334 138.863 324.502 138.693 324.623 138.475C324.744 138.256 324.805 138 324.805 137.707Z" fill="white" fill-opacity="0.24"/>
<path d="M352 140H344V108H376V140H368" stroke="white" stroke-opacity="0.24"/>
<path d="M359.549 143.109V144H353.965V143.221L356.76 140.109C357.104 139.727 357.369 139.402 357.557 139.137C357.748 138.867 357.881 138.627 357.955 138.416C358.033 138.201 358.072 137.982 358.072 137.76C358.072 137.479 358.014 137.225 357.896 136.998C357.783 136.768 357.615 136.584 357.393 136.447C357.17 136.311 356.9 136.242 356.584 136.242C356.205 136.242 355.889 136.316 355.635 136.465C355.385 136.609 355.197 136.812 355.072 137.074C354.947 137.336 354.885 137.637 354.885 137.977H353.801C353.801 137.496 353.906 137.057 354.117 136.658C354.328 136.26 354.641 135.943 355.055 135.709C355.469 135.471 355.979 135.352 356.584 135.352C357.123 135.352 357.584 135.447 357.967 135.639C358.35 135.826 358.643 136.092 358.846 136.436C359.053 136.775 359.156 137.174 359.156 137.631C359.156 137.881 359.113 138.135 359.027 138.393C358.945 138.646 358.83 138.9 358.682 139.154C358.537 139.408 358.367 139.658 358.172 139.904C357.98 140.15 357.775 140.393 357.557 140.631L355.271 143.109H359.549ZM361.787 143.092H361.898C362.523 143.092 363.031 143.004 363.422 142.828C363.812 142.652 364.113 142.416 364.324 142.119C364.535 141.822 364.68 141.488 364.758 141.117C364.836 140.742 364.875 140.357 364.875 139.963V138.656C364.875 138.27 364.83 137.926 364.74 137.625C364.654 137.324 364.533 137.072 364.377 136.869C364.225 136.666 364.051 136.512 363.855 136.406C363.66 136.301 363.453 136.248 363.234 136.248C362.984 136.248 362.76 136.299 362.561 136.4C362.365 136.498 362.199 136.637 362.062 136.816C361.93 136.996 361.828 137.207 361.758 137.449C361.688 137.691 361.652 137.955 361.652 138.24C361.652 138.494 361.684 138.74 361.746 138.979C361.809 139.217 361.904 139.432 362.033 139.623C362.162 139.814 362.322 139.967 362.514 140.08C362.709 140.189 362.938 140.244 363.199 140.244C363.441 140.244 363.668 140.197 363.879 140.104C364.094 140.006 364.283 139.875 364.447 139.711C364.615 139.543 364.748 139.354 364.846 139.143C364.947 138.932 365.006 138.711 365.021 138.48H365.537C365.537 138.805 365.473 139.125 365.344 139.441C365.219 139.754 365.043 140.039 364.816 140.297C364.59 140.555 364.324 140.762 364.02 140.918C363.715 141.07 363.383 141.146 363.023 141.146C362.602 141.146 362.236 141.064 361.928 140.9C361.619 140.736 361.365 140.518 361.166 140.244C360.971 139.971 360.824 139.666 360.727 139.33C360.633 138.99 360.586 138.646 360.586 138.299C360.586 137.893 360.643 137.512 360.756 137.156C360.869 136.801 361.037 136.488 361.26 136.219C361.482 135.945 361.758 135.732 362.086 135.58C362.418 135.428 362.801 135.352 363.234 135.352C363.723 135.352 364.139 135.449 364.482 135.645C364.826 135.84 365.105 136.102 365.32 136.43C365.539 136.758 365.699 137.127 365.801 137.537C365.902 137.947 365.953 138.369 365.953 138.803V139.195C365.953 139.637 365.924 140.086 365.865 140.543C365.811 140.996 365.703 141.43 365.543 141.844C365.387 142.258 365.158 142.629 364.857 142.957C364.557 143.281 364.164 143.539 363.68 143.73C363.199 143.918 362.605 144.012 361.898 144.012H361.787V143.092Z" fill="white" fill-opacity="0.24"/>
<path d="M392 140H384V108H416V140H408" stroke="white" stroke-opacity="0.24"/>
<path d="M395.541 139.201H396.314C396.693 139.201 397.006 139.139 397.252 139.014C397.502 138.885 397.688 138.711 397.809 138.492C397.934 138.27 397.996 138.02 397.996 137.742C397.996 137.414 397.941 137.139 397.832 136.916C397.723 136.693 397.559 136.525 397.34 136.412C397.121 136.299 396.844 136.242 396.508 136.242C396.203 136.242 395.934 136.303 395.699 136.424C395.469 136.541 395.287 136.709 395.154 136.928C395.025 137.146 394.961 137.404 394.961 137.701H393.877C393.877 137.268 393.986 136.873 394.205 136.518C394.424 136.162 394.73 135.879 395.125 135.668C395.523 135.457 395.984 135.352 396.508 135.352C397.023 135.352 397.475 135.443 397.861 135.627C398.248 135.807 398.549 136.076 398.764 136.436C398.979 136.791 399.086 137.234 399.086 137.766C399.086 137.98 399.035 138.211 398.934 138.457C398.836 138.699 398.682 138.926 398.471 139.137C398.264 139.348 397.994 139.521 397.662 139.658C397.33 139.791 396.932 139.857 396.467 139.857H395.541V139.201ZM395.541 140.092V139.441H396.467C397.01 139.441 397.459 139.506 397.814 139.635C398.17 139.764 398.449 139.936 398.652 140.15C398.859 140.365 399.004 140.602 399.086 140.859C399.172 141.113 399.215 141.367 399.215 141.621C399.215 142.02 399.146 142.373 399.01 142.682C398.877 142.99 398.688 143.252 398.441 143.467C398.199 143.682 397.914 143.844 397.586 143.953C397.258 144.062 396.9 144.117 396.514 144.117C396.143 144.117 395.793 144.064 395.465 143.959C395.141 143.854 394.854 143.701 394.604 143.502C394.354 143.299 394.158 143.051 394.018 142.758C393.877 142.461 393.807 142.123 393.807 141.744H394.891C394.891 142.041 394.955 142.301 395.084 142.523C395.217 142.746 395.404 142.92 395.646 143.045C395.893 143.166 396.182 143.227 396.514 143.227C396.846 143.227 397.131 143.17 397.369 143.057C397.611 142.939 397.797 142.764 397.926 142.529C398.059 142.295 398.125 142 398.125 141.645C398.125 141.289 398.051 140.998 397.902 140.771C397.754 140.541 397.543 140.371 397.27 140.262C397 140.148 396.682 140.092 396.314 140.092H395.541ZM406.064 139.055V140.355C406.064 141.055 406.002 141.645 405.877 142.125C405.752 142.605 405.572 142.992 405.338 143.285C405.104 143.578 404.82 143.791 404.488 143.924C404.16 144.053 403.789 144.117 403.375 144.117C403.047 144.117 402.744 144.076 402.467 143.994C402.189 143.912 401.939 143.781 401.717 143.602C401.498 143.418 401.311 143.18 401.154 142.887C400.998 142.594 400.879 142.238 400.797 141.82C400.715 141.402 400.674 140.914 400.674 140.355V139.055C400.674 138.355 400.736 137.77 400.861 137.297C400.99 136.824 401.172 136.445 401.406 136.16C401.641 135.871 401.922 135.664 402.25 135.539C402.582 135.414 402.953 135.352 403.363 135.352C403.695 135.352 404 135.393 404.277 135.475C404.559 135.553 404.809 135.68 405.027 135.855C405.246 136.027 405.432 136.258 405.584 136.547C405.74 136.832 405.859 137.182 405.941 137.596C406.023 138.01 406.064 138.496 406.064 139.055ZM404.975 140.531V138.873C404.975 138.49 404.951 138.154 404.904 137.865C404.861 137.572 404.797 137.322 404.711 137.115C404.625 136.908 404.516 136.74 404.383 136.611C404.254 136.482 404.104 136.389 403.932 136.33C403.764 136.268 403.574 136.236 403.363 136.236C403.105 136.236 402.877 136.285 402.678 136.383C402.479 136.477 402.311 136.627 402.174 136.834C402.041 137.041 401.939 137.312 401.869 137.648C401.799 137.984 401.764 138.393 401.764 138.873V140.531C401.764 140.914 401.785 141.252 401.828 141.545C401.875 141.838 401.943 142.092 402.033 142.307C402.123 142.518 402.232 142.691 402.361 142.828C402.49 142.965 402.639 143.066 402.807 143.133C402.979 143.195 403.168 143.227 403.375 143.227C403.641 143.227 403.873 143.176 404.072 143.074C404.271 142.973 404.438 142.814 404.57 142.6C404.707 142.381 404.809 142.102 404.875 141.762C404.941 141.418 404.975 141.008 404.975 140.531Z" fill="white" fill-opacity="0.24"/>
<path d="M432.312 123.457C432.312 123.09 432.426 122.781 432.652 122.531C432.879 122.273 433.211 122.145 433.648 122.145C434.086 122.145 434.418 122.273 434.645 122.531C434.879 122.781 434.996 123.09 434.996 123.457C434.996 123.816 434.879 124.121 434.645 124.371C434.418 124.613 434.086 124.734 433.648 124.734C433.211 124.734 432.879 124.613 432.652 124.371C432.426 124.121 432.312 123.816 432.312 123.457ZM438.594 123.457C438.594 123.09 438.707 122.781 438.934 122.531C439.16 122.273 439.492 122.145 439.93 122.145C440.367 122.145 440.699 122.273 440.926 122.531C441.16 122.781 441.277 123.09 441.277 123.457C441.277 123.816 441.16 124.121 440.926 124.371C440.699 124.613 440.367 124.734 439.93 124.734C439.492 124.734 439.16 124.613 438.934 124.371C438.707 124.121 438.594 123.816 438.594 123.457ZM444.875 123.457C444.875 123.09 444.988 122.781 445.215 122.531C445.441 122.273 445.773 122.145 446.211 122.145C446.648 122.145 446.98 122.273 447.207 122.531C447.441 122.781 447.559 123.09 447.559 123.457C447.559 123.816 447.441 124.121 447.207 124.371C446.98 124.613 446.648 124.734 446.211 124.734C445.773 124.734 445.441 124.613 445.215 124.371C444.988 124.121 444.875 123.816 444.875 123.457Z" fill="white" fill-opacity="0.24"/>
</svg>
